<svg width="10" height="8" viewBox="0 0 10 8" fill="none" xmlns="http://www.w3.org/2000/svg">
<path id="Vector" d="M9.81936 1.03532L8.94196 0.176743C8.82165 0.0589292 8.67533 0 8.50334 0C8.3312 0 8.18488 0.0589292 8.06457 0.176743L3.83226 4.3245L1.93547 2.46209C1.81503 2.34423 1.6688 2.28537 1.49681 2.28537C1.32471 2.28537 1.17849 2.34423 1.05805 2.46209L0.180642 3.32069C0.0601989 3.43853 0 3.58166 0 3.75004C0 3.9183 0.0601989 4.06156 0.180642 4.17938L3.39355 7.32323C3.51393 7.44114 3.6602 7.5 3.83226 7.5C4.00424 7.5 4.15052 7.44098 4.27096 7.32323L9.81936 1.89396C9.93969 1.7761 10 1.63299 10 1.46461C10.0001 1.29631 9.93969 1.15318 9.81936 1.03532Z" fill="white"/>
</svg>
