<svg width="50" height="35" viewBox="0 0 50 35" fill="none" xmlns="http://www.w3.org/2000/svg">
<path d="M49.4969 17.7129L42.8753 9.84964C42.7097 9.6841 42.4614 9.51855 42.2131 9.51855H33.1083V22.7619H0V28.5558C0 29.0525 0.331083 29.3835 0.827708 29.3835H5.62842C5.54564 29.6319 5.54564 29.9629 5.54564 30.2113C5.54564 32.5288 7.3666 34.3498 9.68418 34.3498C12.0018 34.3498 13.8227 32.5288 13.8227 30.2113C13.8227 29.9629 13.8227 29.6319 13.74 29.3835H36.5019C36.4192 29.6319 36.4192 29.9629 36.4192 30.2113C36.4192 32.5288 38.2401 34.3498 40.5577 34.3498C42.8753 34.3498 44.6962 32.5288 44.6962 30.2113C44.6962 29.9629 44.6962 29.6319 44.6135 29.3835H48.8348C49.3314 29.3835 49.6625 29.0525 49.6625 28.5558V18.2923V18.2095C49.6625 18.0439 49.5797 17.8784 49.4969 17.7129ZM47.0966 17.3818H41.3854V14.4848H44.6135L47.0966 17.3818ZM9.68418 32.6944C8.27708 32.6944 7.20106 31.6184 7.20106 30.2113C7.20106 29.7974 7.28383 29.3835 7.53214 28.9697C7.946 28.2248 8.77371 27.7281 9.68418 27.7281C9.9325 27.7281 10.098 27.7281 10.3464 27.8109C10.7602 27.8937 11.1741 28.142 11.4224 28.4731C11.5879 28.6386 11.6707 28.8042 11.8362 28.9697C12.0845 29.3835 12.1673 29.7974 12.1673 30.2113C12.1673 31.6184 11.0085 32.6944 9.68418 32.6944ZM40.5577 32.6944C39.1506 32.6944 38.0746 31.6184 38.0746 30.2113C38.0746 29.7974 38.1573 29.3835 38.4057 28.9697C38.8195 28.2248 39.6472 27.7281 40.5577 27.7281C40.806 27.7281 40.9716 27.7281 41.2199 27.8109C41.6337 27.8937 42.0476 28.142 42.2959 28.4731C42.4614 28.6386 42.5442 28.8042 42.7097 28.9697C42.9581 29.3835 43.0408 29.7974 43.0408 30.2113C43.0408 31.6184 41.9648 32.6944 40.5577 32.6944ZM48.0071 27.7281H43.8685C43.8685 27.6454 43.7858 27.6454 43.7858 27.5626C43.703 27.4798 43.6202 27.3971 43.5374 27.3143C43.4547 27.2315 43.4547 27.2315 43.3719 27.1487C43.2891 27.066 43.2064 26.9832 43.1236 26.9832C43.0408 26.9004 43.0408 26.9004 42.9581 26.9004C42.8753 26.8177 42.7925 26.8177 42.7097 26.7349C42.627 26.7349 42.627 26.6521 42.5442 26.6521C42.4614 26.5693 42.3787 26.5693 42.2959 26.4866C42.2131 26.4866 42.1303 26.4038 42.1303 26.4038C42.0476 26.4038 41.9648 26.321 41.7993 26.321C41.7165 26.321 41.6337 26.321 41.6337 26.2383C41.5509 26.2383 41.3854 26.1555 41.3026 26.1555C41.2199 26.1555 41.2199 26.1555 41.1371 26.1555C40.9716 26.1555 40.806 26.1555 40.6405 26.1555C40.4749 26.1555 40.3094 26.1555 40.1438 26.1555C40.0611 26.1555 40.0611 26.1555 39.9783 26.1555C39.8955 26.1555 39.73 26.1555 39.6472 26.2383C39.5644 26.2383 39.4817 26.2383 39.4817 26.321C39.3989 26.321 39.3161 26.4038 39.1506 26.4038C39.0678 26.4038 38.9851 26.4866 38.9851 26.4866C38.9023 26.5693 38.8195 26.5693 38.7367 26.6521C38.654 26.6521 38.654 26.7349 38.5712 26.7349C38.4884 26.8177 38.4057 26.8177 38.3229 26.9004C38.2401 26.9004 38.2401 26.9832 38.1573 26.9832C38.0746 27.066 37.9918 27.1487 37.909 27.1487C37.8263 27.2315 37.8263 27.2315 37.7435 27.3143C37.6607 27.3971 37.5779 27.4798 37.4952 27.5626C37.4952 27.6454 37.4124 27.6454 37.4124 27.7281H12.995C12.995 27.6454 12.9122 27.6454 12.9122 27.5626C12.8295 27.4798 12.7467 27.3971 12.6639 27.3143C12.5812 27.2315 12.5812 27.2315 12.4984 27.1487C12.4156 27.066 12.3329 26.9832 12.2501 26.9832C12.1673 26.9004 12.1673 26.9004 12.0845 26.9004C12.0018 26.8177 11.919 26.8177 11.8362 26.7349C11.7535 26.7349 11.7535 26.6521 11.6707 26.6521C11.5879 26.5693 11.5051 26.5693 11.4224 26.4866C11.3396 26.4866 11.2568 26.4038 11.2568 26.4038C11.1741 26.4038 11.0913 26.321 10.9257 26.321C10.843 26.321 10.7602 26.321 10.7602 26.2383C10.6774 26.2383 10.5119 26.1555 10.4291 26.1555C10.3464 26.1555 10.3464 26.1555 10.2636 26.1555C10.098 26.1555 9.9325 26.1555 9.76696 26.1555C9.60141 26.1555 9.43587 26.1555 9.27033 26.1555C9.18756 26.1555 9.18756 26.1555 9.10479 26.1555C9.02202 26.1555 8.85648 26.1555 8.77371 26.2383C8.69094 26.2383 8.60816 26.2383 8.60816 26.321C8.52539 26.321 8.44262 26.4038 8.35985 26.4038C8.27708 26.4038 8.19431 26.4866 8.11154 26.4866C8.02877 26.4866 7.946 26.5693 7.86323 26.5693C7.78046 26.5693 7.69769 26.6521 7.61491 26.6521C7.53214 26.7349 7.44937 26.7349 7.3666 26.8177C7.28383 26.9004 7.20106 26.9004 7.20106 26.9832C7.11829 27.066 7.11829 27.066 7.03552 27.1487C6.95275 27.2315 6.86998 27.2315 6.86998 27.3143C6.62167 27.3971 6.62167 27.4798 6.53889 27.5626C6.45612 27.6454 6.45612 27.7281 6.37335 27.7281H1.65542V24.4173H33.936C34.4327 24.4173 34.7637 24.0862 34.7637 23.5896V11.174H41.7993L43.2064 12.8294H40.5577C40.0611 12.8294 39.73 13.1605 39.73 13.6571V18.2095C39.73 18.7061 40.0611 19.0372 40.5577 19.0372H48.0071V27.7281Z" fill="#4E9DD3"/>
<path d="M28.3078 6.70444C27.5628 2.81421 24.1692 0 20.1135 0H13.6574C9.68435 0 6.29075 2.81421 5.46304 6.70444C4.46979 7.03552 3.72485 7.946 3.72485 9.02202C3.72485 9.68418 3.97317 10.2636 4.38702 10.6774C3.97317 11.0913 3.72485 11.6707 3.72485 12.3328C3.72485 13.4089 4.46979 14.4021 5.46304 14.6504C6.20798 18.5407 9.60158 21.3549 13.6574 21.3549H20.1135C24.0865 21.3549 27.4801 18.5407 28.3078 14.6504C29.301 14.3194 30.046 13.4089 30.046 12.3328C30.046 11.6707 29.7977 11.0913 29.3838 10.6774C29.7977 10.2636 30.046 9.68418 30.046 9.02202C30.1287 7.946 29.3838 7.03552 28.3078 6.70444ZM13.6574 1.65542H20.1135C23.176 1.65542 25.7419 3.72469 26.5696 6.62166H26.2385L26.073 6.45612C25.7419 5.9595 25.1625 5.79396 24.5831 5.79396H24.0865C23.5071 5.79396 22.9277 6.04227 22.5138 6.45612C22.4311 6.53889 22.2655 6.62166 22.1 6.62166H21.6033C21.4378 6.62166 21.2723 6.53889 21.1895 6.45612C20.7756 5.9595 20.1962 5.79396 19.6168 5.79396H19.1202C18.5408 5.79396 17.9614 6.04227 17.5476 6.45612C17.4648 6.53889 17.2993 6.62166 17.1337 6.62166H16.6371C16.4716 6.62166 16.306 6.53889 16.2232 6.45612C15.8922 5.9595 15.3128 5.79396 14.7334 5.79396H14.2367C13.6574 5.79396 13.078 6.04227 12.6641 6.45612C12.5813 6.53889 12.4158 6.62166 12.2502 6.62166H11.7536C11.5881 6.62166 11.4225 6.53889 11.3398 6.45612C10.9259 5.9595 10.3465 5.79396 9.76712 5.79396H9.2705C8.6911 5.79396 8.11171 6.04227 7.69785 6.45612L7.53231 6.53889H7.284C8.02894 3.72469 10.6776 1.65542 13.6574 1.65542ZM6.20798 8.19431H8.19448L8.85664 7.53214C9.02218 7.44937 9.10496 7.3666 9.2705 7.3666H9.76712C9.93266 7.3666 10.0982 7.44937 10.181 7.53214C10.5948 7.946 11.1742 8.19431 11.7536 8.19431H12.2502C12.8296 8.19431 13.409 7.946 13.8229 7.53214C13.9057 7.44937 14.0712 7.3666 14.2367 7.3666H14.7334C14.8989 7.3666 15.0645 7.44937 15.1472 7.53214C15.5611 7.946 16.1405 8.19431 16.7199 8.19431H17.2165C17.7959 8.19431 18.3753 7.946 18.7891 7.53214C18.8719 7.44937 19.0375 7.3666 19.1202 7.3666H19.6168C19.7824 7.3666 19.9479 7.44937 20.0307 7.53214C20.4446 7.946 21.024 8.19431 21.6033 8.19431H22.1C22.6794 8.19431 23.2588 7.946 23.6726 7.53214C23.7554 7.44937 23.9209 7.3666 24.0865 7.3666H24.5831C24.7486 7.3666 24.9142 7.44937 24.997 7.53214L25.6591 8.19431H27.6456C28.0595 8.19431 28.4733 8.52539 28.4733 9.02202C28.4733 9.51864 28.1422 9.84973 27.6456 9.84973H6.20798C5.79412 9.84973 5.38027 9.51864 5.38027 9.02202C5.38027 8.52539 5.79412 8.19431 6.20798 8.19431ZM20.1962 19.6995H13.7401C10.6776 19.6995 8.11171 17.6302 7.284 14.7332H26.6524C25.8247 17.713 23.2588 19.6995 20.1962 19.6995ZM27.6456 13.1606H6.20798C5.79412 13.1606 5.38027 12.8295 5.38027 12.3328C5.38027 11.8362 5.71135 11.5051 6.20798 11.5051H27.5628C27.9767 11.5051 28.3906 11.8362 28.3906 12.3328C28.3906 12.8295 28.0595 13.1606 27.6456 13.1606Z" fill="#4E9DD3"/>
</svg>
