<svg width="29" height="37" viewBox="0 0 29 37" fill="none" xmlns="http://www.w3.org/2000/svg">
<path d="M21.5656 7.07103C21.4872 6.94224 21.3761 6.83561 21.2432 6.76159C21.1102 6.68756 20.96 6.64867 20.8072 6.6487C20.6543 6.64874 20.5041 6.6877 20.3712 6.76179C20.2383 6.83587 20.1272 6.94255 20.0489 7.07138C18.7324 9.29108 17.5379 11.5784 16.4706 13.9235C14.72 9.2436 12.5497 4.72548 9.98534 0.422302L9.98381 0.420414C9.94825 0.363924 9.90619 0.311639 9.85845 0.264589C9.84695 0.253027 9.8349 0.241464 9.82241 0.230711C9.77429 0.185694 9.72102 0.146287 9.66368 0.113274L9.66137 0.112542C9.60333 0.0811955 9.54184 0.056446 9.4781 0.0387729C9.462 0.0338781 9.4463 0.0297156 9.42981 0.025977C9.2969 -0.00865901 9.15708 -0.00865901 9.02417 0.025977C9.00768 0.0298312 8.99198 0.0336854 8.97584 0.0387729C8.91264 0.056267 8.85167 0.0807569 8.7941 0.111771L8.79018 0.113274C8.73283 0.146278 8.67956 0.185685 8.63145 0.230711C8.6188 0.241618 8.60691 0.252911 8.59541 0.264589C8.54767 0.311648 8.50559 0.363931 8.47001 0.420414L8.46848 0.422302C8.12298 0.989869 0 14.4306 0 23.2696C0 33.3931 4.76649 37 9.22699 37C10.4029 37 11.5637 36.7411 12.6241 36.2422C13.6846 35.7434 14.6175 35.0174 15.3541 34.1177C15.9486 35.004 16.7582 35.7315 17.7101 36.2346C18.6619 36.7377 19.7262 37.0007 20.8073 37C24.5075 37 28.4615 34.0303 28.4615 25.6949C28.4615 18.4768 21.8471 7.53322 21.5656 7.07103ZM9.22699 35.2641C8.80792 35.1331 7.30001 32.7608 7.30001 23.2695C7.30001 17.883 8.40688 10.4675 9.22699 5.71228C10.0475 10.4668 11.1544 17.8812 11.1544 23.2695C11.1544 32.7623 9.64641 35.1335 9.22699 35.2641ZM1.76672 23.2695C1.76672 18.0302 4.96122 10.7901 7.3675 6.07885C6.55198 10.8812 5.53329 17.944 5.53329 23.2695C5.53329 27.4424 5.81891 32.1469 6.9116 34.8243C3.68683 33.5113 1.76672 29.3323 1.76672 23.2695ZM11.5423 34.8243C12.6354 32.1471 12.9211 27.4426 12.9211 23.2697C12.9211 17.9442 11.9024 10.8817 11.0869 6.07943C12.8592 9.47518 14.3391 13.0105 15.5109 16.6485L15.5113 16.6504C15.8721 17.8189 16.1641 19.0069 16.3859 20.2083C16.3893 20.2279 16.3928 20.2482 16.3962 20.2678C16.4394 20.5121 16.4771 20.7511 16.5105 20.9863C16.5151 21.0195 16.5204 21.0526 16.5251 21.0857C16.5553 21.3054 16.5803 21.5204 16.6017 21.7319C16.6059 21.7733 16.6117 21.8151 16.6155 21.8562C16.6347 22.0598 16.6485 22.2574 16.66 22.4531C16.6627 22.4968 16.6669 22.5412 16.6692 22.5841C16.6807 22.8182 16.6872 23.0471 16.6872 23.2695C16.6872 23.4983 16.6846 23.7243 16.6794 23.9474C16.5969 27.2972 15.902 30.0934 14.6562 32.0656C14.6461 32.0849 14.637 32.1046 14.6289 32.1247C13.9149 33.3209 12.8348 34.2655 11.5423 34.8241V34.8243ZM20.8073 35.2656C18.98 35.2656 17.4774 34.3356 16.4369 32.5711C17.5135 30.6858 18.2461 28.1245 18.4145 24.7656C18.4184 24.6892 18.4214 24.6128 18.4248 24.536C18.4421 24.1243 18.4539 23.705 18.4539 23.2695C18.4539 23.0139 18.4461 22.7512 18.4321 22.4825C18.4259 22.3612 18.4148 22.2378 18.406 22.1151C18.3957 21.9721 18.3861 21.8299 18.3723 21.683C18.3562 21.5144 18.3351 21.3435 18.3144 21.1726C18.3021 21.0729 18.2908 20.9739 18.2772 20.8723C18.2484 20.6615 18.2155 20.4492 18.1802 20.2358C18.1702 20.1749 18.161 20.1146 18.1503 20.0533C18.1062 19.7973 18.0578 19.5396 18.005 19.2802L17.9935 19.2237C17.8064 18.3099 17.5699 17.3795 17.2942 16.4434C18.3286 13.9912 19.5015 11.5976 20.8073 9.27362C22.551 12.3848 26.6948 20.3428 26.6948 25.6949C26.6948 31.5985 24.4389 35.2656 20.8073 35.2656Z" fill="#4E9DD3"/>
</svg>
