<svg width="45" height="39" viewBox="0 0 45 39" fill="none" xmlns="http://www.w3.org/2000/svg">
<g clip-path="url(#clip0_409_68)">
<path d="M32.873 15.397C32.1934 11.8438 29.0505 9.30588 25.398 9.30588H19.452C15.7994 9.30588 12.6565 11.9284 11.977 15.397C11.0426 15.6508 10.363 16.4968 10.363 17.512C10.363 18.1041 10.6179 18.6117 10.9576 19.0347C10.6179 19.4577 10.363 19.9653 10.363 20.5575C10.363 21.5727 11.0426 22.4187 11.977 22.6725C12.6565 26.2256 15.7994 28.7636 19.452 28.7636H25.398C29.0505 28.7636 32.1934 26.141 32.873 22.6725C33.8074 22.4187 34.4869 21.5727 34.4869 20.5575C34.4869 19.9653 34.2321 19.4577 33.8923 19.0347C34.2321 18.6117 34.4869 18.1041 34.4869 17.512C34.4869 16.4968 33.8074 15.6508 32.873 15.397ZM19.452 10.7441H25.398C28.2011 10.7441 30.5795 12.6052 31.344 15.2278H31.0892L30.9193 15.0586C30.4946 14.6356 29.9849 14.4664 29.4753 14.4664H29.0505C28.5409 14.4664 28.0312 14.6356 27.6065 15.0586C27.5216 15.1432 27.3517 15.2278 27.2667 15.2278H26.842C26.6721 15.2278 26.5872 15.1432 26.5022 15.0586C26.0775 14.6356 25.5679 14.4664 25.0582 14.4664H24.6335C24.1238 14.4664 23.6142 14.6356 23.1895 15.0586C23.1045 15.1432 22.9346 15.2278 22.8497 15.2278H22.425C22.2551 15.2278 22.1701 15.1432 22.0852 15.0586C21.6605 14.6356 21.1508 14.4664 20.6412 14.4664H20.2164C19.7068 14.4664 19.1971 14.6356 18.7724 15.0586C18.6875 15.1432 18.5176 15.2278 18.4326 15.2278H18.0079C17.838 15.2278 17.7531 15.1432 17.6682 15.0586C17.2434 14.6356 16.7338 14.4664 16.2241 14.4664H15.7994C15.2897 14.4664 14.7801 14.6356 14.3554 15.0586L14.1855 15.2278H13.5909C14.2704 12.6898 16.6488 10.7441 19.452 10.7441ZM12.6565 16.7506H14.4403L15.0349 16.1584C15.1199 16.0738 15.2897 16.0738 15.4596 16.0738H15.8843C16.0542 16.0738 16.1392 16.1584 16.2241 16.243C16.6488 16.666 17.1585 16.8352 17.6682 16.8352H18.0929C18.6025 16.8352 19.1122 16.666 19.5369 16.243C19.6218 16.1584 19.7917 16.0738 19.8767 16.0738H20.3863C20.5562 16.0738 20.6412 16.1584 20.7261 16.243C21.1508 16.666 21.6605 16.8352 22.1701 16.8352H22.5949C23.1045 16.8352 23.6142 16.666 24.0389 16.243C24.1238 16.1584 24.2937 16.0738 24.3787 16.0738H24.8034C24.9733 16.0738 25.0582 16.1584 25.1432 16.243C25.5679 16.666 26.0775 16.8352 26.5872 16.8352H27.1818C27.6914 16.8352 28.2011 16.666 28.6258 16.243C28.7108 16.0738 28.8806 16.0738 28.9656 16.0738H29.3903C29.5602 16.0738 29.6451 16.1584 29.7301 16.243L30.3247 16.8352H32.2784C32.7031 16.8352 33.0429 17.1736 33.0429 17.5965C33.0429 18.0195 32.7031 18.3579 32.2784 18.3579H12.6565C12.2318 18.3579 11.892 18.0195 11.892 17.5965C11.892 17.1736 12.2318 16.7506 12.6565 16.7506ZM25.398 27.3254H19.452C16.6488 27.3254 14.2704 25.4642 13.5059 22.8417H31.2591C30.5795 25.3796 28.2011 27.3254 25.398 27.3254ZM32.2784 21.3189H12.6565C12.2318 21.3189 11.892 20.9805 11.892 20.5575C11.892 20.1345 12.2318 19.7961 12.6565 19.7961H32.2784C32.7031 19.7961 33.0429 20.1345 33.0429 20.5575C33.0429 20.9805 32.6182 21.3189 32.2784 21.3189Z" fill="#4E9DD3"/>
<path d="M10.3621 1.69197C15.7984 1.69197 20.98 6.7679 21.2348 7.02169C21.5746 7.36009 21.9993 7.44469 22.3391 7.44469C22.6788 7.44469 23.1035 7.27549 23.4433 7.02169C23.5283 7.02169 26.0766 4.48373 29.5592 2.96095C31.343 2.19957 32.9569 1.77657 34.4859 1.77657C36.6944 1.77657 38.6481 2.62256 40.347 4.31453C42.4706 6.3449 43.32 8.79826 43.0652 11.59C42.1308 21.9111 26.2464 34.0933 22.3391 36.9696C20.6402 35.7007 16.7328 32.7397 12.7405 28.9328C6.02996 22.2495 2.20752 16.3275 1.69786 11.5054C1.52797 8.71367 2.3774 6.3449 4.41604 4.22994C6.28479 2.36876 8.40837 1.69197 10.3621 1.69197ZM10.3621 0C7.64388 0 5.26547 1.01518 3.22683 3.04555C0.763482 5.58351 -0.255836 8.37527 -0.00100627 11.6746C0.508653 16.9197 4.41604 23.0954 11.6362 30.0325C15.7984 34.0087 19.8757 37.1388 21.4047 38.2386L22.424 39L23.4433 38.2386C28.2001 34.7701 43.8297 22.5879 44.849 11.6746C45.1888 8.29067 44.0845 5.41432 41.6212 3.04555C39.5825 1.01518 37.2041 0 34.4859 0C32.7021 0 30.8334 0.422994 28.8797 1.35358C26.841 2.28416 24.8024 3.55315 22.8487 5.32972H22.7638L22.3391 5.75271C21.5746 4.90672 16.2231 0 10.3621 0Z" fill="#4E9DD3"/>
</g>
<defs>
<clipPath id="clip0_409_68">
<rect width="44.85" height="39" fill="white"/>
</clipPath>
</defs>
</svg>
