<svg width="45" height="31" viewBox="0 0 45 31" fill="none" xmlns="http://www.w3.org/2000/svg">
<path d="M44.6699 15.9855L38.694 8.88913C38.5446 8.73973 38.3205 8.59033 38.0964 8.59033H29.8795V20.5421H0V25.7711C0 26.2192 0.298795 26.518 0.746988 26.518H5.07952C5.00482 26.7421 5.00482 27.0409 5.00482 27.265C5.00482 29.3566 6.64819 31 8.73976 31C10.8313 31 12.4747 29.3566 12.4747 27.265C12.4747 27.0409 12.4747 26.7421 12.4 26.518H32.9422C32.8675 26.7421 32.8675 27.0409 32.8675 27.265C32.8675 29.3566 34.5108 31 36.6024 31C38.694 31 40.3374 29.3566 40.3374 27.265C40.3374 27.0409 40.3374 26.7421 40.2627 26.518H44.0723C44.5205 26.518 44.8193 26.2192 44.8193 25.7711V16.5084V16.4337C44.8193 16.2843 44.7446 16.1349 44.6699 15.9855Z" fill="#FFE9D9"/>
<path d="M10.0098 1.26987C12.2507 0.373483 14.7158 0.448182 17.1062 0.522881C18.376 0.59758 19.7206 0.672278 20.9158 1.12047C22.858 1.86746 24.3519 3.51083 24.8748 5.453C24.9495 5.6771 25.0242 5.97589 25.1736 6.12529C25.323 6.34939 25.6218 6.42409 25.8459 6.57348C26.5929 7.09637 26.817 8.14216 26.4435 8.96384C26.2941 9.18794 26.1447 9.41204 26.1447 9.63613C26.07 10.0096 26.3688 10.3084 26.4435 10.6072C26.6676 11.2048 26.5182 11.9518 25.9953 12.3253C25.7712 12.5494 25.4724 12.6241 25.2483 12.8482C24.9495 13.0723 24.8001 13.4458 24.6507 13.7446C24.2772 14.4169 23.9038 15.0891 23.4556 15.7614C22.9327 16.5831 22.4098 17.4048 21.5134 17.9277C20.9158 18.3759 20.1688 18.5253 19.4218 18.6C17.1809 18.8241 14.8652 18.8241 12.6242 18.6747C11.6531 18.6 10.6074 18.6 9.63628 18.2265C7.54471 17.4795 6.12544 15.4626 5.75194 13.2964C5.67725 12.9976 5.67725 12.6241 5.37845 12.4747C5.15435 12.3253 4.93026 12.4 4.70616 12.3253C4.25797 12.1759 4.03387 11.5783 4.10857 11.0554C4.18327 10.5325 4.55676 10.159 4.85556 9.78553C4.18327 9.41204 3.73508 8.59035 3.95917 7.76866C4.10857 6.72288 4.93026 6.87228 5.45315 6.34939C5.90134 5.90119 5.97604 4.85541 6.34953 4.25782C7.17122 2.83854 8.5158 1.79276 10.0098 1.26987Z" fill="#FFA8A8"/>
<path d="M44.6699 15.9855L38.694 8.88913C38.5446 8.73973 38.3205 8.59033 38.0964 8.59033H29.8795V20.5421H0V25.7711C0 26.2192 0.298795 26.518 0.746988 26.518H5.07952C5.00482 26.7421 5.00482 27.0409 5.00482 27.265C5.00482 29.3566 6.64819 31 8.73976 31C10.8313 31 12.4747 29.3566 12.4747 27.265C12.4747 27.0409 12.4747 26.7421 12.4 26.518H32.9422C32.8675 26.7421 32.8675 27.0409 32.8675 27.265C32.8675 29.3566 34.5108 31 36.6024 31C38.694 31 40.3374 29.3566 40.3374 27.265C40.3374 27.0409 40.3374 26.7421 40.2627 26.518H44.0723C44.5205 26.518 44.8193 26.2192 44.8193 25.7711V16.5084V16.4337C44.8193 16.2843 44.7446 16.1349 44.6699 15.9855ZM42.5036 15.6867H37.3494V13.0723H40.2627L42.5036 15.6867ZM8.73976 29.506C7.46988 29.506 6.4988 28.5349 6.4988 27.265C6.4988 26.8915 6.57349 26.518 6.79759 26.1445C7.17109 25.4723 7.91807 25.0241 8.73976 25.0241C8.96386 25.0241 9.11325 25.0241 9.33735 25.0988C9.71084 25.1735 10.0843 25.3976 10.3084 25.6964C10.4578 25.8458 10.5325 25.9952 10.6819 26.1445C10.906 26.518 10.9807 26.8915 10.9807 27.265C10.9807 28.5349 9.93494 29.506 8.73976 29.506ZM36.6024 29.506C35.3325 29.506 34.3614 28.5349 34.3614 27.265C34.3614 26.8915 34.4361 26.518 34.6602 26.1445C35.0337 25.4723 35.7807 25.0241 36.6024 25.0241C36.8265 25.0241 36.9759 25.0241 37.2 25.0988C37.5735 25.1735 37.947 25.3976 38.1711 25.6964C38.3205 25.8458 38.3952 25.9952 38.5446 26.1445C38.7687 26.518 38.8434 26.8915 38.8434 27.265C38.8434 28.5349 37.8723 29.506 36.6024 29.506ZM43.3253 25.0241H39.5904C39.5904 24.9494 39.5157 24.9494 39.5157 24.8747C39.441 24.8 39.3663 24.7253 39.2916 24.6506C39.2169 24.5759 39.2169 24.5759 39.1422 24.5012C39.0675 24.4265 38.9928 24.3518 38.9181 24.3518C38.8434 24.2771 38.8434 24.2771 38.7687 24.2771C38.694 24.2024 38.6193 24.2024 38.5446 24.1277C38.4699 24.1277 38.4699 24.053 38.3952 24.053C38.3205 23.9783 38.2458 23.9783 38.1711 23.9036C38.0964 23.9036 38.0217 23.8289 38.0217 23.8289C37.947 23.8289 37.8723 23.7542 37.7229 23.7542C37.6482 23.7542 37.5735 23.7542 37.5735 23.6795C37.4988 23.6795 37.3494 23.6048 37.2747 23.6048C37.2 23.6048 37.2 23.6048 37.1253 23.6048C36.9759 23.6048 36.8265 23.6048 36.6771 23.6048C36.5277 23.6048 36.3783 23.6048 36.2289 23.6048C36.1542 23.6048 36.1542 23.6048 36.0795 23.6048C36.0048 23.6048 35.8554 23.6048 35.7807 23.6795C35.706 23.6795 35.6313 23.6795 35.6313 23.7542C35.5566 23.7542 35.4819 23.8289 35.3325 23.8289C35.2578 23.8289 35.1831 23.9036 35.1831 23.9036C35.1084 23.9783 35.0337 23.9783 34.959 24.053C34.8843 24.053 34.8843 24.1277 34.8096 24.1277C34.7349 24.2024 34.6602 24.2024 34.5855 24.2771C34.5108 24.2771 34.5108 24.3518 34.4361 24.3518C34.3614 24.4265 34.2867 24.5012 34.212 24.5012C34.1374 24.5759 34.1374 24.5759 34.0627 24.6506C33.988 24.7253 33.9133 24.8 33.8386 24.8747C33.8386 24.9494 33.7639 24.9494 33.7639 25.0241H11.7277C11.7277 24.9494 11.653 24.9494 11.653 24.8747C11.5783 24.8 11.5036 24.7253 11.4289 24.6506C11.3542 24.5759 11.3542 24.5759 11.2795 24.5012C11.2048 24.4265 11.1301 24.3518 11.0554 24.3518C10.9807 24.2771 10.9807 24.2771 10.906 24.2771C10.8313 24.2024 10.7566 24.2024 10.6819 24.1277C10.6072 24.1277 10.6072 24.053 10.5325 24.053C10.4578 23.9783 10.3831 23.9783 10.3084 23.9036C10.2337 23.9036 10.159 23.8289 10.159 23.8289C10.0843 23.8289 10.0096 23.7542 9.86024 23.7542C9.78554 23.7542 9.71084 23.7542 9.71084 23.6795C9.63615 23.6795 9.48675 23.6048 9.41205 23.6048C9.33735 23.6048 9.33735 23.6048 9.26265 23.6048C9.11325 23.6048 8.96386 23.6048 8.81446 23.6048C8.66506 23.6048 8.51566 23.6048 8.36627 23.6048C8.29157 23.6048 8.29157 23.6048 8.21687 23.6048C8.14217 23.6048 7.99277 23.6048 7.91807 23.6795C7.84337 23.6795 7.76867 23.6795 7.76867 23.7542C7.69398 23.7542 7.61928 23.8289 7.54458 23.8289C7.46988 23.8289 7.39518 23.9036 7.32048 23.9036C7.24578 23.9036 7.17108 23.9783 7.09639 23.9783C7.02169 23.9783 6.94699 24.053 6.87229 24.053C6.79759 24.1277 6.72289 24.1277 6.64819 24.2024C6.57349 24.2771 6.4988 24.2771 6.4988 24.3518C6.4241 24.4265 6.4241 24.4265 6.3494 24.5012C6.2747 24.5759 6.2 24.5759 6.2 24.6506C5.9759 24.7253 5.9759 24.8 5.90121 24.8747C5.82651 24.9494 5.82651 25.0241 5.75181 25.0241H1.49398V22.0361H30.6265C31.0747 22.0361 31.3735 21.7373 31.3735 21.2891V10.0843H37.7229L38.9928 11.5783H36.6024C36.1542 11.5783 35.8554 11.8771 35.8554 12.3253V16.4337C35.8554 16.8819 36.1542 17.1807 36.6024 17.1807H43.3253V25.0241Z" fill="black"/>
<path d="M25.5469 6.0506C24.8746 2.53976 21.8119 0 18.1517 0H12.3252C8.73964 0 5.67699 2.53976 4.93 6.0506C4.03362 6.3494 3.36133 7.17108 3.36133 8.14217C3.36133 8.73976 3.58542 9.26265 3.95892 9.63614C3.58542 10.0096 3.36133 10.5325 3.36133 11.1301C3.36133 12.1012 4.03362 12.9976 4.93 13.2217C5.60229 16.7325 8.66494 19.2723 12.3252 19.2723H18.1517C21.7372 19.2723 24.7999 16.7325 25.5469 13.2217C26.4433 12.9229 27.1155 12.1012 27.1155 11.1301C27.1155 10.5325 26.8915 10.0096 26.518 9.63614C26.8915 9.26265 27.1155 8.73976 27.1155 8.14217C27.1902 7.17108 26.518 6.3494 25.5469 6.0506ZM12.3252 1.49398H18.1517C20.9155 1.49398 23.2312 3.36145 23.9782 5.9759H23.6794L23.53 5.82651C23.2312 5.37831 22.7083 5.22892 22.1854 5.22892H21.7372C21.2143 5.22892 20.6915 5.45301 20.318 5.82651C20.2433 5.90121 20.0939 5.9759 19.9445 5.9759H19.4963C19.3469 5.9759 19.1975 5.90121 19.1228 5.82651C18.7493 5.37831 18.2264 5.22892 17.7035 5.22892H17.2553C16.7324 5.22892 16.2095 5.45301 15.836 5.82651C15.7613 5.90121 15.6119 5.9759 15.4625 5.9759H15.0143C14.8649 5.9759 14.7155 5.90121 14.6408 5.82651C14.3421 5.37831 13.8192 5.22892 13.2963 5.22892H12.8481C12.3252 5.22892 11.8023 5.45301 11.4288 5.82651C11.3541 5.90121 11.2047 5.9759 11.0553 5.9759H10.6071C10.4577 5.9759 10.3083 5.90121 10.2336 5.82651C9.86012 5.37831 9.33723 5.22892 8.81434 5.22892H8.36615C7.84326 5.22892 7.32036 5.45301 6.94687 5.82651L6.79747 5.90121H6.57338C7.24567 3.36145 9.63603 1.49398 12.3252 1.49398ZM5.60229 7.39518H7.39506L7.99265 6.79759C8.14205 6.72289 8.21675 6.64819 8.36615 6.64819H8.81434C8.96374 6.64819 9.11314 6.72289 9.18783 6.79759C9.56133 7.17109 10.0842 7.39518 10.6071 7.39518H11.0553C11.5782 7.39518 12.1011 7.17109 12.4746 6.79759C12.5493 6.72289 12.6987 6.64819 12.8481 6.64819H13.2963C13.4457 6.64819 13.5951 6.72289 13.6698 6.79759C14.0433 7.17109 14.5661 7.39518 15.089 7.39518H15.5372C16.0601 7.39518 16.583 7.17109 16.9565 6.79759C17.0312 6.72289 17.1806 6.64819 17.2553 6.64819H17.7035C17.8529 6.64819 18.0023 6.72289 18.077 6.79759C18.4505 7.17109 18.9734 7.39518 19.4963 7.39518H19.9445C20.4674 7.39518 20.9902 7.17109 21.3637 6.79759C21.4384 6.72289 21.5878 6.64819 21.7372 6.64819H22.1854C22.3348 6.64819 22.4842 6.72289 22.5589 6.79759L23.1565 7.39518H24.9493C25.3228 7.39518 25.6963 7.69398 25.6963 8.14217C25.6963 8.59036 25.3975 8.88916 24.9493 8.88916H5.60229C5.2288 8.88916 4.8553 8.59036 4.8553 8.14217C4.8553 7.69398 5.2288 7.39518 5.60229 7.39518ZM18.2264 17.7783H12.3999C9.63603 17.7783 7.32036 15.9108 6.57338 13.2964H24.0529C23.3059 15.9855 20.9902 17.7783 18.2264 17.7783ZM24.9493 11.8771H5.60229C5.2288 11.8771 4.8553 11.5783 4.8553 11.1301C4.8553 10.6819 5.1541 10.3831 5.60229 10.3831H24.8746C25.2481 10.3831 25.6216 10.6819 25.6216 11.1301C25.6216 11.5783 25.3228 11.8771 24.9493 11.8771Z" fill="black"/>
</svg>
