<svg width="42" height="40" viewBox="0 0 42 40" fill="none" xmlns="http://www.w3.org/2000/svg">
<path d="M9.59985 18.2001C9.69985 17.6001 10.0999 17.0001 10.5999 16.8001C10.6999 16.7001 10.8999 16.7001 10.8999 16.6001C10.9999 16.5001 10.9999 16.3001 10.9999 16.1001C10.9999 15.7001 11.1999 15.4001 11.3999 15.0001C12.1999 13.8001 12.9999 12.6001 14.1999 11.9001C14.8999 11.5001 15.6999 11.2001 16.4999 11.0001C18.4999 10.5001 20.6999 10.2001 22.7999 10.5001C24.8999 10.7001 26.9999 11.5001 28.5999 12.8001C29.2999 13.3001 29.7999 14.0001 30.0999 14.8001C30.2999 15.5001 30.2999 16.4001 30.8999 16.9001C31.1999 17.1001 31.4999 17.2001 31.7999 17.4001C32.3999 17.9001 32.3998 18.9001 32.0998 19.6001C31.9998 19.8001 31.8999 19.9001 31.8999 20.1001C31.7999 20.6001 32.3999 21.0001 32.3999 21.6001C32.3999 22.3001 31.5999 22.6001 31.1999 23.0001C30.8999 23.4001 30.6999 23.8001 30.5999 24.3001C30.2999 25.2001 29.9999 26.1001 29.4999 26.9001C28.9999 27.7001 28.1999 28.4001 27.2999 28.6001C26.7999 28.7001 26.2999 28.7001 25.7999 28.8001C25.4999 28.9001 25.1999 29.0001 24.8999 29.0001C24.3999 29.1001 23.8999 29.1001 23.2999 29.1001C21.7999 29.1001 20.3999 29.0001 18.8999 29.0001C17.9999 29.0001 17.0999 29.0001 16.2999 28.7001C15.1999 28.4001 14.2999 27.7001 13.4999 26.8001C12.9999 26.2001 12.4999 25.6001 12.2999 24.9001C12.0999 24.2001 12.0999 23.3001 11.3999 22.9001C11.1999 22.7001 10.8999 22.7001 10.5999 22.5001C10.1999 22.2001 10.0999 21.7001 10.0999 21.3001C10.0999 20.8001 10.4999 20.3001 10.3999 19.8001C9.99985 19.2001 9.49985 18.9001 9.59985 18.2001Z" fill="#C1ECC0"/>
<path d="M9.7 16.1C8.7 16.4 8 17.3 8 18.4C8 19 8.2 19.6 8.6 20C8.2 20.4 8 21 8 21.6C8 22.7 8.7 23.6 9.7 23.9C10.5 27.7 13.8 30.5 17.7 30.5H24.1C28 30.5 31.4 27.7 32.1 23.9C33.1 23.6 33.8 22.7 33.8 21.6C33.8 21 33.6 20.4 33.2 20C33.6 19.6 33.8 19 33.8 18.4C33.8 17.3 33.1 16.4 32.1 16.1C31.3 12.3 28 9.5 24.1 9.5H17.7C13.8 9.5 10.5 12.3 9.7 16.1ZM24.1 28.9H17.7C14.7 28.9 12.1 26.9 11.4 24.1H30.4C29.6 26.8 27.1 28.9 24.1 28.9ZM32.2 21.6C32.2 22 31.8 22.4 31.4 22.4H10.4C10 22.4 9.6 22 9.6 21.6C9.6 21.2 10 20.8 10.4 20.8H31.4C31.8 20.8 32.2 21.2 32.2 21.6ZM29.4 17.6H31.3C31.7 17.6 32.1 18 32.1 18.4C32.1 18.8 31.7 19.2 31.3 19.2H10.3C9.9 19.2 9.5 18.8 9.5 18.4C9.5 18 9.9 17.6 10.3 17.6H12.2L12.8 17C12.9 16.9 13.1 16.8 13.2 16.8H13.7C13.9 16.8 14 16.9 14.1 17C14.5 17.4 15.1 17.6 15.6 17.6H16.1C16.7 17.6 17.2 17.4 17.6 17C17.7 16.9 17.9 16.8 18 16.8H18.5C18.7 16.8 18.8 16.9 18.9 17C19.3 17.4 19.9 17.6 20.4 17.6H20.9C21.5 17.6 22 17.4 22.4 17C22.5 16.9 22.7 16.8 22.8 16.8H23.3C23.5 16.8 23.6 16.9 23.7 17C24.1 17.4 24.7 17.6 25.2 17.6H26C26.6 17.6 27.1 17.4 27.5 17C27.6 16.9 27.8 16.8 27.9 16.8H28.4C28.6 16.8 28.7 16.9 28.8 17L29.4 17.6ZM24.1 11.1C27.1 11.1 29.7 13.1 30.4 15.9H30.1L29.9 15.7C29.5 15.3 28.9 15.1 28.4 15.1H27.9C27.3 15.1 26.8 15.3 26.4 15.7C26.3 15.9 26.1 16 26 16H25.5C25.3 16 25.2 15.9 25.1 15.8C24.7 15.4 24.1 15.2 23.6 15.2H23.1C22.5 15.2 22 15.4 21.6 15.8C21.5 15.9 21.3 16 21.2 16H20.7C20.5 16 20.4 15.9 20.3 15.8C19.9 15.4 19.3 15.2 18.8 15.2H18.3C17.7 15.2 17.2 15.4 16.8 15.8C16.7 15.9 16.5 16 16.4 16H15.9C15.7 16 15.6 15.9 15.5 15.8C15.1 15.4 14.5 15.2 14 15.2H13.5C12.9 15.2 12.4 15.4 12 15.8L11.7 16H11.4C12.2 13.2 14.7 11.2 17.7 11.2H24.1V11.1Z" fill="black"/>
<path d="M31.2001 2.8C31.2001 3.2 30.8001 3.6 30.4001 3.6H29.2001V4.8C29.2001 5.2 28.8001 5.6 28.4001 5.6C28.0001 5.6 27.6001 5.2 27.6001 4.8V3.7H26.4001C26.0001 3.7 25.6001 3.3 25.6001 2.9C25.6001 2.5 25.8001 2 26.3001 2H27.5001V0.8C27.5001 0.4 27.9001 0 28.3001 0C28.7001 0 29.1001 0.4 29.1001 0.8V2H30.3001C30.8001 2 31.2001 2.4 31.2001 2.8Z" fill="black"/>
<path d="M41.8002 26.6999C41.8002 27.0999 41.4002 27.4999 41.0002 27.4999H39.8002V28.6999C39.8002 29.0999 39.4002 29.4999 39.0002 29.4999C38.6002 29.4999 38.2002 29.0999 38.2002 28.6999V27.4999H37.0002C36.6002 27.4999 36.2002 27.0999 36.2002 26.6999C36.2002 26.2999 36.6002 25.8999 37.0002 25.8999H38.2002V24.6999C38.2002 24.2999 38.6002 23.8999 39.0002 23.8999C39.4002 23.8999 39.8002 24.2999 39.8002 24.6999V25.8999H41.0002C41.5002 25.8999 41.8002 26.1999 41.8002 26.6999Z" fill="black"/>
<path d="M5.7 11.4C5.7 11.8 5.3 12.2 4.9 12.2H3.7V13.4C3.7 13.8 3.3 14.2 2.9 14.2C2.5 14.2 2 13.9 2 13.4V12.2H0.8C0.4 12.2 0 11.8 0 11.4C0 11 0.4 10.6 0.8 10.6H2V9.3C2 8.9 2.4 8.5 2.8 8.5C3.2 8.5 3.6 8.9 3.6 9.3V10.5H4.8C5.3 10.6 5.7 10.9 5.7 11.4Z" fill="black"/>
<path d="M16.3998 36.4001C16.3998 36.8001 15.9998 37.2001 15.5998 37.2001H14.3998V38.4001C14.3998 38.8001 13.9998 39.2001 13.5998 39.2001C13.1998 39.2001 12.7998 38.8001 12.7998 38.4001V37.2001H11.5998C11.1998 37.2001 10.7998 36.8001 10.7998 36.4001C10.7998 36.0001 11.1998 35.6001 11.5998 35.6001H12.7998V34.4001C12.7998 34.0001 13.1998 33.6001 13.5998 33.6001C13.9998 33.6001 14.3998 34.0001 14.3998 34.4001V35.6001H15.5998C15.9998 35.6001 16.3998 35.9001 16.3998 36.4001Z" fill="black"/>
<path d="M38.4 11.9001C39.1732 11.9001 39.8 11.2733 39.8 10.5001C39.8 9.7269 39.1732 9.1001 38.4 9.1001C37.6268 9.1001 37 9.7269 37 10.5001C37 11.2733 37.6268 11.9001 38.4 11.9001Z" fill="black"/>
<path d="M29.1002 37.9001C29.8734 37.9001 30.5002 37.2733 30.5002 36.5001C30.5002 35.7269 29.8734 35.1001 29.1002 35.1001C28.327 35.1001 27.7002 35.7269 27.7002 36.5001C27.7002 37.2733 28.327 37.9001 29.1002 37.9001Z" fill="black"/>
<path d="M2.0001 29.5002C2.7733 29.5002 3.4001 28.8734 3.4001 28.1002C3.4001 27.327 2.7733 26.7002 2.0001 26.7002C1.2269 26.7002 0.600098 27.327 0.600098 28.1002C0.600098 28.8734 1.2269 29.5002 2.0001 29.5002Z" fill="black"/>
<path d="M12.6998 3.8C13.473 3.8 14.0998 3.1732 14.0998 2.4C14.0998 1.6268 13.473 1 12.6998 1C11.9266 1 11.2998 1.6268 11.2998 2.4C11.2998 3.1732 11.9266 3.8 12.6998 3.8Z" fill="black"/>
</svg>
