<svg width="24" height="24" viewBox="0 0 24 24" fill="none" xmlns="http://www.w3.org/2000/svg">
<path d="M16.1826 20.9826H8.81739C7.86087 20.9826 7 20.2174 7 19.1652V4.81739C7 3.86087 7.76522 3 8.81739 3H16.1826C17.1391 3 18 3.76522 18 4.81739V19.1652C18 20.1217 17.1391 20.9826 16.1826 20.9826Z" stroke="black" stroke-miterlimit="10" stroke-linecap="round" stroke-linejoin="round"/>
<path d="M8.72168 17.3477H16.2782" stroke="black" stroke-miterlimit="10" stroke-linecap="round" stroke-linejoin="round"/>
<path d="M12.3566 19.8347C12.7264 19.8347 13.0261 19.535 13.0261 19.1652C13.0261 18.7954 12.7264 18.4956 12.3566 18.4956C11.9868 18.4956 11.687 18.7954 11.687 19.1652C11.687 19.535 11.9868 19.8347 12.3566 19.8347Z" fill="black"/>
</svg>
