<svg width="45" height="35" viewBox="0 0 45 35" fill="none" xmlns="http://www.w3.org/2000/svg">
<path d="M0 25.6352V8.44628C0 8.19226 0.169349 7.93823 0.338698 7.85356H0.423372L17.0196 0.0635059C17.2736 -0.0211686 17.5276 -0.0211686 17.697 0.0635059L34.2932 7.85356H34.3778C34.5472 7.93823 34.7165 8.19226 34.7165 8.44628V25.6352C34.7165 25.8892 34.5472 26.1432 34.2932 26.3126L17.7816 34.1026C17.6123 34.1873 17.4429 34.1873 17.2736 34.1873H17.1889H17.1042L0.423372 26.3126C0.169349 26.1432 0 25.8892 0 25.6352Z" fill="#E9D4C6"/>
<path d="M0 25.6352V8.44628C0 8.19226 0.169349 7.93823 0.338698 7.85356H0.423372L17.0196 0.0635059C17.2736 -0.0211686 17.5276 -0.0211686 17.697 0.0635059L34.2932 7.85356H34.3778C34.5472 7.93823 34.7165 8.19226 34.7165 8.44628V25.6352C34.7165 25.8892 34.5472 26.1432 34.2932 26.3126L17.7816 34.1026C17.6123 34.1873 17.4429 34.1873 17.2736 34.1873H17.1889H17.1042L0.423372 26.3126C0.169349 26.1432 0 25.8892 0 25.6352ZM17.3583 1.50297L2.54023 8.44628L7.282 10.6478L22.1 3.70451L17.3583 1.50297ZM17.3583 15.3896L32.1763 8.44628L27.1805 6.07539L12.3625 13.0187L17.3583 15.3896ZM10.5843 12.2566L25.4023 5.31332L23.8782 4.55125L9.06017 11.4946L10.5843 12.2566ZM9.82224 13.5267L8.04408 12.68V19.6233L9.82224 20.5547V13.5267ZM33.1077 9.63172L18.1203 16.6597V32.2398L33.1077 25.2118V9.63172ZM1.52414 25.2118L16.5962 32.1551V16.6597L11.4311 14.2041V21.6555C11.4311 22.0789 11.0924 22.4176 10.669 22.4176C10.5843 22.4176 10.415 22.4176 10.3303 22.3329L6.94331 20.6394C6.68928 20.4701 6.51993 20.3007 6.51993 19.962V11.8333L1.60881 9.54705V25.2118H1.52414Z" fill="black"/>
<path d="M22.0158 23.6028C22.1005 23.0101 22.4392 22.5021 23.0319 22.248C23.1166 22.1634 23.2859 22.1634 23.3706 22.0787C23.4553 21.994 23.4553 21.8247 23.4553 21.6553C23.4553 21.3166 23.7093 20.9779 23.8786 20.6392C24.6407 19.5385 25.4028 18.353 26.5035 17.6756C27.1809 17.2522 27.943 16.9982 28.7051 16.8289C30.6526 16.3208 32.6001 16.1515 34.6323 16.3208C36.5798 16.5749 38.5273 17.2522 40.0515 18.5224C40.6442 19.0304 41.2369 19.6231 41.4909 20.3852C41.6603 21.0626 41.6603 21.9093 42.253 22.3327C42.507 22.5021 42.8457 22.5867 43.0997 22.8408C43.6925 23.2641 43.6925 24.2802 43.3538 24.9576C43.2691 25.127 43.1844 25.2963 43.1844 25.381C43.0997 25.889 43.6078 26.2277 43.6078 26.7358C43.6078 27.3285 42.8457 27.6672 42.4223 28.0906C42.0836 28.4293 41.9143 28.8527 41.8296 29.3607C41.5756 30.2074 41.2369 31.1389 40.7289 31.8163C40.2208 32.5783 39.4587 33.2557 38.612 33.4251C38.1039 33.5098 37.6806 33.5098 37.1725 33.5944C36.9185 33.6791 36.6645 33.7638 36.3258 33.7638C35.8177 33.8484 35.3097 33.8484 34.8016 33.8484C33.4468 33.8484 32.0074 33.7638 30.6526 33.7638C29.8058 33.7638 28.9591 33.7638 28.197 33.5097C27.1809 33.1711 26.3342 32.4937 25.5721 31.7316C25.0641 31.2235 24.6407 30.6308 24.3867 29.8687C24.2173 29.1914 24.1327 28.3446 23.5399 27.9212C23.2859 27.7519 23.0319 27.7519 22.8625 27.5825C22.5238 27.3285 22.3545 26.8205 22.3545 26.3971C22.3545 25.889 22.6932 25.4657 22.6085 24.9576C22.4392 24.5343 21.9311 24.1956 22.0158 23.6028Z" fill="#9EBFFF"/>
<path d="M22.7776 21.825C21.9308 22.079 21.2534 22.9257 21.2534 23.8571C21.2534 24.4499 21.5074 24.8732 21.8461 25.2966C21.5074 25.6353 21.2534 26.1434 21.2534 26.7361C21.2534 27.6675 21.9308 28.5142 22.7776 28.7683C23.455 32.1552 26.4186 34.6108 29.8902 34.6108H35.5634C39.0351 34.6108 41.9987 32.1552 42.6761 28.7683C43.5228 28.5142 44.2002 27.6675 44.2002 26.7361C44.2002 26.1434 43.9462 25.72 43.6075 25.2966C43.9462 24.9579 44.2002 24.4499 44.2002 23.8571C44.2002 22.9257 43.5228 22.079 42.6761 21.825C41.9987 18.438 39.0351 15.9824 35.5634 15.9824H29.9749C26.4186 15.9824 23.455 18.438 22.7776 21.825ZM35.5634 33.0867H29.9749C27.35 33.0867 25.0638 31.3085 24.3864 28.7683H41.2366C40.4745 31.3085 38.1883 33.0867 35.5634 33.0867ZM42.7607 26.6514C42.7607 27.0748 42.422 27.3288 42.0833 27.3288H23.455C23.0316 27.3288 22.7776 26.9901 22.7776 26.6514C22.7776 26.3127 23.1163 25.974 23.455 25.974H41.9987C42.422 25.974 42.7607 26.3127 42.7607 26.6514ZM40.3052 23.0951H41.9987C42.422 23.0951 42.6761 23.4338 42.6761 23.7725C42.6761 24.1112 42.422 24.5345 41.9987 24.5345H23.455C23.0316 24.5345 22.7776 24.1958 22.7776 23.8571C22.7776 23.5185 23.1163 23.1798 23.455 23.1798H25.1484L25.7412 22.587C25.8258 22.5024 25.9952 22.4177 26.0799 22.4177H26.5032C26.6726 22.4177 26.7573 22.5024 26.8419 22.587C27.1806 22.9257 27.6887 23.1798 28.1967 23.1798H28.6201C29.1281 23.1798 29.6362 23.0104 29.9749 22.587C30.0596 22.5024 30.2289 22.4177 30.3136 22.4177H30.737C30.9063 22.4177 30.991 22.5024 31.0757 22.587C31.4144 22.9257 31.9224 23.1798 32.4304 23.1798H32.8538C33.3619 23.1798 33.8699 23.0104 34.2086 22.587C34.2933 22.5024 34.4626 22.4177 34.5473 22.4177H34.9707C35.14 22.4177 35.2247 22.5024 35.3094 22.587C35.6481 22.9257 36.1561 23.1798 36.6642 23.1798H37.2569C37.7649 23.1798 38.273 23.0104 38.6117 22.587C38.6964 22.5024 38.8657 22.4177 38.9504 22.4177H39.3738C39.5431 22.4177 39.6278 22.5024 39.7125 22.587L40.3052 23.0951ZM35.5634 17.4219C38.1883 17.4219 40.4745 19.2001 41.1519 21.7403H40.8979L40.7285 21.5709C40.3898 21.2322 39.8818 20.9782 39.3738 20.9782H38.9504C38.4423 20.9782 37.9343 21.1476 37.5956 21.5709C37.5109 21.6556 37.3416 21.7403 37.2569 21.7403H36.8335C36.6642 21.7403 36.5795 21.6556 36.4948 21.5709C36.1561 21.2322 35.6481 20.9782 35.14 20.9782H34.7167C34.2086 20.9782 33.7006 21.1476 33.3619 21.5709C33.2772 21.6556 33.1078 21.7403 33.0232 21.7403H32.5998C32.4304 21.7403 32.3458 21.6556 32.2611 21.5709C31.9224 21.2322 31.4144 20.9782 30.9063 20.9782H30.4829C29.9749 20.9782 29.4668 21.1476 29.1281 21.5709C29.0435 21.6556 28.8741 21.7403 28.7894 21.7403H28.3661C28.1967 21.7403 28.112 21.6556 28.0274 21.5709C27.6887 21.2322 27.1806 20.9782 26.6726 20.9782H26.2492C25.7412 20.9782 25.2331 21.1476 24.8944 21.5709L24.5557 21.6556H24.3017C24.9791 19.2001 27.2653 17.3372 29.8902 17.3372H35.5634V17.4219Z" fill="black"/>
</svg>
