<svg width="17" height="11" viewBox="0 0 17 11" fill="none" xmlns="http://www.w3.org/2000/svg">
<path fill-rule="evenodd" clip-rule="evenodd" d="M8.34297 10.4535H9.34977C9.34977 10.4535 9.65389 10.4202 9.80916 10.2528C9.95207 10.0991 9.9475 9.81054 9.9475 9.81054C9.9475 9.81054 9.92783 8.4596 10.5548 8.26066C11.1729 8.0647 11.9666 9.56633 12.8078 10.1437C13.444 10.5807 13.9274 10.4849 13.9274 10.4849L16.1768 10.4535C16.1768 10.4535 17.3535 10.3811 16.7955 9.45589C16.7498 9.3802 16.4706 8.7715 15.1231 7.52071C13.7127 6.21161 13.9015 6.42335 15.6005 4.1589C16.6352 2.77983 17.0489 1.93789 16.9197 1.57728C16.7964 1.23383 16.0354 1.32461 16.0354 1.32461L13.5028 1.34039C13.5028 1.34039 13.315 1.31478 13.1758 1.39801C13.0397 1.47964 12.9521 1.66989 12.9521 1.66989C12.9521 1.66989 12.5513 2.73707 12.0167 3.64463C10.8889 5.55969 10.438 5.66076 10.2537 5.54185C9.82493 5.26471 9.93195 4.42849 9.93195 3.83442C9.93195 1.97859 10.2134 1.20479 9.38384 1.00448C9.10853 0.937942 8.90593 0.894038 8.20188 0.88695C7.2982 0.877574 6.53332 0.889693 6.10023 1.10189C5.81212 1.24298 5.58985 1.55739 5.72522 1.57546C5.89261 1.59786 6.27173 1.67767 6.47272 1.95138C6.73226 2.30443 6.72311 3.09744 6.72311 3.09744C6.72311 3.09744 6.8722 5.28209 6.37486 5.55351C6.03346 5.73965 5.56516 5.35961 4.55973 3.62222C4.04455 2.73226 3.65559 1.74855 3.65559 1.74855C3.65559 1.74855 3.58059 1.56471 3.44682 1.46638C3.28447 1.34725 3.05763 1.30929 3.05763 1.30929L0.65095 1.32507C0.65095 1.32507 0.289662 1.33513 0.157037 1.49222C0.0390466 1.63194 0.147662 1.92097 0.147662 1.92097C0.147662 1.92097 2.03185 6.32914 4.16528 8.55061C6.1215 10.5873 8.34297 10.4535 8.34297 10.4535Z" fill="black"/>
</svg>
