<svg width="124" height="125" viewBox="0 0 124 125" fill="none" xmlns="http://www.w3.org/2000/svg">
<path d="M105.925 105.925C81.725 130.125 42.525 130.125 18.225 105.925C-6.075 81.625 -6.075 42.425 18.225 18.225C42.425 -6.075 81.625 -6.075 105.925 18.225C130.025 42.425 130.025 81.625 105.925 105.925Z" fill="#B3D9F3"/>
<path d="M79.3254 40.0249L78.7254 67.4249C78.7254 67.4249 75.3254 71.6249 61.9254 71.6249C48.7254 71.6249 46.6254 66.8249 46.6254 66.8249L46.1254 41.6249C45.5254 41.7249 46.8254 41.6249 46.1254 41.6249C39.0254 41.7249 32.0254 36.0249 32.0254 28.9249C32.0254 21.8249 37.8254 16.0249 44.9254 16.0249C46.7254 16.0249 48.5254 16.4249 50.1254 17.1249C52.2254 12.9249 56.7254 10.0249 61.7254 10.0249C66.5254 10.0249 70.4254 12.7249 72.7254 16.6249C74.8254 15.0249 77.4254 14.2249 80.3254 14.2249C87.4254 14.2249 93.2254 19.9249 93.2254 27.1249C93.3254 34.2249 86.5254 40.0249 79.3254 40.0249C79.9254 40.0249 78.9254 40.0249 79.3254 40.0249Z" fill="white"/>
<path d="M27.7256 56.7251C27.7256 55.6251 27.6256 54.7251 27.5256 54.2251C27.3256 53.0251 26.7256 51.9251 25.7256 51.0251C24.7256 50.1251 23.6256 49.7251 22.2256 49.7251C20.8256 49.7251 19.5256 50.2251 18.5256 51.2251C17.4256 50.2251 16.2256 49.7251 14.8256 49.7251C13.5256 49.7251 12.2256 50.2251 11.3256 51.0251C10.4256 51.8251 9.72559 52.8251 9.42559 54.2251C9.32559 54.8251 9.22559 55.6251 9.22559 56.7251V65.3251C9.22559 65.8251 9.62559 66.0251 9.92559 66.0251C10.4256 66.0251 10.6256 65.6251 10.6256 65.3251V56.4251C10.6256 54.8251 10.9256 53.5251 11.6256 52.5251C12.3256 51.4251 13.4256 50.9251 14.9256 50.9251C16.0256 50.9251 16.9256 51.3251 17.7256 52.1251C17.0256 53.3251 16.7256 54.6251 16.7256 56.4251V65.2251C16.7256 65.6251 17.0256 65.9251 17.4256 65.9251C17.9256 65.9251 18.1256 65.5251 18.1256 65.2251V56.3251C18.1256 55.0251 18.3256 54.0251 18.6256 53.3251C18.9256 54.1251 19.1256 55.3251 19.1256 56.7251V65.3251C19.1256 65.7251 19.4256 66.0251 19.8256 66.0251C20.3256 66.0251 20.5256 65.6251 20.5256 65.3251V56.1251C20.5256 54.3251 20.2256 53.0251 19.5256 52.0251C20.2256 51.3251 21.1256 50.9251 22.2256 50.9251C23.2256 50.9251 24.1256 51.2251 24.8256 51.8251C25.5256 52.3251 26.0256 53.1251 26.3256 54.1251C26.5256 54.7251 26.5256 55.4251 26.5256 56.4251V65.3251C26.5256 65.7251 26.8256 66.0251 27.2256 66.0251C27.7256 66.0251 27.9256 65.6251 27.9256 65.3251L27.8256 64.8251V56.7251H27.7256Z" fill="black"/>
<path d="M43.9256 52.2252C42.3256 50.6252 40.3256 49.8252 38.0256 49.8252C35.7256 49.8252 33.7256 50.6252 32.1256 52.2252C30.5256 53.8252 29.7256 55.8252 29.7256 58.1252C29.7256 60.4252 30.5256 62.4252 32.2256 64.0252C33.9256 65.6252 35.9256 66.4252 38.2256 66.4252C39.9256 66.4252 41.5256 65.9252 42.8256 65.0252V65.2252C42.8256 65.9252 43.2256 66.1252 43.5256 66.1252C43.8256 66.1252 44.2256 65.8252 44.2256 65.2252V63.9252C45.8256 62.2252 46.6256 60.3252 46.6256 58.1252C46.4256 55.7252 45.5256 53.7252 43.9256 52.2252ZM42.6256 58.2252V63.4252C41.2256 64.6252 39.7256 65.2252 38.0256 65.2252C36.1256 65.2252 34.4256 64.5252 33.1256 63.1252C31.7256 61.8252 31.1256 60.2252 31.1256 58.2252C31.1256 56.2252 31.8256 54.6252 33.2256 53.2252C34.6256 51.8252 36.2256 51.1252 38.2256 51.1252C40.1256 51.1252 41.8256 51.8252 43.1256 53.2252C44.4256 54.6252 45.2256 56.2252 45.2256 58.1252C45.2256 59.5252 44.8256 60.7252 44.1256 61.8252V58.2252C43.9256 57.2252 42.6256 57.2252 42.6256 58.2252Z" fill="black"/>
<path d="M55.4255 66.4248C57.3255 66.4248 59.1255 65.8248 60.7255 64.5248C61.1255 64.2248 61.4255 64.0248 61.6255 63.7248H61.7255V63.6248C61.8255 63.5248 61.8255 63.4248 61.8255 63.2248C61.8255 62.9248 61.6255 62.6248 61.2255 62.6248H60.8255L60.7255 62.8248V63.0248C60.0255 63.6248 59.2255 64.2248 58.4255 64.6248C57.5255 65.0248 56.5255 65.3248 55.6255 65.3248C53.6255 65.3248 52.0255 64.6248 50.7255 63.2248C49.3255 61.8248 48.6255 60.2248 48.6255 58.2248C48.6255 56.3248 49.3255 54.6248 50.7255 53.3248C52.0255 51.9248 53.6255 51.3248 55.6255 51.3248C57.5255 51.3248 59.2255 52.0248 60.6255 53.4248L60.9255 53.6248H61.3255L61.4255 53.5248C61.6255 53.4248 61.7255 53.2248 61.7255 53.0248V52.8248L61.6255 52.7248C61.6255 52.7248 61.6255 52.6248 61.5255 52.6248C61.4255 52.5248 61.4255 52.4248 61.3255 52.4248C59.8255 50.8248 57.8255 49.9248 55.4255 49.9248C53.1255 49.9248 51.1255 50.7248 49.5255 52.3248C47.9255 53.9248 47.1255 55.9248 47.1255 58.2248C47.1255 60.4248 47.9255 62.4248 49.5255 64.1248C51.2255 65.6248 53.2255 66.4248 55.4255 66.4248Z" fill="black"/>
<path d="M76.0257 52.2252C74.4257 50.6252 72.4257 49.8252 70.1257 49.8252C67.8257 49.8252 65.8257 50.6252 64.2257 52.2252C62.6257 53.8252 61.8257 55.8252 61.8257 58.1252C61.8257 60.4252 62.6257 62.4252 64.2257 64.0252C65.9257 65.6252 67.9257 66.4252 70.2257 66.4252C71.9257 66.4252 73.5257 65.9252 74.8257 65.0252V65.2252C74.8257 65.9252 75.2257 66.1252 75.5257 66.1252C75.8257 66.1252 76.2257 65.8252 76.2257 65.2252V63.9252C77.8257 62.2252 78.6257 60.3252 78.6257 58.1252C78.5257 55.6252 77.7257 53.7252 76.0257 52.2252ZM74.7257 58.2252V63.4252C73.3257 64.6252 71.8257 65.2252 70.1257 65.2252C68.2257 65.2252 66.5257 64.5252 65.1257 63.1252C63.7257 61.8252 63.1257 60.2252 63.1257 58.2252C63.1257 56.2252 63.8257 54.6252 65.2257 53.2252C66.6257 51.8252 68.2257 51.1252 70.2257 51.1252C72.1257 51.1252 73.8257 51.8252 75.1257 53.2252C76.5257 54.6252 77.2257 56.2252 77.2257 58.1252C77.2257 59.5252 76.8257 60.8252 76.1257 61.9252V58.3252C76.0257 57.2252 74.7257 57.2252 74.7257 58.2252Z" fill="black"/>
<path d="M80.6258 66.1249C81.1258 66.1249 81.3258 65.7249 81.3258 65.4249V58.9249C81.3258 57.2249 81.4258 56.2249 81.6258 55.5249C81.9258 54.4249 82.5258 53.5249 83.3258 52.8249C84.1258 52.1249 85.0258 51.7249 86.0258 51.4249C86.5258 51.4249 86.7258 51.0249 86.7258 50.7249C86.7258 50.2249 86.4258 50.1249 86.2258 50.0249H86.1258H86.0258C85.5258 50.0249 84.9258 50.2249 84.2258 50.6249C83.0258 51.2249 82.0258 52.0249 81.3258 53.1249C81.3258 52.5249 81.3258 51.7249 81.3258 50.8249C81.3258 49.8249 79.9258 49.8249 79.9258 50.8249V65.4249C79.9258 65.8249 80.2258 66.1249 80.6258 66.1249Z" fill="black"/>
<path d="M101.225 52.2252C99.6254 50.6252 97.6254 49.8252 95.3254 49.8252C93.0254 49.8252 91.0254 50.6252 89.4254 52.2252C87.8254 53.8252 87.0254 55.8252 87.0254 58.1252C87.0254 60.4252 87.8254 62.4252 89.4254 64.0252C91.1254 65.6252 93.1254 66.4252 95.4254 66.4252C97.7254 66.4252 99.7254 65.6252 101.325 63.9252C102.925 62.2252 103.725 60.2252 103.725 57.9252C103.725 55.7252 102.925 53.7252 101.225 52.2252ZM95.3254 51.1252C97.2254 51.1252 98.9254 51.8252 100.225 53.2252C101.625 54.6252 102.325 56.2252 102.325 58.1252C102.325 60.1252 101.625 61.8252 100.125 63.1252C98.8254 64.5252 97.2254 65.1252 95.2254 65.1252C93.3254 65.1252 91.6254 64.4252 90.3254 63.0252C88.9254 61.6252 88.2254 60.0252 88.2254 58.1252C88.2254 56.1252 88.9254 54.5252 90.3254 53.1252C91.6254 51.7252 93.3254 51.1252 95.3254 51.1252Z" fill="black"/>
<path d="M116.725 54.025C116.525 52.825 115.925 51.825 114.825 50.925C113.825 50.125 112.625 49.625 111.325 49.625C110.325 49.625 109.425 49.825 108.625 50.325C108.025 50.725 107.425 51.125 107.025 51.725V50.725C107.025 49.725 105.625 49.725 105.625 50.725V65.325C105.625 65.825 106.025 66.025 106.325 66.025C106.825 66.025 107.025 65.625 107.025 65.325V57.025C107.025 56.125 107.025 55.325 107.125 54.925C107.325 53.725 107.725 52.825 108.425 52.125C109.225 51.425 110.225 51.025 111.225 51.025C112.025 51.025 112.825 51.225 113.425 51.625C114.325 52.125 114.925 52.925 115.125 53.925C115.325 54.525 115.325 55.625 115.325 57.025V65.325C115.325 65.725 115.625 66.025 116.025 66.025C116.225 66.025 116.425 65.925 116.525 65.825H116.825V56.325C116.925 55.425 116.825 54.625 116.725 54.025Z" fill="black"/>
<path d="M40.5254 85.3252C39.8254 85.3252 39.7254 85.7252 39.7254 86.0252C39.7254 86.5252 40.1254 86.7252 40.4254 86.7252C41.2254 86.7252 41.8254 86.9252 42.5254 87.3252C43.8254 88.0252 44.5254 89.2252 44.5254 90.7252C44.5254 91.8252 44.1254 92.7252 43.3254 93.5252C42.5254 94.3252 41.6254 94.7252 40.5254 94.7252C38.9254 94.7252 37.8254 94.0252 36.9254 92.6252C36.6254 92.2252 36.4254 91.6252 36.4254 90.9252C36.4254 90.4252 36.1254 90.1252 35.7254 90.1252C35.2254 90.1252 35.0254 90.5252 35.0254 90.8252C35.0254 92.2252 35.6254 93.5252 36.7254 94.4252C37.7254 95.4252 39.0254 95.9252 40.4254 95.9252C41.9254 95.9252 43.2254 95.4252 44.2254 94.3252C45.2254 93.3252 45.8254 92.0252 45.8254 90.5252C45.8254 89.0252 45.3254 87.8252 44.3254 86.8252C43.3254 85.9252 42.0254 85.3252 40.5254 85.3252Z" fill="black"/>
<path d="M40.2255 81.1252C41.5255 81.1252 42.4255 81.6252 43.0255 82.7252C43.1255 82.9252 43.3255 83.3252 43.4255 83.7252C43.4255 84.2252 43.7255 84.5252 44.1255 84.5252C44.5255 84.5252 44.8255 84.2252 44.8255 83.8252C44.8255 82.6252 44.2255 81.6252 43.2255 81.0252C42.3255 80.2252 41.3255 79.8252 40.1255 79.8252C38.9255 79.8252 37.8255 80.2252 36.9255 81.1252C36.1255 82.1252 35.6255 83.1252 35.6255 84.3252C35.6255 85.5252 36.0255 86.6252 36.9255 87.5252C37.7255 88.4252 38.8255 88.9252 40.0255 88.9252C40.5255 88.9252 40.8255 88.6252 40.8255 88.2252C40.8255 87.8252 40.5255 87.5252 40.1255 87.5252C39.2255 87.5252 38.5255 87.2252 37.9255 86.6252C37.3255 86.0252 37.0255 85.2252 37.0255 84.3252C37.0255 83.4252 37.3255 82.6252 37.9255 82.0252C38.7255 81.4252 39.4255 81.1252 40.2255 81.1252Z" fill="black"/>
<path d="M57.9254 86.5252C57.9254 85.4252 57.8254 84.6252 57.7254 84.1252C57.4254 82.8252 56.8254 81.8252 55.9254 81.1252C54.9254 80.2252 53.9254 79.8252 52.6254 79.8252C51.7254 79.8252 50.8254 80.0252 50.0254 80.5252C49.3254 80.8252 48.8254 81.3252 48.4254 81.8252V75.8252C48.4254 74.8252 47.0254 74.8252 47.0254 75.8252V94.9252C47.0254 95.4252 47.4254 95.6252 47.7254 95.6252C48.2254 95.6252 48.4254 95.2252 48.4254 94.9252V86.9252C48.4254 86.3252 48.4254 85.8252 48.5254 85.4252C48.5254 85.1252 48.5254 84.9252 48.5254 84.8252C48.7254 83.7252 49.1254 82.8252 49.8254 82.1252C50.6254 81.4252 51.4254 81.1252 52.6254 81.1252C53.4254 81.1252 54.2254 81.3252 54.8254 81.7252C55.7254 82.3252 56.2254 83.0252 56.4254 83.9252C56.6254 84.5252 56.6254 85.5252 56.6254 86.9252V94.9252C56.6254 95.3252 56.9254 95.6252 57.3254 95.6252C57.8254 95.6252 58.0254 95.2252 58.0254 94.9252L57.9254 94.4252V86.5252Z" fill="black"/>
<path d="M73.3254 82.1251C71.7254 80.5251 69.8254 79.7251 67.6254 79.7251C65.4254 79.7251 63.4254 80.5251 61.9254 82.1251C60.3254 83.7251 59.5254 85.6251 59.5254 87.8251C59.5254 90.0251 60.3254 92.0251 61.9254 93.5251C63.5254 95.1251 65.4254 95.9251 67.7254 95.9251C70.0254 95.9251 71.9254 95.1251 73.4254 93.5251C75.0254 91.9251 75.8254 90.0251 75.8254 87.7251C75.8254 85.4251 75.0254 83.6251 73.3254 82.1251ZM62.8254 92.6251C61.5254 91.3251 60.8254 89.7251 60.8254 87.8251C60.8254 85.9251 61.5254 84.3251 62.8254 82.9251C64.1254 81.6251 65.7254 80.9251 67.7254 80.9251C69.5254 80.9251 71.2254 81.6251 72.5254 82.9251C73.8254 84.2251 74.5254 85.8251 74.5254 87.7251C74.5254 89.6251 73.8254 91.3251 72.4254 92.6251C71.1254 93.9251 69.5254 94.6251 67.6254 94.6251C65.8254 94.6251 64.1254 93.9251 62.8254 92.6251Z" fill="black"/>
<path d="M85.2255 79.7251C82.9255 79.7251 81.0255 80.5251 79.5255 82.1251C78.0255 83.7251 77.1255 85.6251 77.1255 87.8251C77.1255 90.0251 77.9255 91.9251 79.4255 93.5251V100.025C79.4255 100.425 79.7255 100.725 80.1255 100.725C80.6255 100.725 80.8255 100.325 80.8255 100.025V94.7251C82.1255 95.6251 83.6255 96.0251 85.2255 96.0251C87.5255 96.0251 89.5255 95.2251 91.0255 93.7251C92.6255 92.1251 93.5255 90.3251 93.5255 88.0251C93.5255 85.7251 92.6255 83.8251 91.0255 82.2251C89.4255 80.5251 87.5255 79.7251 85.2255 79.7251ZM80.1255 87.1251C79.8255 87.1251 79.4255 87.4251 79.4255 87.9251V91.3251C78.8255 90.3251 78.5255 89.1251 78.5255 87.8251C78.5255 86.0251 79.2255 84.3251 80.5255 83.0251C81.9255 81.6251 83.5255 81.0251 85.4255 81.0251C87.3255 81.0251 88.9255 81.7251 90.3255 83.0251C91.6255 84.3251 92.3255 85.9251 92.3255 87.9251C92.3255 89.8251 91.6255 91.4251 90.2255 92.7251C88.9255 94.0251 87.3255 94.7251 85.4255 94.7251C83.7255 94.7251 82.2255 94.1251 80.9255 92.9251V87.9251C80.8255 87.2251 80.4255 87.1251 80.1255 87.1251Z" fill="black"/>
<path d="M56.7256 102.325V109.525L63.2256 105.825L56.7256 102.325Z" fill="black"/>
<path d="M69.4258 102.325V109.525L62.9258 105.825L69.4258 102.325Z" fill="black"/>
</svg>
