<svg width="13" height="16" viewBox="0 0 13 16" fill="none" xmlns="http://www.w3.org/2000/svg">
<path d="M6.1176 8.47056C8.45336 8.47056 10.3529 6.57103 10.3529 4.23528C10.3529 1.89952 8.45336 0 6.1176 0C3.78185 0 1.88232 1.89952 1.88232 4.23528C1.88232 6.57103 3.78185 8.47056 6.1176 8.47056ZM6.1176 2.11764C7.28548 2.11764 8.23524 3.0674 8.23524 4.23528C8.23524 5.40316 7.28548 6.35292 6.1176 6.35292C4.94972 6.35292 3.99996 5.40316 3.99996 4.23528C3.99996 3.0674 4.94972 2.11764 6.1176 2.11764Z" fill="black"/>
<path d="M11.9156 7.82534C11.4882 7.43127 10.7973 7.43127 10.3699 7.82534C8.0262 9.98619 4.2111 9.98619 1.86629 7.82534C1.43886 7.43127 0.74799 7.43127 0.320567 7.82534C-0.106856 8.21941 -0.106856 8.85638 0.320567 9.25146C1.68045 10.5052 3.40435 11.2198 5.18182 11.4063L2.06524 14.2797C1.63782 14.6737 1.63782 15.3107 2.06524 15.7048C2.49266 16.0989 3.18353 16.0989 3.61096 15.7048L6.11756 13.3938L8.62416 15.7048C8.83732 15.9013 9.11717 16.0001 9.39701 16.0001C9.67686 16.0001 9.95671 15.9013 10.1699 15.7048C10.5973 15.3107 10.5973 14.6737 10.1699 14.2797L7.0533 11.4063C8.83076 11.2198 10.5547 10.5052 11.9145 9.25146C12.342 8.85739 12.342 8.21941 11.9156 7.82534Z" fill="black"/>
</svg>
