<svg width="16" height="12" viewBox="0 0 16 12" fill="none" xmlns="http://www.w3.org/2000/svg">
<path d="M14.9732 0.0468448L0.339879 5.1234C-0.134095 5.28784 -0.105381 5.89335 0.382518 6.02159L4.10099 6.99912L5.48873 10.9192C5.63369 11.3287 6.21657 11.4529 6.55399 11.1461L8.47653 9.39857L12.2487 11.8636C12.7104 12.1652 13.3678 11.9411 13.485 11.4421L15.9834 0.808462C16.1057 0.287594 15.5301 -0.14637 14.9732 0.0468448ZM13.1385 2.40672L6.34146 7.75766C6.27371 7.81101 6.23059 7.88483 6.22051 7.96485L5.95882 10.0358C5.95027 10.1034 5.8441 10.1123 5.82144 10.0474L4.74476 6.95885C4.69544 6.81745 4.75974 6.66424 4.90105 6.58623L12.9277 2.15443C13.1123 2.05243 13.3013 2.27865 13.1385 2.40672Z" fill="black"/>
</svg>
