<svg width="46" height="46" viewBox="0 0 46 46" fill="none" xmlns="http://www.w3.org/2000/svg">
<path d="M42.8667 23.2665L37.5333 16.9332C37.4 16.7998 37.2 16.6665 37 16.6665H29.6667V27.3332H3V31.9998C3 32.3998 3.26667 32.6665 3.66667 32.6665H7.53333C7.46667 32.8665 7.46667 33.1332 7.46667 33.3332C7.46667 35.1998 8.93333 36.6665 10.8 36.6665C12.6667 36.6665 14.1333 35.1998 14.1333 33.3332C14.1333 33.1332 14.1333 32.8665 14.0667 32.6665H32.4C32.3333 32.8665 32.3333 33.1332 32.3333 33.3332C32.3333 35.1998 33.8 36.6665 35.6667 36.6665C37.5333 36.6665 39 35.1998 39 33.3332C39 33.1332 39 32.8665 38.9333 32.6665H42.3333C42.7333 32.6665 43 32.3998 43 31.9998V23.7332V23.6665C43 23.5332 42.9333 23.3998 42.8667 23.2665ZM40.9333 22.9998H36.3333V20.6665H38.9333L40.9333 22.9998ZM10.8 35.3332C9.66667 35.3332 8.8 34.4665 8.8 33.3332C8.8 32.9998 8.86667 32.6665 9.06667 32.3332C9.4 31.7332 10.0667 31.3332 10.8 31.3332C11 31.3332 11.1333 31.3332 11.3333 31.3998C11.6667 31.4665 12 31.6665 12.2 31.9332C12.3333 32.0665 12.4 32.1998 12.5333 32.3332C12.7333 32.6665 12.8 32.9998 12.8 33.3332C12.8 34.4665 11.8667 35.3332 10.8 35.3332ZM35.6667 35.3332C34.5333 35.3332 33.6667 34.4665 33.6667 33.3332C33.6667 32.9998 33.7333 32.6665 33.9333 32.3332C34.2667 31.7332 34.9333 31.3332 35.6667 31.3332C35.8667 31.3332 36 31.3332 36.2 31.3998C36.5333 31.4665 36.8667 31.6665 37.0667 31.9332C37.2 32.0665 37.2667 32.1998 37.4 32.3332C37.6 32.6665 37.6667 32.9998 37.6667 33.3332C37.6667 34.4665 36.8 35.3332 35.6667 35.3332ZM41.6667 31.3332H38.3333C38.3333 31.2665 38.2667 31.2665 38.2667 31.1998C38.2 31.1332 38.1333 31.0665 38.0667 30.9998C38 30.9332 38 30.9332 37.9333 30.8665C37.8667 30.7998 37.8 30.7332 37.7333 30.7332C37.6667 30.6665 37.6667 30.6665 37.6 30.6665C37.5333 30.5998 37.4667 30.5998 37.4 30.5332C37.3333 30.5332 37.3333 30.4665 37.2667 30.4665C37.2 30.3998 37.1333 30.3998 37.0667 30.3332C37 30.3332 36.9333 30.2665 36.9333 30.2665C36.8667 30.2665 36.8 30.1998 36.6667 30.1998C36.6 30.1998 36.5333 30.1998 36.5333 30.1332C36.4667 30.1332 36.3333 30.0665 36.2667 30.0665C36.2 30.0665 36.2 30.0665 36.1333 30.0665C36 30.0665 35.8667 30.0665 35.7333 30.0665C35.6 30.0665 35.4667 30.0665 35.3333 30.0665C35.2667 30.0665 35.2667 30.0665 35.2 30.0665C35.1333 30.0665 35 30.0665 34.9333 30.1332C34.8667 30.1332 34.8 30.1332 34.8 30.1998C34.7333 30.1998 34.6667 30.2665 34.5333 30.2665C34.4667 30.2665 34.4 30.3332 34.4 30.3332C34.3333 30.3998 34.2667 30.3998 34.2 30.4665C34.1333 30.4665 34.1333 30.5332 34.0667 30.5332C34 30.5998 33.9333 30.5998 33.8667 30.6665C33.8 30.6665 33.8 30.7332 33.7333 30.7332C33.6667 30.7998 33.6 30.8665 33.5333 30.8665C33.4667 30.9332 33.4667 30.9332 33.4 30.9998C33.3333 31.0665 33.2667 31.1332 33.2 31.1998C33.2 31.2665 33.1333 31.2665 33.1333 31.3332H13.4667C13.4667 31.2665 13.4 31.2665 13.4 31.1998C13.3333 31.1332 13.2667 31.0665 13.2 30.9998C13.1333 30.9332 13.1333 30.9332 13.0667 30.8665C13 30.7998 12.9333 30.7332 12.8667 30.7332C12.8 30.6665 12.8 30.6665 12.7333 30.6665C12.6667 30.5998 12.6 30.5998 12.5333 30.5332C12.4667 30.5332 12.4667 30.4665 12.4 30.4665C12.3333 30.3998 12.2667 30.3998 12.2 30.3332C12.1333 30.3332 12.0667 30.2665 12.0667 30.2665C12 30.2665 11.9333 30.1998 11.8 30.1998C11.7333 30.1998 11.6667 30.1998 11.6667 30.1332C11.6 30.1332 11.4667 30.0665 11.4 30.0665C11.3333 30.0665 11.3333 30.0665 11.2667 30.0665C11.1333 30.0665 11 30.0665 10.8667 30.0665C10.7333 30.0665 10.6 30.0665 10.4667 30.0665C10.4 30.0665 10.4 30.0665 10.3333 30.0665C10.2667 30.0665 10.1333 30.0665 10.0667 30.1332C10 30.1332 9.93333 30.1332 9.93333 30.1998C9.86667 30.1998 9.8 30.2665 9.73333 30.2665C9.66667 30.2665 9.6 30.3332 9.53333 30.3332C9.46667 30.3332 9.4 30.3998 9.33333 30.3998C9.26667 30.3998 9.2 30.4665 9.13333 30.4665C9.06667 30.5332 9 30.5332 8.93333 30.5998C8.86667 30.6665 8.8 30.6665 8.8 30.7332C8.73333 30.7998 8.73333 30.7998 8.66667 30.8665C8.6 30.9332 8.53333 30.9332 8.53333 30.9998C8.33333 31.0665 8.33333 31.1332 8.26667 31.1998C8.2 31.2665 8.2 31.3332 8.13333 31.3332H4.33333V28.6665H30.3333C30.7333 28.6665 31 28.3998 31 27.9998V17.9998H36.6667L37.8 19.3332H35.6667C35.2667 19.3332 35 19.5998 35 19.9998V23.6665C35 24.0665 35.2667 24.3332 35.6667 24.3332H41.6667V31.3332Z" fill="#E7426A"/>
<path d="M25.8 14.4C25.2 11.2667 22.4667 9 19.2 9H14C10.8 9 8.06667 11.2667 7.4 14.4C6.6 14.6667 6 15.4 6 16.2667C6 16.8 6.2 17.2667 6.53333 17.6C6.2 17.9333 6 18.4 6 18.9333C6 19.8 6.6 20.6 7.4 20.8C8 23.9333 10.7333 26.2 14 26.2H19.2C22.4 26.2 25.1333 23.9333 25.8 20.8C26.6 20.5333 27.2 19.8 27.2 18.9333C27.2 18.4 27 17.9333 26.6667 17.6C27 17.2667 27.2 16.8 27.2 16.2667C27.2667 15.4 26.6667 14.6667 25.8 14.4ZM14 10.3333H19.2C21.6667 10.3333 23.7333 12 24.4 14.3333H24.1333L24 14.2C23.7333 13.8 23.2667 13.6667 22.8 13.6667H22.4C21.9333 13.6667 21.4667 13.8667 21.1333 14.2C21.0667 14.2667 20.9333 14.3333 20.8 14.3333H20.4C20.2667 14.3333 20.1333 14.2667 20.0667 14.2C19.7333 13.8 19.2667 13.6667 18.8 13.6667H18.4C17.9333 13.6667 17.4667 13.8667 17.1333 14.2C17.0667 14.2667 16.9333 14.3333 16.8 14.3333H16.4C16.2667 14.3333 16.1333 14.2667 16.0667 14.2C15.8 13.8 15.3333 13.6667 14.8667 13.6667H14.4667C14 13.6667 13.5333 13.8667 13.2 14.2C13.1333 14.2667 13 14.3333 12.8667 14.3333H12.4667C12.3333 14.3333 12.2 14.2667 12.1333 14.2C11.8 13.8 11.3333 13.6667 10.8667 13.6667H10.4667C10 13.6667 9.53333 13.8667 9.2 14.2L9.06667 14.2667H8.86667C9.46667 12 11.6 10.3333 14 10.3333ZM8 15.6H9.6L10.1333 15.0667C10.2667 15 10.3333 14.9333 10.4667 14.9333H10.8667C11 14.9333 11.1333 15 11.2 15.0667C11.5333 15.4 12 15.6 12.4667 15.6H12.8667C13.3333 15.6 13.8 15.4 14.1333 15.0667C14.2 15 14.3333 14.9333 14.4667 14.9333H14.8667C15 14.9333 15.1333 15 15.2 15.0667C15.5333 15.4 16 15.6 16.4667 15.6H16.8667C17.3333 15.6 17.8 15.4 18.1333 15.0667C18.2 15 18.3333 14.9333 18.4 14.9333H18.8C18.9333 14.9333 19.0667 15 19.1333 15.0667C19.4667 15.4 19.9333 15.6 20.4 15.6H20.8C21.2667 15.6 21.7333 15.4 22.0667 15.0667C22.1333 15 22.2667 14.9333 22.4 14.9333H22.8C22.9333 14.9333 23.0667 15 23.1333 15.0667L23.6667 15.6H25.2667C25.6 15.6 25.9333 15.8667 25.9333 16.2667C25.9333 16.6667 25.6667 16.9333 25.2667 16.9333H8C7.66667 16.9333 7.33333 16.6667 7.33333 16.2667C7.33333 15.8667 7.66667 15.6 8 15.6ZM19.2667 24.8667H14.0667C11.6 24.8667 9.53333 23.2 8.86667 20.8667H24.4667C23.8 23.2667 21.7333 24.8667 19.2667 24.8667ZM25.2667 19.6H8C7.66667 19.6 7.33333 19.3333 7.33333 18.9333C7.33333 18.5333 7.6 18.2667 8 18.2667H25.2C25.5333 18.2667 25.8667 18.5333 25.8667 18.9333C25.8667 19.3333 25.6 19.6 25.2667 19.6Z" fill="#E7426A"/>
</svg>
