<svg width="46" height="46" viewBox="0 0 46 46" fill="none" xmlns="http://www.w3.org/2000/svg">
<path d="M19.25 8C20.9272 8 22.3968 8.94117 23.1491 10.3224C23.8972 9.33097 25.0777 8.68182 26.4091 8.68182C28.6604 8.68182 30.5 10.5215 30.5 12.7727C30.5 13.8159 30.0947 14.7741 29.4453 15.5H37.3182C37.499 15.5 37.6724 15.5718 37.8003 15.6997C37.9281 15.8276 38 16.001 38 16.1818V22.3182C38 22.499 37.9281 22.6724 37.8003 22.8003C37.6724 22.9282 37.499 23 37.3182 23H35.6136V37.3182C35.6136 37.499 35.5418 37.6724 35.4139 37.8003C35.2861 37.9282 35.1126 38 34.9318 38H11.0682C10.8874 38 10.7139 37.9282 10.5861 37.8003C10.4582 37.6724 10.3864 37.499 10.3864 37.3182V23H8.68182C8.50099 23 8.32758 22.9282 8.19972 22.8003C8.07186 22.6724 8.00002 22.499 8 22.3182V16.1818C8.00002 16.001 8.07186 15.8276 8.19972 15.6997C8.32758 15.5718 8.50099 15.5 8.68182 15.5H16.054C15.2886 14.7027 14.8182 13.618 14.8182 12.4318C14.8182 9.99228 16.8105 8 19.25 8ZM19.25 9.36364C17.5474 9.36364 16.1818 10.7292 16.1818 12.4318C16.1818 14.1344 17.5474 15.5 19.25 15.5H22.3182V12.7727V12.4318C22.3182 10.7292 20.9526 9.36364 19.25 9.36364ZM26.4091 10.0455C24.8948 10.0455 23.6818 11.2584 23.6818 12.7727V15.5H26.4091C27.9234 15.5 29.1364 14.287 29.1364 12.7727C29.1364 11.2584 27.9234 10.0455 26.4091 10.0455ZM36.6364 16.8636H29.4773V21.6364H34.9318H36.6364V16.8636ZM28.1136 16.8636H17.8864V21.6364H28.1136V16.8636ZM16.5227 16.8636H9.36364V21.6364H11.0682H16.5227V16.8636ZM34.25 23H26.4091V36.6364H34.25V23ZM25.0455 23H20.9545V36.6364H25.0455V23ZM19.5909 23H11.75V36.6364H19.5909V23Z" fill="#E7426A"/>
</svg>
