<svg width="46" height="46" viewBox="0 0 46 46" fill="none" xmlns="http://www.w3.org/2000/svg">
<path d="M36.5894 10.6395C36.0817 7.94746 33.7686 6 31.0043 6H26.6039C23.8959 6 21.5829 7.94746 21.0187 10.6395C20.3417 10.8686 19.834 11.4987 19.834 12.2433C19.834 12.7016 20.0032 13.1025 20.2853 13.3889C20.0032 13.6753 19.834 14.0762 19.834 14.5345C19.834 15.2791 20.3417 15.9664 21.0187 16.1382C21.5265 18.8303 23.8395 20.7778 26.6039 20.7778H31.0043C33.7122 20.7778 36.0253 18.8303 36.5894 16.1382C37.2664 15.9091 37.7742 15.2791 37.7742 14.5345C37.7742 14.0762 37.6049 13.6753 37.3228 13.3889C37.6049 13.1025 37.7742 12.7016 37.7742 12.2433C37.8306 11.4987 37.3228 10.8686 36.5894 10.6395ZM26.6039 7.14556H31.0043C33.0917 7.14556 34.8405 8.57752 35.4047 10.5823H35.179L35.0662 10.4677C34.8405 10.124 34.4456 10.0095 34.0507 10.0095H33.7122C33.3173 10.0095 32.9224 10.1813 32.6403 10.4677C32.5839 10.525 32.4711 10.5823 32.3583 10.5823H32.0198C31.9069 10.5823 31.7941 10.525 31.7377 10.4677C31.4556 10.124 31.0607 10.0095 30.6658 10.0095H30.3273C29.9324 10.0095 29.5375 10.1813 29.2554 10.4677C29.199 10.525 29.0861 10.5823 28.9733 10.5823H28.6348C28.522 10.5823 28.4092 10.525 28.3527 10.4677C28.1271 10.124 27.7322 10.0095 27.3373 10.0095H26.9988C26.6039 10.0095 26.209 10.1813 25.9269 10.4677C25.8705 10.525 25.7576 10.5823 25.6448 10.5823H25.3063C25.1935 10.5823 25.0806 10.525 25.0242 10.4677C24.7421 10.124 24.3472 10.0095 23.9523 10.0095H23.6138C23.2189 10.0095 22.824 10.1813 22.5419 10.4677L22.4291 10.525H22.2599C22.7676 8.57752 24.5729 7.14556 26.6039 7.14556ZM21.5265 11.6705H22.8804L23.3318 11.2123C23.4446 11.155 23.501 11.0978 23.6138 11.0978H23.9523C24.0652 11.0978 24.178 11.155 24.2344 11.2123C24.5165 11.4987 24.9114 11.6705 25.3063 11.6705H25.6448C26.0397 11.6705 26.4346 11.4987 26.7167 11.2123C26.7731 11.155 26.8859 11.0978 26.9988 11.0978H27.3373C27.4501 11.0978 27.5629 11.155 27.6193 11.2123C27.9014 11.4987 28.2963 11.6705 28.6912 11.6705H29.0297C29.4246 11.6705 29.8196 11.4987 30.1016 11.2123C30.158 11.155 30.2709 11.0978 30.3273 11.0978H30.6658C30.7786 11.0978 30.8914 11.155 30.9479 11.2123C31.2299 11.4987 31.6249 11.6705 32.0198 11.6705H32.3583C32.7532 11.6705 33.1481 11.4987 33.4302 11.2123C33.4866 11.155 33.5994 11.0978 33.7122 11.0978H34.0507C34.1636 11.0978 34.2764 11.155 34.3328 11.2123L34.7841 11.6705H36.1381C36.4202 11.6705 36.7023 11.8997 36.7023 12.2433C36.7023 12.587 36.4766 12.8161 36.1381 12.8161H21.5265C21.2444 12.8161 20.9623 12.587 20.9623 12.2433C20.9623 11.8997 21.2444 11.6705 21.5265 11.6705ZM31.0607 19.6322H26.6603C24.5729 19.6322 22.824 18.2003 22.2599 16.1955H35.4611C34.897 18.2575 33.1481 19.6322 31.0607 19.6322ZM36.1381 15.1072H21.5265C21.2444 15.1072 20.9623 14.8781 20.9623 14.5345C20.9623 14.1908 21.188 13.9617 21.5265 13.9617H36.0817C36.3638 13.9617 36.6458 14.1908 36.6458 14.5345C36.6458 14.8781 36.4202 15.1072 36.1381 15.1072Z" fill="#E7426A"/>
<path d="M5.08815 28.3813L5.08952 28.3801L7.38961 26.3409C7.38962 26.3409 7.38963 26.3408 7.38964 26.3408C7.88015 25.9059 8.64603 25.9471 9.08385 26.4428C10.9386 28.5347 12.7953 30.6317 14.6512 32.7278C15.2769 33.4345 15.9026 34.1412 16.528 34.8474L5.08815 28.3813ZM5.08815 28.3813C4.61737 28.8018 4.54637 29.5228 4.94576 30.0242L4.95386 30.0344M5.08815 28.3813L4.95386 30.0344M4.95386 30.0344L4.96249 30.0441M4.95386 30.0344L4.96249 30.0441M4.96249 30.0441L12.4303 38.4781L12.4306 38.4784M4.96249 30.0441L12.4306 38.4784M12.4306 38.4784C12.8683 38.972 13.632 39.0153 14.1239 38.5802L14.1242 38.58M12.4306 38.4784L14.1242 38.58M14.1242 38.58L16.4264 36.5408L16.4267 36.5406M14.1242 38.58L16.4267 36.5406M16.4267 36.5406C16.9194 36.1035 16.965 35.3405 16.5283 34.8477L16.4267 36.5406ZM4.96085 28.2415L4.96085 28.2415L4.96365 28.2391L7.26658 26.2005L7.26677 26.2004C7.83771 25.6945 8.71771 25.7477 9.22376 26.3193C9.22376 26.3193 9.22376 26.3193 9.22377 26.3193L9.26173 26.3622L9.67049 26.8239L10.0378 26.3286C10.7773 25.331 11.6265 24.3945 12.59 23.6529L12.5902 23.6528C14.8415 21.918 17.834 21.1187 20.255 22.5969C21.7794 23.5288 23.4929 24.3055 25.302 24.6299L25.3458 24.6378H25.3903H30.5552C31.4374 24.6378 32.066 25.1388 32.2688 25.9563L32.4649 26.7472L33.0811 26.2142L38.5772 21.4606L38.5773 21.4605C39.3531 20.7892 40.3513 20.901 41.0233 21.6749C41.699 22.4614 41.6622 23.4988 40.8773 24.1799L31.7247 32.1153L31.7247 32.1153C30.3482 33.309 28.8091 33.9256 26.9896 34.0118L26.9896 34.0118L17.3672 34.4681L16.6765 34.5009L16.924 35.1465C17.1304 35.685 16.9826 36.2975 16.5495 36.681L16.5495 36.681L14.2474 38.7202C13.6758 39.2262 12.7963 39.1725 12.2901 38.6012L4.84552 30.1954L4.84546 30.1954C4.34283 29.628 4.39481 28.7351 4.96085 28.2415ZM32.2104 27.2144L32.1408 27.2746L32.0972 27.3556C31.8292 27.8535 31.3334 28.2261 30.5559 28.2261H19.3239C19.2717 28.2261 19.2283 28.1827 19.2283 28.1305C19.2283 28.0782 19.2717 28.0349 19.3239 28.0349H30.5559C31.0101 28.0349 31.4166 27.8744 31.7085 27.5688C31.9975 27.2662 32.1374 26.86 32.1374 26.4316C32.1374 26.0121 32.0031 25.6069 31.7169 25.3022C31.4266 24.9932 31.0186 24.829 30.5559 24.829H25.3713L25.3146 24.8234C23.4926 24.5028 21.7623 23.7375 20.1584 22.7576C17.6646 21.2335 14.6953 22.2674 12.7062 23.8001C11.6597 24.6057 10.7863 25.6068 10.0368 26.6487L9.80342 26.9731L10.0684 27.2722L16.1615 34.1515L16.3203 34.3307L16.5595 34.3194L26.981 33.8251C28.7539 33.7425 30.2645 33.1353 31.6042 31.9736C31.6042 31.9736 31.6042 31.9735 31.6042 31.9735L40.7569 24.0381L40.7573 24.0378C41.105 23.7356 41.2949 23.3409 41.306 22.9204C41.3168 22.5071 41.1544 22.1137 40.8826 21.7969L40.8819 21.7961C40.6156 21.487 40.2601 21.2708 39.8569 21.2233C39.4464 21.175 39.04 21.3082 38.7005 21.6012L38.7001 21.6015L32.2104 27.2144Z" fill="#EE3686" stroke="#E7426A"/>
</svg>
