<svg width="90" height="90" viewBox="0 0 90 90" fill="none" xmlns="http://www.w3.org/2000/svg">
<circle cx="45" cy="45" r="45" fill="white"/>
<path d="M53.2035 24.4786C52.6517 21.6264 50.0769 19.4563 47.1342 19.4563H42.291C39.3484 19.4563 36.7735 21.6264 36.2218 24.4786C35.4248 24.7267 34.873 25.4087 34.873 26.2768C34.873 26.7728 35.057 27.2068 35.3635 27.5168C35.057 27.8269 34.873 28.2609 34.873 28.7569C34.873 29.625 35.4248 30.307 36.1605 30.555C36.7122 33.4692 39.2871 35.5774 42.2297 35.5774H47.0729C50.0156 35.5774 52.5904 33.4072 53.1422 30.555C53.8778 30.307 54.4296 29.625 54.4296 28.7569C54.4296 28.2609 54.2457 27.8269 53.9391 27.5168C54.2457 27.2068 54.4296 26.7728 54.4296 26.2768C54.4909 25.4087 53.9391 24.7267 53.2035 24.4786ZM42.291 20.6964H47.1342C49.4025 20.6964 51.3643 22.2465 51.916 24.4166H51.6708L51.5482 24.2926C51.2417 23.9826 50.8738 23.7966 50.3834 23.7966H50.0156C49.5864 23.7966 49.1573 23.9826 48.8508 24.2926C48.7894 24.3546 48.6668 24.4166 48.5442 24.4166H48.1764C48.0538 24.4166 47.9312 24.3546 47.8699 24.2926C47.5633 23.9826 47.1955 23.7966 46.7051 23.7966H46.3372C45.9081 23.7966 45.4789 23.9826 45.1724 24.2926C45.1111 24.3546 44.9885 24.4166 44.8659 24.4166H44.498C44.3754 24.4166 44.2528 24.3546 44.1915 24.2926C43.885 23.9826 43.5172 23.7966 43.0267 23.7966H42.6589C42.2297 23.7966 41.8006 23.9826 41.4941 24.2926C41.4328 24.3546 41.3101 24.4166 41.1875 24.4166H40.8197C40.6971 24.4166 40.5745 24.3546 40.5132 24.2926C40.2066 23.9826 39.8388 23.7966 39.3484 23.7966H38.9805C38.5514 23.7966 38.1223 23.9826 37.8157 24.2926L37.6931 24.4166H37.4479C38.0609 22.2465 40.0227 20.6964 42.291 20.6964ZM36.7122 25.6567H38.1836L38.674 25.1607C38.7966 25.0987 38.9192 25.0367 38.9805 25.0367H39.3484C39.471 25.0367 39.5936 25.0987 39.6549 25.1607C39.9614 25.4707 40.3906 25.6567 40.8197 25.6567H41.1875C41.6167 25.6567 42.0458 25.4707 42.3523 25.1607C42.475 25.0987 42.5976 25.0367 42.6589 25.0367H43.0267C43.1493 25.0367 43.2719 25.0987 43.3332 25.1607C43.6398 25.4707 44.0689 25.6567 44.498 25.6567H44.8659C45.295 25.6567 45.7242 25.4707 46.0307 25.1607C46.1533 25.0987 46.2759 25.0367 46.3372 25.0367H46.7051C46.8277 25.0367 46.9503 25.0987 47.0116 25.1607C47.3181 25.4707 47.7472 25.6567 48.1764 25.6567H48.5442C48.9734 25.6567 49.4025 25.4707 49.709 25.1607C49.8316 25.0987 49.9543 25.0367 50.0156 25.0367H50.3834C50.506 25.0367 50.6286 25.0987 50.6899 25.1607L51.1804 25.6567H52.6517C53.0195 25.6567 53.2648 25.9047 53.2648 26.2768C53.2648 26.6488 53.0195 26.8968 52.6517 26.8968H36.7122C36.3444 26.8968 36.0992 26.6488 36.0992 26.2768C36.0992 25.9047 36.4057 25.6567 36.7122 25.6567ZM47.1342 34.3373H42.291C40.0227 34.3373 38.0609 32.7872 37.5092 30.617H51.9773C51.3643 32.7872 49.4025 34.3373 47.1342 34.3373ZM52.6517 29.377H36.7122C36.3444 29.377 36.0992 29.1289 36.0992 28.7569C36.0992 28.3849 36.3444 28.1369 36.7122 28.1369H52.6517C53.0195 28.1369 53.2648 28.3849 53.2648 28.7569C53.2648 29.1289 53.0195 29.377 52.6517 29.377Z" fill="#E67285"/>
<path d="M31.7054 58.3346C31.1537 55.4204 28.5788 53.3123 25.6361 53.3123H20.793C17.8503 53.3123 15.2755 55.4824 14.7237 58.3346C13.9268 58.5826 13.375 59.2647 13.375 60.1327C13.375 60.6287 13.5589 61.0628 13.8654 61.3728C13.5589 61.6828 13.375 62.1168 13.375 62.6129C13.375 63.4809 13.9268 64.163 14.6624 64.411C15.2142 67.3252 17.789 69.4333 20.7317 69.4333H25.5748C28.5175 69.4333 31.0924 67.2632 31.6441 64.411C32.3798 64.163 32.9315 63.4809 32.9315 62.6129C32.9315 62.1168 32.7476 61.6828 32.4411 61.3728C32.7476 61.0628 32.9315 60.6287 32.9315 60.1327C32.9928 59.2647 32.4411 58.5826 31.7054 58.3346ZM20.793 54.5523H25.6361C27.9045 54.5523 29.8662 56.1024 30.418 58.2726H30.1728L30.0502 58.1486C29.7436 57.8386 29.3145 57.6525 28.8854 57.6525H28.5175C28.0884 57.6525 27.6592 57.8386 27.3527 58.1486C27.2914 58.2106 27.1688 58.2726 27.0462 58.2726H26.6783C26.5557 58.2726 26.4331 58.2106 26.3718 58.1486C26.0653 57.8386 25.6361 57.6525 25.207 57.6525H24.8392C24.41 57.6525 23.9809 57.8386 23.6744 58.1486C23.6131 58.2106 23.4904 58.2726 23.3678 58.2726H23C22.8774 58.2726 22.7548 58.2106 22.6935 58.1486C22.3869 57.8386 21.9578 57.6525 21.5287 57.6525H21.1608C20.7317 57.6525 20.3025 57.8386 19.996 58.1486C19.9347 58.2106 19.8121 58.2726 19.6895 58.2726H19.3217C19.199 58.2726 19.0764 58.2106 19.0151 58.1486C18.7086 57.8386 18.2795 57.6525 17.8503 57.6525H17.4825C17.0533 57.6525 16.6242 57.8386 16.3177 58.1486L16.1951 58.2726H15.9498C16.5629 56.1024 18.5247 54.5523 20.793 54.5523ZM15.2142 59.5127H16.6855L17.176 59.0166C17.2373 58.9546 17.3599 58.8926 17.4825 58.8926H17.8503C17.9729 58.8926 18.0955 58.9546 18.1568 59.0166C18.4634 59.3267 18.8925 59.5127 19.3217 59.5127H19.6895C20.1186 59.5127 20.5478 59.3267 20.8543 59.0166C20.9156 58.9546 21.0382 58.8926 21.1608 58.8926H21.5287C21.6513 58.8926 21.7739 58.9546 21.8352 59.0166C22.1417 59.3267 22.5709 59.5127 23 59.5127H23.3678C23.797 59.5127 24.2261 59.3267 24.5326 59.0166C24.594 58.9546 24.7166 58.8926 24.8392 58.8926H25.207C25.3296 58.8926 25.4522 58.9546 25.5135 59.0166C25.8201 59.3267 26.2492 59.5127 26.6783 59.5127H27.0462C27.4753 59.5127 27.9045 59.3267 28.211 59.0166C28.2723 58.9546 28.3949 58.8926 28.5175 58.8926H28.8854C29.008 58.8926 29.1306 58.9546 29.1919 59.0166L29.6823 59.5127H31.1537C31.5215 59.5127 31.7667 59.7607 31.7667 60.1327C31.7667 60.5047 31.5215 60.7528 31.1537 60.7528H15.2142C14.8463 60.7528 14.6011 60.5047 14.6011 60.1327C14.6011 59.7607 14.8463 59.5127 15.2142 59.5127ZM25.5748 68.1932H20.7317C18.4634 68.1932 16.5016 66.6431 15.9498 64.473H30.418C29.8049 66.6431 27.8432 68.1932 25.5748 68.1932ZM31.1537 63.2329H15.2142C14.8463 63.2329 14.6011 62.9849 14.6011 62.6129C14.6011 62.2408 14.8463 61.9928 15.2142 61.9928H31.1537C31.5215 61.9928 31.7667 62.2408 31.7667 62.6129C31.7667 62.9229 31.5215 63.2329 31.1537 63.2329Z" fill="#E67285"/>
<path d="M53.4136 58.3346C52.8619 55.4204 50.287 53.3123 47.3444 53.3123H42.5012C39.5585 53.3123 36.9837 55.4824 36.432 58.3346C35.6963 58.5826 35.1445 59.2647 35.1445 60.1327C35.1445 60.6287 35.3284 61.0628 35.635 61.3728C35.3284 61.6828 35.1445 62.1168 35.1445 62.6129C35.1445 63.4809 35.6963 64.163 36.432 64.411C36.9837 67.3252 39.5585 69.4333 42.5012 69.4333H47.3444C50.287 69.4333 52.8619 67.2632 53.4136 64.411C54.1493 64.163 54.7011 63.4809 54.7011 62.6129C54.7011 62.1168 54.5171 61.6828 54.2106 61.3728C54.5171 61.0628 54.7011 60.6287 54.7011 60.1327C54.7011 59.2647 54.1493 58.5826 53.4136 58.3346ZM42.5012 54.5523H47.3444C49.6127 54.5523 51.5745 56.1024 52.1262 58.2726H51.881L51.7584 58.1486C51.4519 57.8386 51.0227 57.6525 50.5936 57.6525H50.2257C49.7966 57.6525 49.3675 57.8386 49.0609 58.1486C48.9996 58.2106 48.877 58.2726 48.7544 58.2726H48.3866C48.264 58.2726 48.1413 58.2106 48.08 58.1486C47.7735 57.8386 47.3444 57.6525 46.9152 57.6525H46.5474C46.1183 57.6525 45.6891 57.8386 45.3826 58.1486C45.3213 58.2106 45.1987 58.2726 45.0761 58.2726H44.7082C44.5856 58.2726 44.463 58.2106 44.4017 58.1486C44.0952 57.8386 43.666 57.6525 43.2369 57.6525H42.8691C42.4399 57.6525 42.0108 57.8386 41.7042 58.1486C41.6429 58.2106 41.5203 58.2726 41.3977 58.2726H41.0299C40.9073 58.2726 40.7847 58.2106 40.7234 58.1486C40.4168 57.8386 39.9877 57.6525 39.5585 57.6525H39.1907C38.7616 57.6525 38.3324 57.8386 38.0259 58.1486L37.9033 58.2726H37.6581C38.2711 56.1024 40.2329 54.5523 42.5012 54.5523ZM36.9224 59.5127H38.3937L38.8842 59.0166C38.9455 58.9546 39.0681 58.8926 39.1907 58.8926H39.5585C39.6812 58.8926 39.8038 58.9546 39.8651 59.0166C40.1716 59.3267 40.6007 59.5127 41.0299 59.5127H41.3977C41.8269 59.5127 42.256 59.3267 42.5625 59.0166C42.6238 58.9546 42.7464 58.8926 42.8691 58.8926H43.2369C43.3595 58.8926 43.4821 58.9546 43.5434 59.0166C43.8499 59.3267 44.2791 59.5127 44.7082 59.5127H45.0761C45.5052 59.5127 45.9343 59.3267 46.2409 59.0166C46.3022 58.9546 46.4248 58.8926 46.5474 58.8926H46.9152C47.0378 58.8926 47.1605 58.9546 47.2218 59.0166C47.5283 59.3267 47.9574 59.5127 48.3866 59.5127H48.7544C49.1835 59.5127 49.6127 59.3267 49.9192 59.0166C49.9805 58.9546 50.1031 58.8926 50.2257 58.8926H50.5936C50.7162 58.8926 50.8388 58.9546 50.9001 59.0166L51.3906 59.5127H52.8619C53.2297 59.5127 53.4749 59.7607 53.4749 60.1327C53.4749 60.5047 53.2297 60.7528 52.8619 60.7528H36.9224C36.5546 60.7528 36.3093 60.5047 36.3093 60.1327C36.3093 59.7607 36.6159 59.5127 36.9224 59.5127ZM47.3444 68.1932H42.5012C40.2329 68.1932 38.2711 66.6431 37.7194 64.473H52.1875C51.5745 66.6431 49.6127 68.1932 47.3444 68.1932ZM52.8619 63.2329H36.9224C36.5546 63.2329 36.3093 62.9849 36.3093 62.6129C36.3093 62.2408 36.5546 61.9928 36.9224 61.9928H52.8619C53.2297 61.9928 53.4749 62.2408 53.4749 62.6129C53.4749 62.9229 53.2297 63.2329 52.8619 63.2329Z" fill="#E67285"/>
<path d="M75.0953 58.3346C74.5435 55.4204 71.9687 53.3123 69.026 53.3123H64.1829C61.2402 53.3123 58.6653 55.4824 58.1136 58.3346C57.3779 58.5826 56.8262 59.2647 56.8262 60.1327C56.8262 60.6287 57.0101 61.0628 57.3166 61.3728C57.0101 61.6828 56.8262 62.1168 56.8262 62.6129C56.8262 63.4809 57.3779 64.163 58.1136 64.411C58.6653 67.3252 61.2402 69.4333 64.1829 69.4333H69.026C71.9687 69.4333 74.5435 67.2632 75.0953 64.411C75.8309 64.163 76.3827 63.4809 76.3827 62.6129C76.3827 62.1168 76.1988 61.6828 75.8923 61.3728C76.1988 61.0628 76.3827 60.6287 76.3827 60.1327C76.444 59.2647 75.8923 58.5826 75.0953 58.3346ZM64.1829 54.5523H69.026C71.2943 54.5523 73.2561 56.1024 73.8079 58.2726H73.5626L73.44 58.1486C73.1335 57.8386 72.7044 57.6525 72.2752 57.6525H71.9074C71.4782 57.6525 71.0491 57.8386 70.7426 58.1486C70.6813 58.2106 70.5587 58.2726 70.436 58.2726H70.0682C69.9456 58.2726 69.823 58.2106 69.7617 58.1486C69.4552 57.8386 69.026 57.6525 68.5969 57.6525H68.229C67.7999 57.6525 67.3708 57.8386 67.0642 58.1486C67.0029 58.2106 66.8803 58.2726 66.7577 58.2726H66.3899C66.2673 58.2726 66.1446 58.2106 66.0833 58.1486C65.7768 57.8386 65.3477 57.6525 64.9185 57.6525H64.5507C64.1216 57.6525 63.6924 57.8386 63.3859 58.1486C63.3246 58.2106 63.202 58.2726 63.0794 58.2726H62.7115C62.5889 58.2726 62.4663 58.2106 62.405 58.1486C62.0985 57.8386 61.6693 57.6525 61.2402 57.6525H60.8723C60.4432 57.6525 60.0141 57.8386 59.7075 58.1486L59.5849 58.2726H59.3397C59.9528 56.1024 61.9145 54.5523 64.1829 54.5523ZM58.6653 59.5127H60.1367L60.6271 59.0166C60.6884 58.9546 60.811 58.8926 60.9337 58.8926H61.3015C61.4241 58.8926 61.5467 58.9546 61.608 59.0166C61.9145 59.3267 62.3437 59.5127 62.7728 59.5127H63.1407C63.5698 59.5127 63.9989 59.3267 64.3055 59.0166C64.3668 58.9546 64.4894 58.8926 64.612 58.8926H64.9798C65.1024 58.8926 65.2251 58.9546 65.2864 59.0166C65.5929 59.3267 66.022 59.5127 66.4512 59.5127H66.819C67.2481 59.5127 67.6773 59.3267 67.9838 59.0166C68.0451 58.9546 68.1677 58.8926 68.2903 58.8926H68.6582C68.7808 58.8926 68.9034 58.9546 68.9647 59.0166C69.2712 59.3267 69.7004 59.5127 70.1295 59.5127H70.4973C70.9265 59.5127 71.3556 59.3267 71.6622 59.0166C71.7235 58.9546 71.8461 58.8926 71.9687 58.8926H72.3365C72.4591 58.8926 72.5817 58.9546 72.643 59.0166L73.1335 59.5127H74.6048C74.9727 59.5127 75.2179 59.7607 75.2179 60.1327C75.2179 60.5047 74.9727 60.7528 74.6048 60.7528H58.6653C58.2975 60.7528 58.0523 60.5047 58.0523 60.1327C58.0523 59.7607 58.2975 59.5127 58.6653 59.5127ZM69.026 68.1932H64.1829C61.9145 68.1932 59.9528 66.6431 59.401 64.473H73.8692C73.2561 66.6431 71.2943 68.1932 69.026 68.1932ZM74.6048 63.2329H58.6653C58.2975 63.2329 58.0523 62.9849 58.0523 62.6129C58.0523 62.2408 58.2975 61.9928 58.6653 61.9928H74.6048C74.9727 61.9928 75.2179 62.2408 75.2179 62.6129C75.2179 62.9229 74.9114 63.2329 74.6048 63.2329Z" fill="#E67285"/>
<path d="M42.5543 41.4034C42.0025 38.4892 39.4277 36.3811 36.485 36.3811H31.6418C28.6992 36.3811 26.1243 38.5512 25.5726 41.4034C24.8369 41.6515 24.2852 42.3335 24.2852 43.2016C24.2852 43.6976 24.4691 44.1316 24.7756 44.4416C24.4691 44.7517 24.2852 45.1857 24.2852 45.6817C24.2852 46.5498 24.8369 47.2318 25.5726 47.4798C26.1243 50.394 28.6992 52.5022 31.6418 52.5022H36.485C39.4277 52.5022 42.0025 50.332 42.5543 47.4798C43.2899 47.2318 43.8417 46.5498 43.8417 45.6817C43.8417 45.1857 43.6578 44.7517 43.3512 44.4416C43.6578 44.1316 43.8417 43.6976 43.8417 43.2016C43.8417 42.3335 43.2899 41.5895 42.5543 41.4034ZM31.6418 37.5592H36.485C38.7533 37.5592 40.7151 39.1093 41.2668 41.2794H41.0216L40.899 41.1554C40.5925 40.8454 40.1633 40.6594 39.7342 40.6594H39.3664C38.9372 40.6594 38.5081 40.8454 38.2016 41.1554C38.1403 41.2174 38.0176 41.2794 37.895 41.2794H37.5272C37.4046 41.2794 37.282 41.2174 37.2207 41.1554C36.9141 40.8454 36.485 40.6594 36.0559 40.6594H35.688C35.2589 40.6594 34.8297 40.8454 34.5232 41.1554C34.4619 41.2174 34.3393 41.2794 34.2167 41.2794H33.8489C33.7262 41.2794 33.6036 41.2174 33.5423 41.1554C33.2358 40.8454 32.8067 40.6594 32.3775 40.6594H32.0097C31.5805 40.6594 31.1514 40.8454 30.8449 41.1554C30.7836 41.2174 30.661 41.2794 30.5383 41.2794H30.1705C30.0479 41.2794 29.9253 41.2174 29.864 41.1554C29.5574 40.8454 29.1283 40.6594 28.6992 40.6594H28.3313C27.9022 40.6594 27.4731 40.8454 27.1665 41.1554L27.0439 41.2794H26.7987C27.4117 39.1093 29.3735 37.5592 31.6418 37.5592ZM26.063 42.5195H27.5344L28.0248 42.0235C28.0861 41.9615 28.2087 41.8995 28.3313 41.8995H28.6992C28.8218 41.8995 28.9444 41.9615 29.0057 42.0235C29.3122 42.3335 29.7414 42.5195 30.1705 42.5195H30.5383C30.9675 42.5195 31.3966 42.3335 31.7032 42.0235C31.7645 41.9615 31.8871 41.8995 32.0097 41.8995H32.3775C32.5001 41.8995 32.6227 41.9615 32.684 42.0235C32.9906 42.3335 33.4197 42.5195 33.8489 42.5195H34.2167C34.6458 42.5195 35.075 42.3335 35.3815 42.0235C35.4428 41.9615 35.5654 41.8995 35.688 41.8995H36.0559C36.1785 41.8995 36.3011 41.9615 36.3624 42.0235C36.6689 42.3335 37.0981 42.5195 37.5272 42.5195H37.895C38.3242 42.5195 38.7533 42.3335 39.0598 42.0235C39.1211 41.9615 39.2438 41.8995 39.3664 41.8995H39.7342C39.8568 41.8995 39.9794 41.9615 40.0407 42.0235L40.5312 42.5195H42.0025C42.3703 42.5195 42.6156 42.7675 42.6156 43.1396C42.6156 43.5116 42.3703 43.7596 42.0025 43.7596H26.063C25.6952 43.7596 25.45 43.5116 25.45 43.1396C25.45 42.7675 25.7565 42.5195 26.063 42.5195ZM36.485 51.2001H31.6418C29.3735 51.2001 27.4117 49.65 26.86 47.4798H41.3282C40.6538 49.65 38.7533 51.2001 36.485 51.2001ZM42.0025 46.2398H26.063C25.6952 46.2398 25.45 45.9917 25.45 45.6197C25.45 45.2477 25.6952 44.9997 26.063 44.9997H42.0025C42.3703 44.9997 42.6156 45.2477 42.6156 45.6197C42.6156 45.9917 42.3703 46.2398 42.0025 46.2398Z" fill="#E67285"/>
<path d="M64.2789 41.4034C63.7271 38.4892 61.1523 36.3811 58.2096 36.3811H53.3665C50.4238 36.3811 47.8489 38.5512 47.2972 41.4034C46.5615 41.6515 46.0098 42.3335 46.0098 43.2016C46.0098 43.6976 46.1937 44.1316 46.5002 44.4416C46.1937 44.7517 46.0098 45.1857 46.0098 45.6817C46.0098 46.5498 46.5615 47.2318 47.2972 47.4798C47.8489 50.394 50.4238 52.5022 53.3665 52.5022H58.2096C61.1523 52.5022 63.7271 50.332 64.2789 47.4798C65.0145 47.2318 65.5663 46.5498 65.5663 45.6817C65.5663 45.1857 65.3824 44.7517 65.0759 44.4416C65.3824 44.1316 65.5663 43.6976 65.5663 43.2016C65.5663 42.3335 65.0145 41.5895 64.2789 41.4034ZM53.3665 37.5592H58.2096C60.4779 37.5592 62.4397 39.1093 62.9915 41.2794H62.7462L62.6236 41.1554C62.3171 40.8454 61.888 40.6594 61.4588 40.6594H61.091C60.6618 40.6594 60.2327 40.8454 59.9262 41.1554C59.8649 41.2174 59.7423 41.2794 59.6196 41.2794H59.2518C59.1292 41.2794 59.0066 41.2174 58.9453 41.1554C58.6388 40.8454 58.2096 40.6594 57.7805 40.6594H57.4126C56.9835 40.6594 56.5544 40.8454 56.2478 41.1554C56.1865 41.2174 56.0639 41.2794 55.9413 41.2794H55.5735C55.4509 41.2794 55.3282 41.2174 55.2669 41.1554C54.9604 40.8454 54.5313 40.6594 54.1021 40.6594H53.7343C53.3052 40.6594 52.876 40.8454 52.5695 41.1554C52.5082 41.2174 52.3856 41.2794 52.263 41.2794H51.8951C51.7725 41.2794 51.6499 41.2174 51.5886 41.1554C51.2821 40.8454 50.8529 40.6594 50.4238 40.6594H50.0559C49.6268 40.6594 49.1977 40.8454 48.8911 41.1554L48.7685 41.2794H48.5233C49.1364 39.1093 51.0981 37.5592 53.3665 37.5592ZM47.7876 42.5195H49.259L49.7494 42.0235C49.8107 41.9615 49.9333 41.8995 50.0559 41.8995H50.4238C50.5464 41.8995 50.669 41.9615 50.7303 42.0235C51.0368 42.3335 51.466 42.5195 51.8951 42.5195H52.263C52.6921 42.5195 53.1212 42.3335 53.4278 42.0235C53.4891 41.9615 53.6117 41.8995 53.7343 41.8995H54.1021C54.2247 41.8995 54.3473 41.9615 54.4087 42.0235C54.7152 42.3335 55.1443 42.5195 55.5735 42.5195H55.9413C56.3704 42.5195 56.7996 42.3335 57.1061 42.0235C57.1674 41.9615 57.29 41.8995 57.4126 41.8995H57.7805C57.9031 41.8995 58.0257 41.9615 58.087 42.0235C58.3935 42.3335 58.8227 42.5195 59.2518 42.5195H59.6196C60.0488 42.5195 60.4779 42.3335 60.7845 42.0235C60.8458 41.9615 60.9684 41.8995 61.091 41.8995H61.4588C61.5814 41.8995 61.704 41.9615 61.7653 42.0235L62.2558 42.5195H63.7271C64.095 42.5195 64.3402 42.7675 64.3402 43.1396C64.3402 43.5116 64.095 43.7596 63.7271 43.7596H47.7876C47.4198 43.7596 47.1746 43.5116 47.1746 43.1396C47.1746 42.7675 47.4811 42.5195 47.7876 42.5195ZM58.2096 51.2001H53.3665C51.0981 51.2001 49.1364 49.65 48.5846 47.4798H63.0528C62.4397 49.65 60.4779 51.2001 58.2096 51.2001ZM63.7271 46.2398H47.7876C47.4198 46.2398 47.1746 45.9917 47.1746 45.6197C47.1746 45.2477 47.4198 44.9997 47.7876 44.9997H63.7271C64.095 44.9997 64.3402 45.2477 64.3402 45.6197C64.3402 45.9917 64.095 46.2398 63.7271 46.2398Z" fill="#E67285"/>
</svg>
