<svg width="90" height="90" viewBox="0 0 90 90" fill="none" xmlns="http://www.w3.org/2000/svg">
<circle cx="45" cy="45" r="45" fill="white"/>
<path d="M19.3559 26.7586C18.7451 26.7586 18.25 27.2612 18.25 27.8812C18.25 28.5013 18.7451 29.0039 19.3559 29.0039H25.0929L30.9162 56.9651C30.8568 57.6047 31.4419 58.2253 32.074 58.193H59.7219C60.3062 58.2014 60.8436 57.6636 60.8436 57.0704C60.8436 56.4772 60.3062 55.9393 59.7219 55.9477H32.9725L32.0394 51.4571H61.9337C62.4289 51.4515 62.8968 51.0705 63.0051 50.5801L66.8758 33.7401C67.0196 33.0886 66.4622 32.3767 65.8044 32.3719H28.065L27.0801 27.6357C26.9705 27.1395 26.4923 26.7542 25.9914 26.7586H19.3559ZM28.5316 34.6172H64.422L61.0524 49.2118H31.5729L28.5316 34.6172ZM37.6036 60.4383C34.8682 60.4383 32.6269 62.7135 32.6269 65.4903C32.6269 68.2672 34.8682 70.5423 37.6036 70.5423C40.339 70.5423 42.5802 68.2672 42.5802 65.4903C42.5802 62.7135 40.339 60.4383 37.6036 60.4383ZM54.1923 60.4383C51.4569 60.4383 49.2157 62.7135 49.2157 65.4903C49.2157 68.2672 51.4569 70.5423 54.1923 70.5423C56.9277 70.5423 59.1689 68.2672 59.1689 65.4903C59.1689 62.7135 56.9277 60.4383 54.1923 60.4383ZM37.6036 62.6837C39.1436 62.6837 40.3683 63.9269 40.3683 65.4903C40.3683 67.0537 39.1436 68.297 37.6036 68.297C36.0636 68.297 34.8388 67.0537 34.8388 65.4903C34.8388 63.927 36.0636 62.6837 37.6036 62.6837ZM54.1923 62.6837C55.7324 62.6837 56.9571 63.9269 56.9571 65.4903C56.9571 67.0537 55.7324 68.297 54.1923 68.297C52.6523 68.297 51.4275 67.0537 51.4275 65.4903C51.4275 63.927 52.6523 62.6837 54.1923 62.6837Z" fill="#D17EAC"/>
</svg>
