<svg width="90" height="90" viewBox="0 0 90 90" fill="none" xmlns="http://www.w3.org/2000/svg">
<circle cx="45" cy="45" r="45" fill="white"/>
<path d="M72.2573 44.3699V37.245H60.5903C60.8575 36.9778 61.1247 36.7106 61.3028 36.3544H62.9059C65.1324 36.3544 66.9137 34.5732 66.9137 32.3466C66.9137 30.1201 65.1324 28.3389 62.9059 28.3389H62.4606H61.57H49.9921V32.7919C49.9921 34.5732 50.7045 36.0872 51.8623 37.245H41.9766V44.3699H43.7578V42.5887H45.0046L46.7859 46.1511H48.2108V68.4164C48.2108 69.3961 47.4093 70.1976 46.4296 70.1976C45.4499 70.1976 44.6484 69.3961 44.6484 68.4164H42.8672C42.8672 70.3757 44.4703 71.9788 46.4296 71.9788C48.389 71.9788 49.9921 70.3757 49.9921 68.4164V55.9478H64.2418V68.4164C64.2418 70.3757 65.8449 71.9788 67.8043 71.9788C69.7636 71.9788 71.3667 70.3757 71.3667 68.4164H69.5855C69.5855 69.3961 68.7839 70.1976 67.8043 70.1976C66.8246 70.1976 66.023 69.3961 66.023 68.4164V46.1511H67.448L69.2292 42.5887H70.4761V44.3699H72.2573ZM62.9059 30.1201C64.1528 30.1201 65.1324 31.0998 65.1324 32.3466C65.1324 33.5935 64.1528 34.5732 62.9059 34.5732H62.1934C62.3715 34.0388 62.4606 33.4154 62.4606 32.7919V30.1201H62.9059ZM51.7733 32.7919V30.1201H60.6794V32.7919C60.6794 35.2856 58.72 37.245 56.2263 37.245C53.7326 37.245 51.7733 35.2856 51.7733 32.7919ZM49.9921 54.1666V52.3854H64.2418V54.1666H49.9921ZM64.2418 50.6042H49.9921V46.1511H64.2418V50.6042ZM66.3793 44.3699H47.8546L46.964 42.5887H67.2699L66.3793 44.3699ZM43.7578 40.8074V39.0262H70.4761V40.8074H43.7578Z" fill="#8A8CDC"/>
<path d="M38.4098 69.307C38.4098 69.8414 38.0536 70.1976 37.5192 70.1976C36.9848 70.1976 36.6286 69.8414 36.6286 69.307V55.0572H37.5192C38.4989 55.0572 39.3004 54.2557 39.3004 53.276V51.4948C39.3004 50.5151 38.4989 49.7135 37.5192 49.7135H23.2694L22.3788 31.0107C22.3788 29.4967 21.221 28.3389 19.707 28.3389C18.193 28.3389 17.0352 29.4967 17.0352 31.0107V31.9013H18.8164V31.0107C18.8164 30.4763 19.1726 30.1201 19.707 30.1201C20.2414 30.1201 20.5976 30.4763 20.5976 31.0107L21.4882 50.6042V55.0572H23.2694V69.307C23.2694 69.8414 22.9132 70.1976 22.3788 70.1976C21.8445 70.1976 21.4882 69.8414 21.4882 69.307V68.4164H19.707V69.307C19.707 70.821 20.8648 71.9788 22.3788 71.9788C23.8929 71.9788 25.0507 70.821 25.0507 69.307V55.0572H34.8474V69.307C34.8474 70.821 36.0052 71.9788 37.5192 71.9788C39.0332 71.9788 40.191 70.821 40.191 69.307V68.4164H38.4098V69.307ZM23.2694 51.4948H37.5192V53.276H23.2694V51.4948Z" fill="#8A8CDC"/>
<path d="M52.6777 21.7476C52.1434 22.282 51.7871 23.0835 51.7871 23.8851C51.7871 24.6866 52.1434 25.4882 52.6777 26.0225L53.8355 27.1803L55.0824 25.9335L53.9246 24.7757C53.6574 24.5085 53.5683 24.2413 53.5683 23.8851C53.5683 23.5288 53.6574 23.2616 53.9246 22.9944L54.4589 22.4601C54.9933 21.9257 55.3496 21.1242 55.3496 20.3226C55.3496 19.5211 54.9933 18.7195 54.4589 18.1851L53.3011 17.0273L52.0543 18.2742L53.2121 19.432C53.4793 19.6992 53.5683 19.9664 53.5683 20.3226C53.5683 20.6789 53.4793 20.946 53.2121 21.2132L52.6777 21.7476Z" fill="#8A8CDC"/>
<path d="M58.0039 21.7476C57.4695 22.282 57.1133 23.0835 57.1133 23.8851C57.1133 24.6866 57.4695 25.4882 58.0039 26.0225L59.1617 27.1803L60.4085 25.9335L59.2507 24.7757C58.9836 24.5085 58.8945 24.2413 58.8945 23.8851C58.8945 23.5288 58.9836 23.2616 59.2507 22.9944L59.7851 22.4601C60.3195 21.9257 60.6757 21.1242 60.6757 20.3226C60.6757 19.5211 60.3195 18.7195 59.7851 18.1851L58.6273 17.0273L57.3805 18.2742L58.5383 19.432C58.8054 19.6992 58.8945 19.9664 58.8945 20.3226C58.8945 20.6789 58.8054 20.946 58.5383 21.2132L58.0039 21.7476Z" fill="#8A8CDC"/>
</svg>
