<svg width="90" height="90" viewBox="0 0 90 90" fill="none" xmlns="http://www.w3.org/2000/svg">
<circle cx="45" cy="45" r="45" fill="white"/>
<path d="M57.3011 41.9811V37.1513H63.7998C65.5373 37.1513 66.9509 35.7377 66.9509 34.0001V22.6128C66.9509 20.8753 65.5373 19.4617 63.7998 19.4617H28.342C24.7982 19.4617 21.9121 22.3478 21.9121 25.8916V69.3303H66.9509V61.2904H58.0177C59.0681 60.2695 59.716 58.8461 59.716 57.2656V56.4606H62.1309C63.466 56.4606 64.5458 55.3808 64.5458 54.0457V49.2159C64.5458 47.8809 63.466 46.801 62.1309 46.801H59.716V44.396H42.0166V57.2656C42.0166 58.8363 42.6645 60.2597 43.7149 61.2904H36.3917V37.1611H44.4315V41.9909H49.2613V37.1611H52.4812V41.9909H57.3011V41.9811ZM55.6912 40.3711H54.0813V37.1513H55.6912V40.3711ZM62.1309 48.4208C62.5727 48.4208 62.9359 48.784 62.9359 49.2258V54.0555C62.9359 54.4973 62.5727 54.8605 62.1309 54.8605H59.716V48.4208H62.1309ZM43.6265 57.2656V46.0059H58.1061V46.8109V56.4606V57.2656C58.1061 59.4842 56.2998 61.2904 54.0813 61.2904H47.6514C45.4328 61.2904 43.6265 59.4842 43.6265 57.2656ZM47.6514 40.3711H46.0414V37.1513H47.6514V40.3711ZM49.2613 35.5512H44.4315H34.7817V62.9004H47.6514H54.0813H65.341V67.7301H23.522V25.8916C23.522 23.2313 25.6817 21.0716 28.342 21.0716H63.7998C64.6538 21.0716 65.341 21.7686 65.341 22.6128V34.0001C65.341 34.8542 64.644 35.5512 63.7998 35.5512H57.3011H52.4713H49.2613Z" fill="#CC9180"/>
<path d="M30.7377 23.4849C28.5192 23.4849 26.7129 25.2911 26.7129 27.5097C26.7129 29.7283 28.5192 31.5345 30.7377 31.5345C32.9563 31.5345 34.7625 29.7283 34.7625 27.5097C34.7625 25.2813 32.9563 23.4849 30.7377 23.4849ZM30.7377 29.9148C29.4027 29.9148 28.3228 28.8349 28.3228 27.4999C28.3228 26.1648 29.4027 25.085 30.7377 25.085C32.0728 25.085 33.1526 26.1648 33.1526 27.4999C33.1526 28.8349 32.0728 29.9148 30.7377 29.9148Z" fill="#CC9180"/>
<path d="M51.6724 26.6948H50.0625V28.3048H51.6724V26.6948Z" fill="#CC9180"/>
<path d="M54.8658 26.6948H53.2559V28.3048H54.8658V26.6948Z" fill="#CC9180"/>
<path d="M48.4166 26.6948H46.8066V28.3048H48.4166V26.6948Z" fill="#CC9180"/>
</svg>
