<svg width="90" height="90" viewBox="0 0 90 90" fill="none" xmlns="http://www.w3.org/2000/svg">
<circle cx="45" cy="45" r="45" fill="white"/>
<path d="M28.8719 20.8799L28.8725 20.8781L28.8743 20.8799L28.6361 22.0076L28.3978 23.1353L29.3905 22.5495L30.4444 21.9368L31.4995 22.5495L32.4922 23.1353L32.2539 22.0076L32.0156 20.8799L32.0168 20.8787L32.0174 20.8799L32.8457 20.0786L33.6745 19.2774L32.524 19.2072L31.3734 19.1364L30.9089 18.0818L30.4444 17.0273L29.9798 18.0818L29.5153 19.1364L29.5111 19.1484L29.5153 19.1364L28.3654 19.2072L27.2148 19.2774L28.0437 20.0786L28.8719 20.8799Z" fill="#92C2D6"/>
<path d="M36.161 20.8799L36.1616 20.8781L36.1634 20.8799L35.9251 22.0076L35.6868 23.1353L36.6795 22.5495L37.7334 21.9368L38.7885 22.5495L39.7812 23.1353L39.543 22.0076L39.3047 20.8799L39.3059 20.8787L39.3065 20.8799L40.1347 20.0786L40.9636 19.2774L39.813 19.2072L38.6625 19.1364L38.198 18.0818L37.7334 17.0273L37.2689 18.0818L36.8044 19.1364L36.8002 19.1484L36.8044 19.1364L35.6544 19.2072L34.5039 19.2774L35.3327 20.0786L36.161 20.8799Z" fill="#92C2D6"/>
<path d="M43.409 20.8799L43.4096 20.8781L43.4114 20.8799L43.1732 22.0076L42.9349 23.1353L43.9276 22.5495L44.9815 21.9368L46.0366 22.5495L47.0293 23.1353L46.791 22.0076L46.5527 20.8799L46.5539 20.8787L46.5545 20.8799L47.3828 20.0786L48.2116 19.2774L47.0611 19.2072L45.9105 19.1364L45.446 18.0818L44.9815 17.0273L44.5169 18.0818L44.0524 19.1364L44.0482 19.1484L44.0524 19.1364L42.9025 19.2072L41.752 19.2774L42.5808 20.0786L43.409 20.8799Z" fill="#92C2D6"/>
<path d="M50.7665 20.8799L50.7671 20.8781L50.7689 20.8799L50.5306 22.0076L50.2923 23.1353L51.285 22.5495L52.3395 21.9368L53.394 22.5495L54.3867 23.1353L54.1484 22.0076L53.9102 20.8799L53.9114 20.8787L53.912 20.8799L54.7402 20.0786L55.569 19.2774L54.4185 19.2072L53.2686 19.1364L52.804 18.0818L52.3395 17.0273L51.875 18.0818L51.4104 19.1364L51.4056 19.1484L51.4104 19.1364L50.2599 19.2072L49.1094 19.2774L49.9382 20.0786L50.7665 20.8799Z" fill="#92C2D6"/>
<path d="M58.0164 20.8799L58.0171 20.8781L58.0189 20.8799L57.7806 22.0076L57.5423 23.1353L58.535 22.5495L59.5895 21.9368L60.644 22.5495L61.6367 23.1353L61.3984 22.0076L61.1602 20.8799L61.1614 20.8787L61.162 20.8799L61.9902 20.0786L62.819 19.2774L61.6685 19.2072L60.5186 19.1364L60.054 18.0818L59.5895 17.0273L59.125 18.0818L58.6604 19.1364L57.5099 19.2072L56.3594 19.2774L57.1882 20.0786L58.0164 20.8799Z" fill="#92C2D6"/>
<path d="M67.1044 27.9219H65.5896V24.9733C65.5896 24.4757 65.1863 24.073 64.6893 24.073H25.372C24.8745 24.073 24.4717 24.4757 24.4717 24.9733V27.9219H22.9569C22.4594 27.9219 22.0566 28.3246 22.0566 28.8222V68.427C22.0566 68.924 22.4594 69.3273 22.9569 69.3273H41.7675H48.2938H67.105C67.602 69.3273 68.0053 68.924 68.0053 68.427V28.8222C68.0047 28.3246 67.6014 27.9219 67.1044 27.9219ZM26.2723 25.8735H63.7891V27.9219H26.2723V25.8735ZM47.3935 67.5268H42.6678V57.8976H47.3935V67.5268ZM66.2042 67.5268H49.1941V56.9973C49.1941 56.5004 48.7907 56.0971 48.2938 56.0971H41.7675C41.27 56.0971 40.8673 56.5004 40.8673 56.9973V67.5268H23.8572V29.7224H25.0809C25.1727 29.7542 25.27 29.7746 25.3726 29.7746H64.6899C64.7925 29.7746 64.8898 29.7536 64.9816 29.7224H66.2054V67.5268H66.2042Z" fill="#92C2D6"/>
<path d="M35.3308 31.9644H28.8046C28.307 31.9644 27.9043 32.3671 27.9043 32.8646V37.0922C27.9043 37.5898 28.307 37.9925 28.8046 37.9925H35.3308C35.8284 37.9925 36.2311 37.5898 36.2311 37.0922V32.8646C36.2311 32.3671 35.8278 31.9644 35.3308 31.9644ZM34.4306 36.192H29.7048V33.7649H34.4306V36.192Z" fill="#92C2D6"/>
<path d="M48.2937 31.9644H41.7674C41.2699 31.9644 40.8672 32.3671 40.8672 32.8646V37.0922C40.8672 37.5898 41.2699 37.9925 41.7674 37.9925H48.2937C48.7907 37.9925 49.194 37.5898 49.194 37.0922V32.8646C49.194 32.3671 48.7907 31.9644 48.2937 31.9644ZM47.3935 36.192H42.6677V33.7649H47.3935V36.192Z" fill="#92C2D6"/>
<path d="M61.2566 31.9644H54.7303C54.2334 31.9644 53.8301 32.3671 53.8301 32.8646V37.0922C53.8301 37.5898 54.2334 37.9925 54.7303 37.9925H61.2566C61.7536 37.9925 62.1569 37.5898 62.1569 37.0922V32.8646C62.1569 32.3671 61.7536 31.9644 61.2566 31.9644ZM60.3564 36.192H55.6306V33.7649H60.3564V36.192Z" fill="#92C2D6"/>
<path d="M35.3308 40.0073H28.8046C28.307 40.0073 27.9043 40.41 27.9043 40.9076V45.1352C27.9043 45.6321 28.307 46.0355 28.8046 46.0355H35.3308C35.8284 46.0355 36.2311 45.6321 36.2311 45.1352V40.9076C36.2311 40.41 35.8278 40.0073 35.3308 40.0073ZM34.4306 44.2349H29.7048V41.8078H34.4306V44.2349Z" fill="#92C2D6"/>
<path d="M48.2937 40.0073H41.7674C41.2699 40.0073 40.8672 40.41 40.8672 40.9076V45.1352C40.8672 45.6321 41.2699 46.0355 41.7674 46.0355H48.2937C48.7907 46.0355 49.194 45.6321 49.194 45.1352V40.9076C49.194 40.41 48.7907 40.0073 48.2937 40.0073ZM47.3935 44.2349H42.6677V41.8078H47.3935V44.2349Z" fill="#92C2D6"/>
<path d="M61.2566 40.0073H54.7303C54.2334 40.0073 53.8301 40.41 53.8301 40.9076V45.1352C53.8301 45.6321 54.2334 46.0355 54.7303 46.0355H61.2566C61.7536 46.0355 62.1569 45.6321 62.1569 45.1352V40.9076C62.1569 40.41 61.7536 40.0073 61.2566 40.0073ZM60.3564 44.2349H55.6306V41.8078H60.3564V44.2349Z" fill="#92C2D6"/>
<path d="M35.3308 48.0508H28.8046C28.307 48.0508 27.9043 48.4541 27.9043 48.951V53.1793C27.9043 53.6762 28.307 54.0795 28.8046 54.0795H35.3308C35.8284 54.0795 36.2311 53.6762 36.2311 53.1793V48.951C36.2311 48.4541 35.8278 48.0508 35.3308 48.0508ZM34.4306 52.279H29.7048V49.8513H34.4306V52.279Z" fill="#92C2D6"/>
<path d="M48.2937 48.0508H41.7674C41.2699 48.0508 40.8672 48.4541 40.8672 48.951V53.1793C40.8672 53.6762 41.2699 54.0795 41.7674 54.0795H48.2937C48.7907 54.0795 49.194 53.6762 49.194 53.1793V48.951C49.194 48.4541 48.7907 48.0508 48.2937 48.0508ZM47.3935 52.279H42.6677V49.8513H47.3935V52.279Z" fill="#92C2D6"/>
<path d="M61.2566 48.0508H54.7303C54.2334 48.0508 53.8301 48.4541 53.8301 48.951V53.1793C53.8301 53.6762 54.2334 54.0795 54.7303 54.0795H61.2566C61.7536 54.0795 62.1569 53.6762 62.1569 53.1793V48.951C62.1569 48.4541 61.7536 48.0508 61.2566 48.0508ZM60.3564 52.279H55.6306V49.8513H60.3564V52.279Z" fill="#92C2D6"/>
<path d="M35.3308 56.0945H28.8046C28.307 56.0945 27.9043 56.4978 27.9043 56.9947V61.223C27.9043 61.7199 28.307 62.1232 28.8046 62.1232H35.3308C35.8284 62.1232 36.2311 61.7199 36.2311 61.223V56.9947C36.2311 56.4978 35.8278 56.0945 35.3308 56.0945ZM34.4306 60.3227H29.7048V57.895H34.4306V60.3227Z" fill="#92C2D6"/>
<path d="M61.2566 56.0945H54.7303C54.2334 56.0945 53.8301 56.4978 53.8301 56.9947V61.223C53.8301 61.7199 54.2334 62.1232 54.7303 62.1232H61.2566C61.7536 62.1232 62.1569 61.7199 62.1569 61.223V56.9947C62.1569 56.4978 61.7536 56.0945 61.2566 56.0945ZM60.3564 60.3227H55.6306V57.895H60.3564V60.3227Z" fill="#92C2D6"/>
</svg>
