<svg width="90" height="90" viewBox="0 0 90 90" fill="none" xmlns="http://www.w3.org/2000/svg">
<circle cx="45" cy="45" r="45" fill="white"/>
<path d="M25.2163 71.0946L26.0524 73.4948C26.2044 73.9593 26.7365 74.1916 27.6487 74.1916H62.3108C63.223 74.1916 63.7551 73.9593 63.9071 73.4948L64.7432 71.0946C65.8834 71.0946 66.8716 70.0881 66.8716 68.9267V67.8427C66.8716 66.6814 65.8834 65.6749 64.7432 65.6749H63.6791V43.1442C63.6791 42.6797 63.375 42.37 62.9189 42.37H61.0946V27.3495C61.0946 26.885 60.7906 26.5753 60.3345 26.5753H54.9375V16.5875C54.9375 16.1229 54.6335 15.8132 54.1774 15.8132H35.7821C35.3261 15.8132 35.022 16.1229 35.022 16.5875V26.5753H29.625C29.169 26.5753 28.8649 26.885 28.8649 27.3495V42.4474H27.0406C26.5845 42.4474 26.2805 42.7571 26.2805 43.2216V65.7523H25.2163C24.0761 65.7523 23.0879 66.7588 23.0879 67.9202V68.9267C23.1639 70.0881 24.0761 71.0946 25.2163 71.0946ZM62.3868 72.6431H27.6487C27.5727 72.6431 27.4207 72.6431 27.3446 72.6431L26.8125 71.0946H63.147L62.6149 72.6431C62.5389 72.6431 62.4628 72.6431 62.3868 72.6431ZM55.7737 55.8419C55.3176 55.8419 55.0135 56.1516 55.0135 56.6161C55.0135 58.2421 53.7213 59.4809 52.201 59.4809C50.6048 59.4809 49.3885 58.1646 49.3885 56.6161C49.3885 56.1516 49.0845 55.8419 48.6284 55.8419C48.1723 55.8419 47.8683 56.1516 47.8683 56.6161C47.8683 58.2421 46.576 59.4809 45.0558 59.4809C43.5355 59.4809 42.2433 58.1646 42.2433 56.6161C42.2433 56.1516 41.9392 55.8419 41.4831 55.8419C41.0271 55.8419 40.723 56.1516 40.723 56.6161C40.723 58.2421 39.4308 59.4809 37.9105 59.4809C36.3142 59.4809 35.098 58.1646 35.098 56.6161C35.098 56.1516 34.794 55.8419 34.3379 55.8419C33.8818 55.8419 33.5777 56.1516 33.5777 56.6161C33.5777 58.2421 32.2855 59.4809 30.7652 59.4809C29.169 59.4809 27.9527 58.1646 27.9527 56.6161V52.4352C28.7129 53.132 29.7011 53.5191 30.7652 53.5191C32.2855 53.5191 33.5777 52.7449 34.3379 51.5835C35.098 52.7449 36.4663 53.5191 37.9105 53.5191C39.4308 53.5191 40.723 52.7449 41.4831 51.5835C42.2433 52.7449 43.6115 53.5191 45.0558 53.5191C46.5 53.5191 47.8683 52.7449 48.6284 51.5835C49.3885 52.7449 50.7568 53.5191 52.201 53.5191C53.7213 53.5191 55.0135 52.7449 55.7737 51.5835C56.5338 52.7449 57.902 53.5191 59.3463 53.5191C60.4105 53.5191 61.3987 53.132 62.1588 52.4352V56.6936C62.1588 58.3195 60.8666 59.5583 59.3463 59.5583C57.75 59.5583 56.5338 58.2421 56.5338 56.6936C56.5338 56.229 56.2297 55.8419 55.7737 55.8419ZM53.4933 17.3617V20.6136C53.4933 21.9298 52.4291 22.9363 51.2129 22.9363C49.9966 22.9363 48.9325 21.8524 48.9325 20.6136C48.9325 20.149 48.6284 19.8393 48.1723 19.8393C47.7162 19.8393 47.4122 20.149 47.4122 20.6136C47.4122 21.9298 46.348 22.9363 45.1318 22.9363C43.8396 22.9363 42.8514 21.8524 42.8514 20.6136C42.8514 20.149 42.5473 19.8393 42.0912 19.8393C41.6352 19.8393 41.3311 20.149 41.3311 20.6136C41.3311 21.9298 40.2669 22.9363 39.0507 22.9363C37.8345 22.9363 36.7703 21.8524 36.7703 20.6136V17.3617H53.4933ZM36.5423 23.7106C37.1504 24.2525 37.9865 24.5622 38.8227 24.5622C40.1149 24.5622 41.1791 23.9428 41.8632 22.9363C42.5473 23.8654 43.6875 24.5622 44.9037 24.5622C46.196 24.5622 47.2602 23.9428 47.9443 22.9363C48.6284 23.8654 49.7686 24.5622 50.9848 24.5622C51.821 24.5622 52.6571 24.2525 53.2652 23.788V26.6527H36.5423V23.7106ZM59.5743 28.1238V33.9307C59.5743 35.2469 58.5101 36.2534 57.2939 36.2534C56.0777 36.2534 55.0135 35.1695 55.0135 33.9307C55.0135 33.4661 54.7095 33.1564 54.2534 33.1564C53.7973 33.1564 53.4933 33.4661 53.4933 33.9307C53.4933 35.2469 52.4291 36.2534 51.2129 36.2534C49.9966 36.2534 48.9325 35.1695 48.9325 33.9307C48.9325 33.4661 48.6284 33.1564 48.1723 33.1564C47.7162 33.1564 47.4122 33.4661 47.4122 33.9307C47.4122 35.2469 46.348 36.2534 45.1318 36.2534C43.8396 36.2534 42.8514 35.1695 42.8514 33.9307C42.8514 33.4661 42.5473 33.1564 42.0912 33.1564C41.6352 33.1564 41.3311 33.4661 41.3311 33.9307C41.3311 35.2469 40.2669 36.2534 39.0507 36.2534C37.8345 36.2534 36.7703 35.1695 36.7703 33.9307C36.7703 33.4661 36.4663 33.1564 36.0102 33.1564C35.5541 33.1564 35.25 33.4661 35.25 33.9307C35.25 35.2469 34.1859 36.2534 32.9696 36.2534C31.7534 36.2534 30.6892 35.1695 30.6892 33.9307V28.2012H59.5743V28.1238ZM30.4612 36.9502C31.0693 37.4922 31.9054 37.8019 32.7416 37.8019C34.0338 37.8019 35.098 37.1825 35.7821 36.176C36.4663 37.1051 37.6065 37.8019 38.8227 37.8019C40.1149 37.8019 41.1791 37.1825 41.8632 36.176C42.5473 37.1051 43.6875 37.8019 44.9037 37.8019C46.196 37.8019 47.2602 37.1825 47.9443 36.176C48.6284 37.1051 49.7686 37.8019 50.9848 37.8019C52.201 37.8019 53.3412 37.1825 54.0254 36.176C54.7095 37.1051 55.8497 37.8019 57.0659 37.8019C57.902 37.8019 58.7382 37.4922 59.3463 37.0276V42.4474H30.4612V36.9502ZM62.2348 43.9185V49.0285C62.2348 50.6544 60.9426 51.8932 59.4223 51.8932C57.826 51.8932 56.6098 50.577 56.6098 49.0285C56.6098 48.564 56.3058 48.2543 55.8497 48.2543C55.3936 48.2543 55.0895 48.564 55.0895 49.0285C55.0895 50.6544 53.7973 51.8932 52.277 51.8932C50.6808 51.8932 49.4645 50.577 49.4645 49.0285C49.4645 48.564 49.1605 48.2543 48.7044 48.2543C48.2483 48.2543 47.9443 48.564 47.9443 49.0285C47.9443 50.6544 46.6521 51.8932 45.1318 51.8932C43.6115 51.8932 42.3193 50.577 42.3193 49.0285C42.3193 48.564 42.0152 48.2543 41.5592 48.2543C41.1031 48.2543 40.799 48.564 40.799 49.0285C40.799 50.6544 39.5068 51.8932 37.9865 51.8932C36.3902 51.8932 35.174 50.577 35.174 49.0285C35.174 48.564 34.87 48.2543 34.4139 48.2543C33.9578 48.2543 33.6538 48.564 33.6538 49.0285C33.6538 50.6544 32.3615 51.8932 30.8413 51.8932C29.245 51.8932 28.0288 50.577 28.0288 49.0285V43.9959H62.2348V43.9185ZM27.8007 59.9454C28.5609 60.6422 29.549 61.0294 30.6132 61.0294C32.1335 61.0294 33.4257 60.2551 34.1859 59.0937C34.946 60.2551 36.3142 61.0294 37.7585 61.0294C39.2788 61.0294 40.571 60.2551 41.3311 59.0937C42.0912 60.2551 43.4595 61.0294 44.9037 61.0294C46.348 61.0294 47.7162 60.2551 48.4764 59.0937C49.2365 60.2551 50.6047 61.0294 52.049 61.0294C53.5693 61.0294 54.8615 60.2551 55.6216 59.0937C56.3818 60.2551 57.75 61.0294 59.1943 61.0294C60.2585 61.0294 61.2466 60.6422 62.0068 59.9454V65.6749H27.8007V59.9454ZM24.6842 67.9202C24.6842 67.6105 24.9882 67.3008 25.2923 67.3008H64.8193C65.1233 67.3008 65.4274 67.6105 65.4274 67.9202V68.9267C65.4274 69.2364 65.1233 69.5461 64.8193 69.5461H25.2923C24.9882 69.5461 24.6842 69.2364 24.6842 68.9267V67.9202Z" fill="#E58383"/>
</svg>
