<svg width="90" height="90" viewBox="0 0 90 90" fill="none" xmlns="http://www.w3.org/2000/svg">
<g id="Group 131">
<circle id="Ellipse 18" cx="45" cy="45" r="45" fill="white"/>
<g id="Group 12">
<path id="Vector" d="M71.5199 55.3674C70.7665 51.4126 67.2825 48.5876 63.2334 48.5876H56.6419C52.5929 48.5876 49.1088 51.5067 48.3555 55.3674C47.3197 55.6499 46.5664 56.5916 46.5664 57.7215C46.5664 58.3807 46.8489 58.9457 47.2256 59.4165C46.8489 59.8873 46.5664 60.4523 46.5664 61.1114C46.5664 62.2414 47.3197 63.183 48.3555 63.4655C49.1088 67.4204 52.5929 70.2453 56.6419 70.2453H63.2334C67.2825 70.2453 70.7665 67.3263 71.5199 63.4655C72.5557 63.183 73.309 62.2414 73.309 61.1114C73.309 60.4523 73.0265 59.8873 72.6498 59.4165C73.0265 58.9457 73.309 58.3807 73.309 57.7215C73.309 56.6857 72.5557 55.6499 71.5199 55.3674ZM56.6419 50.2826H63.2334C66.3408 50.2826 68.9774 52.3542 69.8249 55.2733H69.5424L69.3541 55.085C68.8833 54.6141 68.3183 54.4258 67.7533 54.4258H67.2825C66.7175 54.4258 66.1525 54.6141 65.6817 55.085C65.5875 55.1791 65.3992 55.2733 65.305 55.2733H64.8342C64.6459 55.2733 64.5517 55.1791 64.4576 55.085C63.9867 54.6141 63.4218 54.4258 62.8568 54.4258H62.3859C61.821 54.4258 61.256 54.6141 60.7852 55.085C60.691 55.1791 60.5027 55.2733 60.4085 55.2733H59.9377C59.7494 55.2733 59.6552 55.1791 59.561 55.085C59.0902 54.6141 58.5252 54.4258 57.9602 54.4258H57.4894C56.9244 54.4258 56.3595 54.6141 55.8886 55.085C55.7945 55.1791 55.6061 55.2733 55.512 55.2733H55.0412C54.8528 55.2733 54.7587 55.1791 54.6645 55.085C54.1937 54.6141 53.6287 54.4258 53.0637 54.4258H52.5929C52.0279 54.4258 51.4629 54.6141 50.9921 55.085L50.4271 55.2733H50.1446C50.8979 52.3542 53.5345 50.2826 56.6419 50.2826ZM49.1088 56.9682H51.0863L51.7454 56.3091C51.8396 56.2149 52.0279 56.1208 52.1221 56.1208H52.5929C52.7812 56.1208 52.8754 56.2149 52.9696 56.3091C53.4404 56.7799 54.0054 56.9682 54.5703 56.9682H55.1353C55.7003 56.9682 56.2653 56.7799 56.7361 56.3091C56.8303 56.2149 57.0186 56.1208 57.1128 56.1208H57.5836C57.7719 56.1208 57.8661 56.2149 57.9602 56.3091C58.4311 56.7799 58.996 56.9682 59.561 56.9682H60.0318C60.5968 56.9682 61.1618 56.7799 61.6326 56.3091C61.7268 56.2149 61.9151 56.1208 62.0093 56.1208H62.6684C62.8568 56.1208 62.9509 56.2149 63.0451 56.3091C63.5159 56.7799 64.0809 56.9682 64.6459 56.9682H65.1167C65.6817 56.9682 66.2467 56.7799 66.7175 56.3091C66.8117 56.2149 67 56.1208 67.0941 56.1208H67.565C67.7533 56.1208 67.8475 56.2149 67.9416 56.3091L68.6008 56.9682H70.5782C71.049 56.9682 71.4257 57.3449 71.4257 57.8157C71.4257 58.2865 71.049 58.6632 70.5782 58.6632H49.1088C48.638 58.6632 48.2614 58.2865 48.2614 57.8157C48.2614 57.3449 48.638 56.9682 49.1088 56.9682ZM63.2334 68.6446H56.6419C53.5345 68.6446 50.8979 66.5729 50.0505 63.6539H69.7307C68.9774 66.5729 66.3408 68.6446 63.2334 68.6446ZM70.7665 61.9589H49.1088C48.638 61.9589 48.2614 61.5823 48.2614 61.1114C48.2614 60.6406 48.638 60.264 49.1088 60.264H70.8607C71.3315 60.264 71.7082 60.6406 71.7082 61.1114C71.614 61.5823 71.2374 61.9589 70.7665 61.9589Z" fill="#57B6BB"/>
<g id="Group">
<path id="Vector_2" d="M47.4085 63.8823H44.0186V39.5966H55.0358V47.7803C55.3182 47.7803 55.6007 47.7803 55.8832 47.7803C56.2599 47.7803 56.5424 47.7803 56.8249 47.8745V39.6908H58.614C59.0848 39.6908 59.5556 39.2199 59.5556 38.7491V30.3685C59.5556 29.8977 59.0848 29.4269 58.614 29.4269H48.1618C49.0093 28.4852 49.5743 27.1669 49.5743 25.7545C49.5743 22.7412 47.126 20.293 44.1127 20.293C42.3236 20.293 40.7229 21.1404 39.7812 22.4587C38.7454 20.5754 36.768 19.3513 34.508 19.3513C31.2123 19.3513 28.5757 21.9879 28.5757 25.2836C28.5757 26.8844 29.2349 28.2969 30.2707 29.4269H20.2893C19.8185 29.4269 19.3477 29.8977 19.3477 30.3685V38.5608C19.3477 39.0316 19.8185 39.5024 20.2893 39.5024H22.0784V64.7298C22.0784 65.2006 22.5492 65.6714 23.02 65.6714H48.0676C47.7851 65.1064 47.5968 64.5415 47.4085 63.8823ZM57.7665 31.3101V37.7133H44.0186V31.3101H57.7665ZM40.4404 25.8486C40.4404 23.777 42.0411 22.1762 44.1127 22.1762C46.1844 22.1762 47.7851 23.777 47.7851 25.8486C47.7851 27.9203 46.1844 29.521 44.1127 29.521H40.4404V25.8486ZM34.4139 21.2346C36.6738 21.2346 38.5571 23.0237 38.5571 25.3778V29.521H34.4139C32.1539 29.521 30.2707 27.7319 30.2707 25.3778C30.3648 23.1179 32.1539 21.2346 34.4139 21.2346ZM34.8847 63.8823H23.9617V39.5966H34.9789V63.8823H34.8847ZM34.8847 37.7133H21.1368V31.3101H34.8847V37.7133ZM42.2295 63.8823H36.768V39.5966H42.2295V63.8823ZM42.2295 37.7133H36.768V31.3101H42.2295V37.7133Z" fill="#57B6BB"/>
</g>
</g>
</g>
</svg>
