<svg width="90" height="90" viewBox="0 0 90 90" fill="none" xmlns="http://www.w3.org/2000/svg">
<circle cx="45" cy="45" r="45" fill="white"/>
<path d="M67.542 37.2754L62.9739 30.8916V23.3364C62.9739 21.8655 61.8034 20.6758 60.3551 20.6758H29.6797C28.2319 20.6758 27.0609 21.8655 27.0609 23.3364V30.8916L22.4938 37.2754C19.1696 41.9169 20.5946 45.7543 25.565 46.3988V66.6638C25.565 68.1347 26.736 69.3244 28.1838 69.3244H61.852C63.2998 69.3244 64.4708 68.1347 64.4708 66.6638V46.3988C69.4403 45.7543 70.8657 41.9164 67.542 37.2754ZM28.932 23.3364C28.932 22.9172 29.2672 22.5762 29.6802 22.5762H60.3556C60.7686 22.5762 61.1038 22.9172 61.1038 23.3364V29.7726H28.932V23.3364ZM39.0319 31.673L35.5944 44.5953H29.2686L36.4876 31.673H39.0319ZM40.9701 31.673H43.8433V44.5953H37.5321L40.9701 31.673ZM45.7133 31.673H48.5865L52.024 44.5953H45.7133V31.673ZM53.9622 44.5953L50.5247 31.673H53.0685L60.2875 44.5953H53.9622ZM22.7784 42.9331C22.2491 41.8769 22.6967 40.2221 24.0068 38.3929L28.8147 31.673H34.3368L27.1179 44.5953H27.1135C24.8878 44.5953 23.3077 43.9893 22.7784 42.9331ZM50.5767 67.424H40.1022V51.461H50.5767V67.424ZM61.852 67.424H52.4468V50.7008C52.4468 50.0702 51.9457 49.5606 51.324 49.5606H39.354C38.7327 49.5606 38.2317 50.0697 38.2317 50.7008V67.424H28.1833C27.7707 67.424 27.4351 67.0834 27.4351 66.6638V46.4957H62.5998V66.6638C62.6003 67.0834 62.2646 67.424 61.852 67.424ZM67.2574 42.9331C66.7276 43.9893 65.148 44.5953 62.9213 44.5953H62.4387L55.2193 31.673H61.2206L66.0295 38.3934C67.3391 40.2221 67.7867 41.8769 67.2574 42.9331Z" fill="#FBBC8F"/>
</svg>
