<svg width="100" height="100" viewBox="0 0 100 100" fill="none" xmlns="http://www.w3.org/2000/svg">
<circle cx="50" cy="50" r="50" fill="white"/>
<path d="M77.5619 22.4383V77.5619H22.4383V22.4383H77.5619ZM77.5619 20.9092H22.4383C21.5973 20.9092 20.9092 21.5973 20.9092 22.4383V77.5619C20.9092 78.4029 21.5973 79.091 22.4383 79.091H77.5619C78.4029 79.091 79.091 78.4029 79.091 77.5619V22.4383C79.091 21.5973 78.4029 20.9092 77.5619 20.9092Z" fill="#F4976E"/>
<path d="M50.8028 37.8056C50.8028 37.1939 50.5735 36.6587 50.1912 36.2765C50.5735 35.8942 50.8028 35.359 50.8028 34.7474C50.8028 33.677 50.1147 32.836 49.1973 32.5302C48.4327 28.9369 45.2981 26.3374 41.5518 26.3374H35.5119C31.7657 26.3374 28.631 29.0133 27.9429 32.5302C27.0255 32.836 26.3374 33.677 26.3374 34.7474C26.3374 35.359 26.5668 35.8942 26.949 36.2765C26.5668 36.6587 26.3374 37.1939 26.3374 37.8056C26.3374 38.8759 27.0255 39.7169 27.9429 40.0227C28.631 43.6161 31.8421 46.2156 35.5119 46.2156H41.5518C45.2216 46.2156 48.4327 43.5396 49.1208 40.0227C50.1147 39.7169 50.8028 38.7995 50.8028 37.8056ZM35.5119 27.8665H41.5518C44.3806 27.8665 46.8272 29.7779 47.5153 32.4538H47.2095L47.0566 32.3008C46.6743 31.9186 46.1391 31.6892 45.6039 31.6892H45.1452C44.61 31.6892 44.0748 31.9186 43.6926 32.3008C43.6161 32.3773 43.4632 32.4538 43.3103 32.4538H42.8516C42.6987 32.4538 42.5457 32.3773 42.4693 32.3008C42.087 31.9186 41.5518 31.6892 41.0167 31.6892H40.5579C40.0227 31.6892 39.4876 31.9186 39.1053 32.3008C39.0288 32.3773 38.8759 32.4538 38.723 32.4538H38.2643C38.1114 32.4538 37.9585 32.3773 37.882 32.3008C37.4997 31.9186 36.9646 31.6892 36.4294 31.6892H35.9707C35.4355 31.6892 34.9003 31.9186 34.518 32.3008C34.4416 32.3773 34.2887 32.4538 34.1358 32.4538H33.677C33.5241 32.4538 33.3712 32.3773 33.2948 32.3008C32.9125 31.9186 32.3773 31.6892 31.8421 31.6892H31.3834C30.8482 31.6892 30.313 31.9186 29.9308 32.3008L29.7779 32.4538H29.472C30.2366 29.7779 32.6831 27.8665 35.5119 27.8665ZM28.631 33.9828H30.4659L31.0776 33.3712C31.154 33.2948 31.3069 33.2183 31.4598 33.2183H31.9186C32.0715 33.2183 32.2244 33.2948 32.3008 33.3712C32.6831 33.7535 33.2183 33.9828 33.7535 33.9828H34.2122C34.7474 33.9828 35.2826 33.7535 35.6648 33.3712C35.7413 33.2948 35.8942 33.2183 36.0471 33.2183H36.5058C36.6587 33.2183 36.8117 33.2948 36.8881 33.3712C37.2704 33.7535 37.8056 33.9828 38.3407 33.9828H38.7995C39.3347 33.9828 39.8698 33.7535 40.2521 33.3712C40.3286 33.2948 40.4815 33.2183 40.6344 33.2183H41.0931C41.246 33.2183 41.3989 33.2948 41.4754 33.3712C41.8577 33.7535 42.3928 33.9828 42.928 33.9828H43.3867C43.9219 33.9828 44.4571 33.7535 44.8394 33.3712C44.9158 33.2948 45.0687 33.2183 45.2216 33.2183H45.6804C45.8333 33.2183 45.9862 33.2948 46.0626 33.3712L46.6743 33.9828H48.5092C48.9679 33.9828 49.2737 34.2887 49.2737 34.7474C49.2737 35.2061 48.9679 35.5119 48.5092 35.5119H28.631C28.1723 35.5119 27.8665 35.2061 27.8665 34.7474C27.8665 34.2887 28.1723 33.9828 28.631 33.9828ZM28.631 37.041H48.5092C48.9679 37.041 49.2737 37.3468 49.2737 37.8056C49.2737 38.2643 48.9679 38.5701 48.5092 38.5701H28.631C28.1723 38.5701 27.8665 38.2643 27.8665 37.8056C27.8665 37.3468 28.1723 37.041 28.631 37.041ZM41.5518 44.6865H35.5119C32.6831 44.6865 30.2366 42.7751 29.5485 40.0992H47.5917C46.8272 42.7751 44.3806 44.6865 41.5518 44.6865Z" fill="#F4976E"/>
<path d="M72.0571 60.0536C71.369 56.4603 68.1579 53.8608 64.4881 53.8608H58.4482C54.7784 53.8608 51.5673 56.5367 50.8792 60.0536C49.9618 60.3595 49.2737 61.2005 49.2737 62.2708C49.2737 62.8825 49.503 63.4176 49.8853 63.7999C49.503 64.1822 49.2737 64.7174 49.2737 65.329C49.2737 66.3994 49.9618 67.2404 50.8792 67.5462C51.5673 71.1395 54.7784 73.739 58.4482 73.739H64.4881C68.1579 73.739 71.369 71.0631 72.0571 67.5462C72.9746 67.2404 73.6626 66.3994 73.6626 65.329C73.6626 64.7174 73.4333 64.1822 73.051 63.7999C73.4333 63.4176 73.6626 62.8825 73.6626 62.2708C73.7391 61.2005 73.051 60.3595 72.0571 60.0536ZM58.4482 55.3899H64.4881C67.3169 55.3899 69.7635 57.3013 70.4516 59.9772H70.1457L69.9928 59.8243C69.6106 59.442 69.0754 59.2126 68.5402 59.2126H68.0815C67.5463 59.2126 67.0111 59.442 66.6288 59.8243C66.5524 59.9007 66.3995 59.9772 66.2466 59.9772H65.7878C65.6349 59.9772 65.482 59.9007 65.4056 59.8243C65.0233 59.442 64.4881 59.2126 63.9529 59.2126H63.4942C62.959 59.2126 62.4238 59.442 62.0416 59.8243C61.9651 59.9007 61.8122 59.9772 61.6593 59.9772H61.2006C61.0477 59.9772 60.8948 59.9007 60.8183 59.8243C60.436 59.442 59.9008 59.2126 59.3657 59.2126H58.9069C58.3718 59.2126 57.8366 59.442 57.4543 59.8243C57.3779 59.9007 57.2249 59.9772 57.072 59.9772H56.6133C56.4604 59.9772 56.3075 59.9007 56.231 59.8243C55.8488 59.442 55.3136 59.2126 54.7784 59.2126H54.3197C53.7845 59.2126 53.2493 59.442 52.867 59.8243L52.7141 59.9772H52.4083C53.1729 57.3013 55.6194 55.3899 58.4482 55.3899ZM51.5673 61.5063H53.4022L54.0139 60.8946C54.0903 60.8182 54.2432 60.7417 54.3961 60.7417H54.8549C55.0078 60.7417 55.1607 60.8182 55.2371 60.8946C55.6194 61.2769 56.1546 61.5063 56.6898 61.5063H57.1485C57.6837 61.5063 58.2189 61.2769 58.6011 60.8946C58.6776 60.8182 58.8305 60.7417 58.9834 60.7417H59.4421C59.595 60.7417 59.7479 60.8182 59.8244 60.8946C60.2067 61.2769 60.7418 61.5063 61.277 61.5063H61.7358C62.2709 61.5063 62.8061 61.2769 63.1884 60.8946C63.2648 60.8182 63.4178 60.7417 63.5707 60.7417H64.0294C64.1823 60.7417 64.3352 60.8182 64.4117 60.8946C64.7939 61.2769 65.3291 61.5063 65.8643 61.5063H66.323C66.8582 61.5063 67.3934 61.2769 67.7757 60.8946C67.8521 60.8182 68.005 60.7417 68.1579 60.7417H68.6167C68.7696 60.7417 68.9225 60.8182 68.9989 60.8946L69.6106 61.5063H71.4455C71.9042 61.5063 72.21 61.8121 72.21 62.2708C72.21 62.7296 71.9042 63.0354 71.4455 63.0354H51.5673C51.1086 63.0354 50.8028 62.7296 50.8028 62.2708C50.8028 61.8121 51.1086 61.5063 51.5673 61.5063ZM64.4881 72.2099H58.4482C55.6194 72.2099 53.1729 70.2985 52.4848 67.6226H70.528C69.7635 70.2985 67.3169 72.2099 64.4881 72.2099ZM71.4455 66.0935H51.5673C51.1086 66.0935 50.8028 65.7877 50.8028 65.329C50.8028 64.8703 51.1086 64.5645 51.5673 64.5645H71.4455C71.9042 64.5645 72.21 64.8703 72.21 65.329C72.21 65.7877 71.8277 66.0935 71.4455 66.0935Z" fill="#F4976E"/>
<path d="M39.9463 50.8795C39.6405 49.962 38.7995 49.2739 37.7292 49.2739C37.1175 49.2739 36.5823 49.5033 36.2001 49.8856C35.8178 49.5033 35.2826 49.2739 34.671 49.2739C33.6006 49.2739 32.7596 49.962 32.4538 50.8795C28.8604 51.5676 26.261 54.7786 26.261 58.4485V64.4884C26.261 68.1582 28.9369 71.3693 32.4538 72.0573C32.7596 72.9748 33.6006 73.6629 34.671 73.6629C35.2826 73.6629 35.8178 73.4335 36.2001 73.0513C36.5823 73.4335 37.1175 73.6629 37.7292 73.6629C38.7995 73.6629 39.6405 72.9748 39.9463 72.0573C43.5397 71.3693 46.1391 68.1582 46.1391 64.4884V58.4485C46.2156 54.7786 43.5397 51.5676 39.9463 50.8795ZM27.8665 64.4884V58.4485C27.8665 55.6196 29.7779 53.1731 32.4538 52.485V52.7908L32.3009 52.9437C31.9186 53.326 31.6893 53.8612 31.6893 54.3964V54.8551C31.6893 55.3903 31.9186 55.9255 32.3009 56.3077C32.3773 56.3842 32.4538 56.5371 32.4538 56.69V57.1487C32.4538 57.3016 32.3773 57.4546 32.3009 57.531C31.9186 57.9133 31.6893 58.4485 31.6893 58.9836V59.4424C31.6893 59.9775 31.9186 60.5127 32.3009 60.895C32.3773 60.9715 32.4538 61.1244 32.4538 61.2773V61.736C32.4538 61.8889 32.3773 62.0418 32.3009 62.1183C31.9186 62.5005 31.6893 63.0357 31.6893 63.5709V64.0296C31.6893 64.5648 31.9186 65.1 32.3009 65.4823C32.3773 65.5587 32.4538 65.7116 32.4538 65.8645V66.3233C32.4538 66.4762 32.3773 66.6291 32.3009 66.7055C31.9186 67.0878 31.6893 67.623 31.6893 68.1582V68.6169C31.6893 69.1521 31.9186 69.6873 32.3009 70.0695L32.4538 70.2224V70.5283C29.7779 69.7637 27.8665 67.3172 27.8665 64.4884ZM34.7474 72.2103C34.2887 72.2103 33.9829 71.9044 33.9829 71.4457V69.6108L33.3712 68.9992C33.2948 68.9227 33.2183 68.7698 33.2183 68.6169V68.1582C33.2183 68.0053 33.2948 67.8524 33.3712 67.7759C33.7535 67.3936 33.9829 66.8584 33.9829 66.3233V65.8645C33.9829 65.3294 33.7535 64.7942 33.3712 64.4119C33.2948 64.3355 33.2183 64.1825 33.2183 64.0296V63.5709C33.2183 63.418 33.2948 63.2651 33.3712 63.1886C33.7535 62.8064 33.9829 62.2712 33.9829 61.736V61.2773C33.9829 60.7421 33.7535 60.2069 33.3712 59.8246C33.2948 59.7482 33.2183 59.5953 33.2183 59.4424V58.9836C33.2183 58.8307 33.2948 58.6778 33.3712 58.6014C33.7535 58.2191 33.9829 57.6839 33.9829 57.1487V56.69C33.9829 56.1548 33.7535 55.6196 33.3712 55.2374C33.2948 55.1609 33.2183 55.008 33.2183 54.8551V54.3964C33.2183 54.2435 33.2948 54.0906 33.3712 54.0141L33.9829 53.4025V51.5676C33.9829 51.1088 34.2887 50.803 34.7474 50.803C35.2062 50.803 35.512 51.1088 35.512 51.5676V71.4457C35.512 71.828 35.1297 72.2103 34.7474 72.2103ZM38.5702 71.4457C38.5702 71.9044 38.2643 72.2103 37.8056 72.2103C37.3469 72.2103 37.0411 71.9044 37.0411 71.4457V51.5676C37.0411 51.1088 37.3469 50.803 37.8056 50.803C38.2643 50.803 38.5702 51.1088 38.5702 51.5676V71.4457ZM44.6865 64.4884C44.6865 67.3172 42.7751 69.7637 40.0992 70.4518V52.485C42.7751 53.1731 44.6865 55.6196 44.6865 58.4485V64.4884Z" fill="#F4976E"/>
<path d="M67.4698 27.9429C67.164 27.0255 66.323 26.3374 65.2526 26.3374C64.641 26.3374 64.1058 26.5668 63.7235 26.949C63.3412 26.5668 62.806 26.3374 62.1944 26.3374C61.124 26.3374 60.283 27.0255 59.9772 27.9429C56.3839 28.631 53.7844 31.8421 53.7844 35.5119V41.5518C53.7844 45.2216 56.4603 48.4327 59.9772 49.1208C60.283 50.0383 61.124 50.7264 62.1944 50.7264C62.806 50.7264 63.3412 50.497 63.7235 50.1147C64.1058 50.497 64.641 50.7264 65.2526 50.7264C66.323 50.7264 67.164 50.0383 67.4698 49.1208C71.0631 48.4327 73.6626 45.2216 73.6626 41.5518V35.5119C73.739 31.8421 71.0631 28.631 67.4698 27.9429ZM55.39 41.5518V35.5119C55.39 32.6831 57.3013 30.2366 59.9772 29.5485V47.5917C57.3013 46.8272 55.39 44.3806 55.39 41.5518ZM62.2709 49.2737C61.8121 49.2737 61.5063 48.9679 61.5063 48.5092V28.631C61.5063 28.1723 61.8121 27.8665 62.2709 27.8665C62.7296 27.8665 63.0354 28.1723 63.0354 28.631V48.5092C63.0354 48.8915 62.6531 49.2737 62.2709 49.2737ZM66.0936 46.6743V48.5092C66.0936 48.9679 65.7878 49.2737 65.329 49.2737C64.8703 49.2737 64.5645 48.9679 64.5645 48.5092V28.631C64.5645 28.1723 64.8703 27.8665 65.329 27.8665C65.7878 27.8665 66.0936 28.1723 66.0936 28.631V30.4659L66.7052 31.0776C66.7817 31.154 66.8581 31.3069 66.8581 31.4598V31.9186C66.8581 32.0715 66.7817 32.2244 66.7052 32.3008C66.323 32.6831 66.0936 33.2183 66.0936 33.7535V34.2122C66.0936 34.7474 66.323 35.2826 66.7052 35.6648C66.7817 35.7413 66.8581 35.8942 66.8581 36.0471V36.5058C66.8581 36.6587 66.7817 36.8117 66.7052 36.8881C66.323 37.2704 66.0936 37.8056 66.0936 38.3407V38.7995C66.0936 39.3347 66.323 39.8698 66.7052 40.2521C66.7817 40.3286 66.8581 40.4815 66.8581 40.6344V41.0931C66.8581 41.246 66.7817 41.3989 66.7052 41.4754C66.323 41.8576 66.0936 42.3928 66.0936 42.928V43.3867C66.0936 43.9219 66.323 44.4571 66.7052 44.8394C66.7817 44.9158 66.8581 45.0687 66.8581 45.2216V45.6804C66.8581 45.8333 66.7817 45.9862 66.7052 46.0626L66.0936 46.6743ZM72.2099 41.5518C72.2099 44.3806 70.2986 46.8272 67.6227 47.5153V47.2095L67.7756 47.0566C68.1579 46.6743 68.3872 46.1391 68.3872 45.6039V45.1452C68.3872 44.61 68.1579 44.0748 67.7756 43.6926C67.6991 43.6161 67.6227 43.4632 67.6227 43.3103V42.8516C67.6227 42.6987 67.6991 42.5457 67.7756 42.4693C68.1579 42.087 68.3872 41.5518 68.3872 41.0167V40.5579C68.3872 40.0227 68.1579 39.4876 67.7756 39.1053C67.6991 39.0288 67.6227 38.8759 67.6227 38.723V38.2643C67.6227 38.1114 67.6991 37.9585 67.7756 37.882C68.1579 37.4997 68.3872 36.9646 68.3872 36.4294V35.9707C68.3872 35.4355 68.1579 34.9003 67.7756 34.518C67.6991 34.4416 67.6227 34.2887 67.6227 34.1358V33.677C67.6227 33.5241 67.6991 33.3712 67.7756 33.2948C68.1579 32.9125 68.3872 32.3773 68.3872 31.8421V31.3834C68.3872 30.8482 68.1579 30.313 67.7756 29.9308L67.6227 29.7779V29.472C70.2986 30.1601 72.2099 32.6067 72.2099 35.4355V41.5518Z" fill="#F4976E"/>
</svg>
