<svg width="100" height="100" viewBox="0 0 100 100" fill="none" xmlns="http://www.w3.org/2000/svg">
<circle cx="50" cy="50" r="50" fill="white"/>
<path d="M70.4906 38.2793C71.154 33.1774 68.9278 28.5239 64.5422 25.8361C64.1397 25.5855 63.7206 25.3464 63.2961 25.1147C56.5501 21.4329 48.4967 20.7068 41.201 23.1219C33.8064 25.5694 27.9296 30.8335 24.6528 37.9438C18.8342 50.581 23.3364 65.6928 35.1251 73.0945C35.6227 73.4074 36.127 73.7033 36.633 73.9794C36.9978 74.1785 37.3635 74.3665 37.7271 74.5443C42.3498 76.8093 47.6587 76.1742 51.5805 72.8867C55.7025 69.431 57.3275 64.0306 55.8206 58.7918C55.8206 58.7918 55.8206 58.7918 55.8202 58.7903C55.1636 56.5159 55.2787 54.5415 56.162 52.9231C57.0426 51.3097 58.6392 50.1477 60.9088 49.4691C66.1238 47.9067 69.7953 43.6194 70.4906 38.2793ZM54.1261 51.8119C52.9558 53.9562 52.7712 56.592 53.5924 59.4349C54.841 63.778 53.4988 68.2515 50.0906 71.1084C46.8324 73.8395 42.5925 74.3458 38.7457 72.4605C37.9478 72.0714 37.1424 71.6228 36.3594 71.1309C25.554 64.3459 21.4275 50.4959 26.7602 38.9146C29.7644 32.3936 35.1521 27.5669 41.9297 25.3233C48.6176 23.1094 56.0006 23.7753 62.1849 27.1506C62.5697 27.3606 62.9501 27.576 63.3234 27.8094C66.9135 30.0088 68.733 33.812 68.1898 37.9797C67.6157 42.4002 64.5703 45.9518 60.2442 47.2472C57.4091 48.0945 55.2937 49.6726 54.1261 51.8119Z" fill="#9FCE9E"/>
<path d="M61.3903 28.6087C59.1636 27.3934 56.3622 28.2165 55.1469 30.4433C53.9315 32.6701 54.7552 35.4705 56.982 36.6858C59.2088 37.9011 62.0086 37.0784 63.2239 34.8517C64.4393 32.6249 63.6171 29.8241 61.3903 28.6087ZM58.0932 34.6499C56.9887 34.0471 56.58 32.6589 57.1828 31.5545C57.7856 30.4501 59.1747 30.0419 60.2792 30.6447C61.3836 31.2474 61.7908 32.636 61.188 33.7405C60.5852 34.8449 59.1976 35.2527 58.0932 34.6499Z" fill="#9FCE9E"/>
<path d="M42.946 62.4032C40.7192 61.1878 37.9184 62.01 36.7031 64.2368C35.4877 66.4635 36.3109 69.2649 38.5377 70.4802C40.7645 71.6956 43.5648 70.8719 44.7801 68.6451C45.9955 66.4183 45.1728 63.6185 42.946 62.4032ZM39.6488 68.4443C38.5444 67.8415 38.1362 66.4524 38.739 65.3479C39.3418 64.2435 40.7304 63.8363 41.8348 64.4391C42.9393 65.0419 43.347 66.4295 42.7442 67.5339C42.1414 68.6384 40.7533 69.0471 39.6488 68.4443Z" fill="#9FCE9E"/>
<path d="M37.1053 42.526C38.3206 40.2992 37.4985 37.4984 35.2717 36.2831C33.0449 35.0677 30.2436 35.8909 29.0282 38.1176C27.8129 40.3444 28.6366 43.1448 30.8634 44.3601C33.0901 45.5755 35.8899 44.7528 37.1053 42.526ZM31.9745 42.3242C30.8701 41.7214 30.4614 40.3333 31.0641 39.2288C31.6669 38.1244 33.0561 37.7162 34.1605 38.319C35.265 38.9218 35.6722 40.3104 35.0694 41.4148C34.4666 42.5192 33.079 42.927 31.9745 42.3242Z" fill="#9FCE9E"/>
<path d="M30.1975 50.5566C27.7639 51.2734 26.3657 53.8352 27.0805 56.2677C27.4263 57.4473 28.2123 58.4208 29.2909 59.0095C30.3695 59.5981 31.613 59.7311 32.7916 59.3847C33.9702 59.0384 34.9442 58.2539 35.5328 57.1753C36.1215 56.0967 36.256 54.8528 35.9086 53.6736C35.1934 51.2396 32.6316 49.8414 30.1975 50.5566ZM32.1378 57.1596C30.9669 57.5037 29.6497 56.7848 29.3056 55.6139C28.9511 54.4076 29.6445 53.1371 30.8514 52.7817C32.0581 52.4288 33.3276 53.1216 33.6836 54.3275C33.8556 54.9129 33.7888 55.5293 33.4969 56.0642C33.205 56.599 32.7233 56.9876 32.1378 57.1596Z" fill="#9FCE9E"/>
<path d="M43.239 26.6614C40.8065 27.3762 39.4083 29.938 40.122 32.3725C40.4796 33.5896 41.2996 34.548 42.3335 35.1123C43.3674 35.6766 44.6161 35.8472 45.8331 35.4896C47.0127 35.1438 47.9862 34.3578 48.5749 33.2792C49.1636 32.2006 49.2975 30.9576 48.9502 29.7785C48.2586 27.4192 45.5974 25.9668 43.239 26.6614ZM45.1793 33.2645C43.9715 33.6194 42.702 32.9265 42.3471 31.7187C41.9932 30.5114 42.6866 29.241 43.8929 28.8865C44.4783 28.7145 45.0948 28.7813 45.6296 29.0732C46.1644 29.3651 46.553 29.8468 46.7251 30.4323C46.8971 31.0178 46.8309 31.6332 46.539 32.168C46.2471 32.7028 45.7648 33.0924 45.1793 33.2645Z" fill="#9FCE9E"/>
<path d="M75.5928 54.2464L77.2288 48.5875C78.3049 48.189 79.2547 47.4354 79.8461 46.3518C80.9486 44.3318 80.5738 38.1535 80.4873 36.9361C80.4326 36.1475 79.4652 35.6221 78.7735 36.0007C77.7023 36.5876 72.3049 39.6142 71.2024 41.6342C70.6109 42.718 70.4907 43.9246 70.7377 45.0453L66.8636 49.4821C66.8312 49.5194 66.8223 49.5689 66.7952 49.6093C66.7605 49.6604 66.7119 49.6998 66.6855 49.7565L55.3584 74.1011C54.6502 75.6589 55.2729 77.5225 56.776 78.3428C58.28 79.1637 60.1843 78.6793 61.1172 77.2325L75.4584 54.5446C75.4918 54.4917 75.4987 54.4295 75.5229 54.3727C75.5422 54.3281 75.579 54.2939 75.5928 54.2464ZM59.1627 75.9839C58.8896 76.4063 58.3295 76.5484 57.8871 76.3069C57.4448 76.0655 57.2622 75.5182 57.4659 75.0694L68.2672 51.8558L72.8371 54.35L59.1627 75.9839ZM69.5613 49.9198L71.8754 47.2698C72.2389 47.6756 72.6599 48.0396 73.1647 48.3151C73.6697 48.5907 74.2041 48.748 74.7423 48.8342L73.7654 52.2143L69.5613 49.9198ZM74.2758 46.2791C73.0153 45.5912 72.5503 44.0059 73.2383 42.7454C73.6935 41.9113 76.0905 40.2688 78.2675 38.9656C78.3501 41.5021 78.2659 44.4056 77.8102 45.2406C77.1222 46.5011 75.5364 46.9671 74.2758 46.2791Z" fill="#9FCE9E"/>
</svg>
