<svg width="100" height="100" viewBox="0 0 100 100" fill="none" xmlns="http://www.w3.org/2000/svg">
<circle cx="50" cy="50" r="50" fill="white"/>
<path d="M28.3333 78.6048L29.25 81.2361C29.4167 81.7454 30 82 31 82H69C70 82 70.5833 81.7454 70.75 81.2361L71.6667 78.6048C72.9167 78.6048 74 77.5013 74 76.2281V75.0398C74 73.7666 72.9167 72.6631 71.6667 72.6631H70.5V47.9629C70.5 47.4536 70.1667 47.1141 69.6667 47.1141H67.6667V30.6472C67.6667 30.1379 67.3333 29.7984 66.8333 29.7984H60.9167V18.8488C60.9167 18.3395 60.5833 18 60.0833 18H39.9167C39.4167 18 39.0833 18.3395 39.0833 18.8488V29.7984H33.1667C32.6667 29.7984 32.3333 30.1379 32.3333 30.6472V47.1989H30.3333C29.8333 47.1989 29.5 47.5385 29.5 48.0477V72.748H28.3333C27.0833 72.748 26 73.8515 26 75.1247V76.2281C26.0833 77.5013 27.0833 78.6048 28.3333 78.6048ZM69.0833 80.3024H31C30.9167 80.3024 30.75 80.3024 30.6667 80.3024L30.0833 78.6048H69.9167L69.3333 80.3024C69.25 80.3024 69.1667 80.3024 69.0833 80.3024ZM61.8333 61.8833C61.3333 61.8833 61 62.2228 61 62.7321C61 64.5146 59.5833 65.8727 57.9167 65.8727C56.1667 65.8727 54.8333 64.4297 54.8333 62.7321C54.8333 62.2228 54.5 61.8833 54 61.8833C53.5 61.8833 53.1667 62.2228 53.1667 62.7321C53.1667 64.5146 51.75 65.8727 50.0833 65.8727C48.4167 65.8727 47 64.4297 47 62.7321C47 62.2228 46.6667 61.8833 46.1667 61.8833C45.6667 61.8833 45.3333 62.2228 45.3333 62.7321C45.3333 64.5146 43.9167 65.8727 42.25 65.8727C40.5 65.8727 39.1667 64.4297 39.1667 62.7321C39.1667 62.2228 38.8333 61.8833 38.3333 61.8833C37.8333 61.8833 37.5 62.2228 37.5 62.7321C37.5 64.5146 36.0833 65.8727 34.4167 65.8727C32.6667 65.8727 31.3333 64.4297 31.3333 62.7321V58.1485C32.1667 58.9125 33.25 59.3369 34.4167 59.3369C36.0833 59.3369 37.5 58.4881 38.3333 57.2148C39.1667 58.4881 40.6667 59.3369 42.25 59.3369C43.9167 59.3369 45.3333 58.4881 46.1667 57.2148C47 58.4881 48.5 59.3369 50.0833 59.3369C51.6667 59.3369 53.1667 58.4881 54 57.2148C54.8333 58.4881 56.3333 59.3369 57.9167 59.3369C59.5833 59.3369 61 58.4881 61.8333 57.2148C62.6667 58.4881 64.1667 59.3369 65.75 59.3369C66.9167 59.3369 68 58.9125 68.8333 58.1485V62.817C68.8333 64.5995 67.4167 65.9576 65.75 65.9576C64 65.9576 62.6667 64.5146 62.6667 62.817C62.6667 62.3077 62.3333 61.8833 61.8333 61.8833ZM59.3333 19.6976V23.2626C59.3333 24.7056 58.1667 25.809 56.8333 25.809C55.5 25.809 54.3333 24.6207 54.3333 23.2626C54.3333 22.7533 54 22.4138 53.5 22.4138C53 22.4138 52.6667 22.7533 52.6667 23.2626C52.6667 24.7056 51.5 25.809 50.1667 25.809C48.75 25.809 47.6667 24.6207 47.6667 23.2626C47.6667 22.7533 47.3333 22.4138 46.8333 22.4138C46.3333 22.4138 46 22.7533 46 23.2626C46 24.7056 44.8333 25.809 43.5 25.809C42.1667 25.809 41 24.6207 41 23.2626V19.6976H59.3333ZM40.75 26.6578C41.4167 27.252 42.3333 27.5915 43.25 27.5915C44.6667 27.5915 45.8333 26.9125 46.5833 25.809C47.3333 26.8276 48.5833 27.5915 49.9167 27.5915C51.3333 27.5915 52.5 26.9125 53.25 25.809C54 26.8276 55.25 27.5915 56.5833 27.5915C57.5 27.5915 58.4167 27.252 59.0833 26.7427V29.8833H40.75V26.6578ZM66 31.496V37.8621C66 39.305 64.8333 40.4085 63.5 40.4085C62.1667 40.4085 61 39.2202 61 37.8621C61 37.3528 60.6667 37.0133 60.1667 37.0133C59.6667 37.0133 59.3333 37.3528 59.3333 37.8621C59.3333 39.305 58.1667 40.4085 56.8333 40.4085C55.5 40.4085 54.3333 39.2202 54.3333 37.8621C54.3333 37.3528 54 37.0133 53.5 37.0133C53 37.0133 52.6667 37.3528 52.6667 37.8621C52.6667 39.305 51.5 40.4085 50.1667 40.4085C48.75 40.4085 47.6667 39.2202 47.6667 37.8621C47.6667 37.3528 47.3333 37.0133 46.8333 37.0133C46.3333 37.0133 46 37.3528 46 37.8621C46 39.305 44.8333 40.4085 43.5 40.4085C42.1667 40.4085 41 39.2202 41 37.8621C41 37.3528 40.6667 37.0133 40.1667 37.0133C39.6667 37.0133 39.3333 37.3528 39.3333 37.8621C39.3333 39.305 38.1667 40.4085 36.8333 40.4085C35.5 40.4085 34.3333 39.2202 34.3333 37.8621V31.5809H66V31.496ZM34.0833 41.1724C34.75 41.7666 35.6667 42.1061 36.5833 42.1061C38 42.1061 39.1667 41.4271 39.9167 40.3236C40.6667 41.3422 41.9167 42.1061 43.25 42.1061C44.6667 42.1061 45.8333 41.4271 46.5833 40.3236C47.3333 41.3422 48.5833 42.1061 49.9167 42.1061C51.3333 42.1061 52.5 41.4271 53.25 40.3236C54 41.3422 55.25 42.1061 56.5833 42.1061C57.9167 42.1061 59.1667 41.4271 59.9167 40.3236C60.6667 41.3422 61.9167 42.1061 63.25 42.1061C64.1667 42.1061 65.0833 41.7666 65.75 41.2573V47.1989H34.0833V41.1724ZM68.9167 48.8117V54.4138C68.9167 56.1963 67.5 57.5544 65.8333 57.5544C64.0833 57.5544 62.75 56.1114 62.75 54.4138C62.75 53.9045 62.4167 53.565 61.9167 53.565C61.4167 53.565 61.0833 53.9045 61.0833 54.4138C61.0833 56.1963 59.6667 57.5544 58 57.5544C56.25 57.5544 54.9167 56.1114 54.9167 54.4138C54.9167 53.9045 54.5833 53.565 54.0833 53.565C53.5833 53.565 53.25 53.9045 53.25 54.4138C53.25 56.1963 51.8333 57.5544 50.1667 57.5544C48.5 57.5544 47.0833 56.1114 47.0833 54.4138C47.0833 53.9045 46.75 53.565 46.25 53.565C45.75 53.565 45.4167 53.9045 45.4167 54.4138C45.4167 56.1963 44 57.5544 42.3333 57.5544C40.5833 57.5544 39.25 56.1114 39.25 54.4138C39.25 53.9045 38.9167 53.565 38.4167 53.565C37.9167 53.565 37.5833 53.9045 37.5833 54.4138C37.5833 56.1963 36.1667 57.5544 34.5 57.5544C32.75 57.5544 31.4167 56.1114 31.4167 54.4138V48.8966H68.9167V48.8117ZM31.1667 66.382C32 67.1459 33.0833 67.5703 34.25 67.5703C35.9167 67.5703 37.3333 66.7215 38.1667 65.4483C39 66.7215 40.5 67.5703 42.0833 67.5703C43.75 67.5703 45.1667 66.7215 46 65.4483C46.8333 66.7215 48.3333 67.5703 49.9167 67.5703C51.5 67.5703 53 66.7215 53.8333 65.4483C54.6667 66.7215 56.1667 67.5703 57.75 67.5703C59.4167 67.5703 60.8333 66.7215 61.6667 65.4483C62.5 66.7215 64 67.5703 65.5833 67.5703C66.75 67.5703 67.8333 67.1459 68.6667 66.382V72.6631H31.1667V66.382ZM27.75 75.1247C27.75 74.7851 28.0833 74.4456 28.4167 74.4456H71.75C72.0833 74.4456 72.4167 74.7851 72.4167 75.1247V76.2281C72.4167 76.5676 72.0833 76.9072 71.75 76.9072H28.4167C28.0833 76.9072 27.75 76.5676 27.75 76.2281V75.1247Z" fill="#E58383"/>
</svg>
