<svg width="100" height="100" viewBox="0 0 100 100" fill="none" xmlns="http://www.w3.org/2000/svg">
<circle cx="50" cy="50" r="50" fill="white"/>
<path d="M77.2521 60.6573C76.4778 56.5926 72.897 53.6892 68.7354 53.6892H61.9609C57.7994 53.6892 54.2185 56.6894 53.4443 60.6573C52.3797 60.9477 51.6055 61.9155 51.6055 63.0768C51.6055 63.7543 51.8958 64.335 52.2829 64.8189C51.8958 65.3028 51.6055 65.8834 51.6055 66.5609C51.6055 67.7222 52.3797 68.69 53.4443 68.9804C54.2185 73.0451 57.7994 75.9485 61.9609 75.9485H68.7354C72.897 75.9485 76.4778 72.9483 77.2521 68.9804C78.3166 68.69 79.0909 67.7222 79.0909 66.5609C79.0909 65.8834 78.8005 65.3028 78.4134 64.8189C78.8005 64.335 79.0909 63.7543 79.0909 63.0768C79.0909 62.0122 78.3166 60.9477 77.2521 60.6573ZM61.9609 55.4312H68.7354C71.9292 55.4312 74.639 57.5604 75.51 60.5606H75.2197L75.0261 60.367C74.5422 59.8831 73.9615 59.6895 73.3809 59.6895H72.897C72.3163 59.6895 71.7356 59.8831 71.2517 60.367C71.1549 60.4638 70.9614 60.5606 70.8646 60.5606H70.3807C70.1871 60.5606 70.0904 60.4638 69.9936 60.367C69.5097 59.8831 68.929 59.6895 68.3483 59.6895H67.8644C67.2838 59.6895 66.7031 59.8831 66.2192 60.367C66.1224 60.4638 65.9288 60.5606 65.8321 60.5606H65.3482C65.1546 60.5606 65.0578 60.4638 64.961 60.367C64.4772 59.8831 63.8965 59.6895 63.3158 59.6895H62.8319C62.2512 59.6895 61.6705 59.8831 61.1866 60.367C61.0899 60.4638 60.8963 60.5606 60.7995 60.5606H60.3156C60.1221 60.5606 60.0253 60.4638 59.9285 60.367C59.4446 59.8831 58.8639 59.6895 58.2833 59.6895H57.7994C57.2187 59.6895 56.638 59.8831 56.1541 60.367L55.5734 60.5606H55.2831C56.0573 57.5604 58.7672 55.4312 61.9609 55.4312ZM54.2185 62.3026H56.2509L56.9283 61.6251C57.0251 61.5284 57.2187 61.4316 57.3155 61.4316H57.7994C57.9929 61.4316 58.0897 61.5284 58.1865 61.6251C58.6704 62.109 59.2511 62.3026 59.8317 62.3026H60.4124C60.9931 62.3026 61.5738 62.109 62.0577 61.6251C62.1544 61.5284 62.348 61.4316 62.4448 61.4316H62.9287C63.1222 61.4316 63.219 61.5284 63.3158 61.6251C63.7997 62.109 64.3804 62.3026 64.961 62.3026H65.4449C66.0256 62.3026 66.6063 62.109 67.0902 61.6251C67.187 61.5284 67.3805 61.4316 67.4773 61.4316H68.1548C68.3483 61.4316 68.4451 61.5284 68.5419 61.6251C69.0258 62.109 69.6065 62.3026 70.1871 62.3026H70.671C71.2517 62.3026 71.8324 62.109 72.3163 61.6251C72.4131 61.5284 72.6066 61.4316 72.7034 61.4316H73.1873C73.3809 61.4316 73.4776 61.5284 73.5744 61.6251L74.2519 62.3026H76.2843C76.7682 62.3026 77.1553 62.6897 77.1553 63.1736C77.1553 63.6575 76.7682 64.0446 76.2843 64.0446H54.2185C53.7346 64.0446 53.3475 63.6575 53.3475 63.1736C53.3475 62.6897 53.7346 62.3026 54.2185 62.3026ZM68.7354 74.3033H61.9609C58.7672 74.3033 56.0573 72.1741 55.1863 69.1739H75.4132C74.639 72.1741 71.9292 74.3033 68.7354 74.3033ZM76.4778 67.4319H54.2185C53.7346 67.4319 53.3475 67.0448 53.3475 66.5609C53.3475 66.077 53.7346 65.6899 54.2185 65.6899H76.5746C77.0585 65.6899 77.4456 66.077 77.4456 66.5609C77.3488 67.0448 76.9617 67.4319 76.4778 67.4319Z" fill="#57B6BB"/>
<path d="M52.4768 69.4042H48.9927V44.4438H60.3159V52.8549C60.6063 52.8549 60.8966 52.8549 61.1869 52.8549C61.5741 52.8549 61.8644 52.8549 62.1547 52.9517V44.5406H63.9935C64.4774 44.5406 64.9613 44.0568 64.9613 43.5729V34.9594C64.9613 34.4756 64.4774 33.9917 63.9935 33.9917H53.251C54.122 33.0239 54.7027 31.6689 54.7027 30.2172C54.7027 27.1203 52.1864 24.604 49.0895 24.604C47.2507 24.604 45.6054 25.475 44.6376 26.8299C43.5731 24.8944 41.5407 23.6362 39.218 23.6362C35.8307 23.6362 33.1209 26.346 33.1209 29.7333C33.1209 31.3786 33.7983 32.8303 34.8629 33.9917H24.6043C24.1204 33.9917 23.6365 34.4756 23.6365 34.9594V43.3793C23.6365 43.8632 24.1204 44.3471 24.6043 44.3471H26.4431V70.2752C26.4431 70.7591 26.927 71.243 27.4109 71.243H53.1542C52.8639 70.6623 52.6703 70.0817 52.4768 69.4042ZM63.1225 35.9272V42.5082H48.9927V35.9272H63.1225ZM45.3151 30.314C45.3151 28.1849 46.9603 26.5396 49.0895 26.5396C51.2186 26.5396 52.8639 28.1849 52.8639 30.314C52.8639 32.4432 51.2186 34.0884 49.0895 34.0884H45.3151V30.314ZM39.1212 25.5718C41.4439 25.5718 43.3795 27.4107 43.3795 29.8301V34.0884H39.1212C36.7985 34.0884 34.8629 32.2496 34.8629 29.8301C34.9597 27.5074 36.7985 25.5718 39.1212 25.5718ZM39.6051 69.4042H28.3787V44.4438H39.7019V69.4042H39.6051ZM39.6051 42.5082H25.4753V35.9272H39.6051V42.5082ZM47.1539 69.4042H41.5407V44.4438H47.1539V69.4042ZM47.1539 42.5082H41.5407V35.9272H47.1539V42.5082Z" fill="#57B6BB"/>
</svg>
