<svg width="100" height="100" viewBox="0 0 100 100" fill="none" xmlns="http://www.w3.org/2000/svg">
<circle cx="50" cy="50" r="50" fill="white"/>
<path d="M58.763 26.4822C58.1507 23.3173 55.2936 20.9092 52.0283 20.9092H46.6541C43.3888 20.9092 40.5317 23.3173 39.9195 26.4822C39.0351 26.7574 38.4229 27.5142 38.4229 28.4774C38.4229 29.0278 38.6269 29.5095 38.9671 29.8535C38.6269 30.1975 38.4229 30.6791 38.4229 31.2295C38.4229 32.1927 39.0351 32.9496 39.8514 33.2248C40.4637 36.4585 43.3208 38.7977 46.5861 38.7977H51.9603C55.2256 38.7977 58.0827 36.3897 58.695 33.2248C59.5113 32.9496 60.1235 32.1927 60.1235 31.2295C60.1235 30.6791 59.9194 30.1975 59.5793 29.8535C59.9194 29.5095 60.1235 29.0278 60.1235 28.4774C60.1916 27.5142 59.5793 26.7574 58.763 26.4822ZM46.6541 22.2852H52.0283C54.5453 22.2852 56.7222 24.0053 57.3344 26.4134H57.0623L56.9262 26.2757C56.5861 25.9317 56.1779 25.7253 55.6337 25.7253H55.2256C54.7494 25.7253 54.2732 25.9317 53.9331 26.2757C53.865 26.3446 53.729 26.4134 53.5929 26.4134H53.1848C53.0487 26.4134 52.9126 26.3446 52.8446 26.2757C52.5045 25.9317 52.0963 25.7253 51.5521 25.7253H51.1439C50.6677 25.7253 50.1916 25.9317 49.8514 26.2757C49.7834 26.3446 49.6473 26.4134 49.5113 26.4134H49.1031C48.9671 26.4134 48.831 26.3446 48.763 26.2757C48.4228 25.9317 48.0147 25.7253 47.4705 25.7253H47.0623C46.5861 25.7253 46.1099 25.9317 45.7698 26.2757C45.7018 26.3446 45.5657 26.4134 45.4297 26.4134H45.0215C44.8854 26.4134 44.7494 26.3446 44.6814 26.2757C44.3412 25.9317 43.9331 25.7253 43.3888 25.7253H42.9807C42.5045 25.7253 42.0283 25.9317 41.6882 26.2757L41.5521 26.4134H41.28C41.9603 24.0053 44.1371 22.2852 46.6541 22.2852ZM40.4637 27.7894H42.0963L42.6405 27.239C42.7766 27.1702 42.9126 27.1014 42.9807 27.1014H43.3888C43.5249 27.1014 43.6609 27.1702 43.729 27.239C44.0691 27.583 44.5453 27.7894 45.0215 27.7894H45.4297C45.9058 27.7894 46.382 27.583 46.7222 27.239C46.8582 27.1702 46.9943 27.1014 47.0623 27.1014H47.4705C47.6065 27.1014 47.7426 27.1702 47.8106 27.239C48.1507 27.583 48.6269 27.7894 49.1031 27.7894H49.5113C49.9875 27.7894 50.4637 27.583 50.8038 27.239C50.9399 27.1702 51.0759 27.1014 51.1439 27.1014H51.5521C51.6882 27.1014 51.8242 27.1702 51.8922 27.239C52.2324 27.583 52.7086 27.7894 53.1848 27.7894H53.5929C54.0691 27.7894 54.5453 27.583 54.8854 27.239C55.0215 27.1702 55.1575 27.1014 55.2256 27.1014H55.6337C55.7698 27.1014 55.9058 27.1702 55.9739 27.239L56.5181 27.7894H58.1507C58.5589 27.7894 58.831 28.0646 58.831 28.4774C58.831 28.8902 58.5589 29.1654 58.1507 29.1654H40.4637C40.0555 29.1654 39.7834 28.8902 39.7834 28.4774C39.7834 28.0646 40.1235 27.7894 40.4637 27.7894ZM52.0283 37.4217H46.6541C44.1371 37.4217 41.9603 35.7016 41.348 33.2936H57.4024C56.7222 35.7016 54.5453 37.4217 52.0283 37.4217ZM58.1507 31.9175H40.4637C40.0555 31.9175 39.7834 31.6423 39.7834 31.2295C39.7834 30.8167 40.0555 30.5415 40.4637 30.5415H58.1507C58.5589 30.5415 58.831 30.8167 58.831 31.2295C58.831 31.6423 58.5589 31.9175 58.1507 31.9175Z" fill="#E67285"/>
<path d="M34.8855 64.0481C34.2733 60.8144 31.4162 58.4751 28.1509 58.4751H22.7767C19.5114 58.4751 16.6543 60.8832 16.042 64.0481C15.1577 64.3233 14.5454 65.0801 14.5454 66.0433C14.5454 66.5938 14.7495 67.0754 15.0896 67.4194C14.7495 67.7634 14.5454 68.245 14.5454 68.7954C14.5454 69.7586 15.1577 70.5155 15.974 70.7907C16.5862 74.0244 19.4434 76.3637 22.7087 76.3637H28.0828C31.3481 76.3637 34.2053 73.9556 34.8175 70.7907C35.6338 70.5155 36.2461 69.7586 36.2461 68.7954C36.2461 68.245 36.042 67.7634 35.7019 67.4194C36.042 67.0754 36.2461 66.5938 36.2461 66.0433C36.3141 65.0801 35.7019 64.3233 34.8855 64.0481ZM22.7767 59.8511H28.1509C30.6679 59.8511 32.8447 61.5712 33.457 63.9793H33.1849L33.0488 63.8417C32.7087 63.4977 32.2325 63.2912 31.7563 63.2912H31.3481C30.8719 63.2912 30.3957 63.4977 30.0556 63.8417C29.9876 63.9105 29.8515 63.9793 29.7155 63.9793H29.3073C29.1713 63.9793 29.0352 63.9105 28.9672 63.8417C28.627 63.4977 28.1509 63.2912 27.6747 63.2912H27.2665C26.7903 63.2912 26.3141 63.4977 25.974 63.8417C25.906 63.9105 25.7699 63.9793 25.6338 63.9793H25.2257C25.0896 63.9793 24.9536 63.9105 24.8855 63.8417C24.5454 63.4977 24.0692 63.2912 23.593 63.2912H23.1849C22.7087 63.2912 22.2325 63.4977 21.8923 63.8417C21.8243 63.9105 21.6883 63.9793 21.5522 63.9793H21.144C21.008 63.9793 20.8719 63.9105 20.8039 63.8417C20.4638 63.4977 19.9876 63.2912 19.5114 63.2912H19.1032C18.627 63.2912 18.1509 63.4977 17.8107 63.8417L17.6747 63.9793H17.4026C18.0828 61.5712 20.2597 59.8511 22.7767 59.8511ZM16.5862 65.3553H18.2189L18.7631 64.8049C18.8311 64.7361 18.9672 64.6673 19.1032 64.6673H19.5114C19.6475 64.6673 19.7835 64.7361 19.8515 64.8049C20.1917 65.1489 20.6679 65.3553 21.144 65.3553H21.5522C22.0284 65.3553 22.5046 65.1489 22.8447 64.8049C22.9128 64.7361 23.0488 64.6673 23.1849 64.6673H23.593C23.7291 64.6673 23.8651 64.7361 23.9332 64.8049C24.2733 65.1489 24.7495 65.3553 25.2257 65.3553H25.6338C26.11 65.3553 26.5862 65.1489 26.9264 64.8049C26.9944 64.7361 27.1304 64.6673 27.2665 64.6673H27.6747C27.8107 64.6673 27.9468 64.7361 28.0148 64.8049C28.3549 65.1489 28.8311 65.3553 29.3073 65.3553H29.7155C30.1917 65.3553 30.6679 65.1489 31.008 64.8049C31.076 64.7361 31.2121 64.6673 31.3481 64.6673H31.7563C31.8923 64.6673 32.0284 64.7361 32.0964 64.8049L32.6406 65.3553H34.2733C34.6815 65.3553 34.9536 65.6305 34.9536 66.0433C34.9536 66.4561 34.6815 66.7314 34.2733 66.7314H16.5862C16.1781 66.7314 15.906 66.4561 15.906 66.0433C15.906 65.6305 16.1781 65.3553 16.5862 65.3553ZM28.0828 74.9876H22.7087C20.1917 74.9876 18.0148 73.2676 17.4026 70.8595H33.457C32.7767 73.2676 30.5998 74.9876 28.0828 74.9876ZM34.2733 69.4834H16.5862C16.1781 69.4834 15.906 69.2082 15.906 68.7954C15.906 68.3826 16.1781 68.1074 16.5862 68.1074H34.2733C34.6815 68.1074 34.9536 68.3826 34.9536 68.7954C34.9536 69.1394 34.6815 69.4834 34.2733 69.4834Z" fill="#E67285"/>
<path d="M58.9669 64.0481C58.3547 60.8144 55.4975 58.4751 52.2322 58.4751H46.8581C43.5928 58.4751 40.7356 60.8832 40.1234 64.0481C39.3071 64.3233 38.6948 65.0801 38.6948 66.0433C38.6948 66.5938 38.8989 67.0754 39.239 67.4194C38.8989 67.7634 38.6948 68.245 38.6948 68.7954C38.6948 69.7586 39.3071 70.5155 40.1234 70.7907C40.7356 74.0244 43.5928 76.3637 46.8581 76.3637H52.2322C55.4975 76.3637 58.3547 73.9556 58.9669 70.7907C59.7833 70.5155 60.3955 69.7586 60.3955 68.7954C60.3955 68.245 60.1914 67.7634 59.8513 67.4194C60.1914 67.0754 60.3955 66.5938 60.3955 66.0433C60.3955 65.0801 59.7833 64.3233 58.9669 64.0481ZM46.8581 59.8511H52.2322C54.7492 59.8511 56.9261 61.5712 57.5384 63.9793H57.2662L57.1302 63.8417C56.7901 63.4977 56.3139 63.2912 55.8377 63.2912H55.4295C54.9533 63.2912 54.4771 63.4977 54.137 63.8417C54.069 63.9105 53.9329 63.9793 53.7969 63.9793H53.3887C53.2526 63.9793 53.1166 63.9105 53.0486 63.8417C52.7084 63.4977 52.2322 63.2912 51.756 63.2912H51.3479C50.8717 63.2912 50.3955 63.4977 50.0554 63.8417C49.9873 63.9105 49.8513 63.9793 49.7152 63.9793H49.3071C49.171 63.9793 49.035 63.9105 48.9669 63.8417C48.6268 63.4977 48.1506 63.2912 47.6744 63.2912H47.2662C46.7901 63.2912 46.3139 63.4977 45.9737 63.8417C45.9057 63.9105 45.7697 63.9793 45.6336 63.9793H45.2254C45.0894 63.9793 44.9533 63.9105 44.8853 63.8417C44.5452 63.4977 44.069 63.2912 43.5928 63.2912H43.1846C42.7084 63.2912 42.2322 63.4977 41.8921 63.8417L41.756 63.9793H41.4839C42.1642 61.5712 44.3411 59.8511 46.8581 59.8511ZM40.6676 65.3553H42.3003L42.8445 64.8049C42.9125 64.7361 43.0486 64.6673 43.1846 64.6673H43.5928C43.7288 64.6673 43.8649 64.7361 43.9329 64.8049C44.2731 65.1489 44.7492 65.3553 45.2254 65.3553H45.6336C46.1098 65.3553 46.586 65.1489 46.9261 64.8049C46.9941 64.7361 47.1302 64.6673 47.2662 64.6673H47.6744C47.8105 64.6673 47.9465 64.7361 48.0146 64.8049C48.3547 65.1489 48.8309 65.3553 49.3071 65.3553H49.7152C50.1914 65.3553 50.6676 65.1489 51.0077 64.8049C51.0758 64.7361 51.2118 64.6673 51.3479 64.6673H51.756C51.8921 64.6673 52.0282 64.7361 52.0962 64.8049C52.4363 65.1489 52.9125 65.3553 53.3887 65.3553H53.7969C54.2731 65.3553 54.7492 65.1489 55.0894 64.8049C55.1574 64.7361 55.2935 64.6673 55.4295 64.6673H55.8377C55.9737 64.6673 56.1098 64.7361 56.1778 64.8049L56.722 65.3553H58.3547C58.7628 65.3553 59.035 65.6305 59.035 66.0433C59.035 66.4561 58.7628 66.7314 58.3547 66.7314H40.6676C40.2595 66.7314 39.9873 66.4561 39.9873 66.0433C39.9873 65.6305 40.3275 65.3553 40.6676 65.3553ZM52.2322 74.9876H46.8581C44.3411 74.9876 42.1642 73.2676 41.552 70.8595H57.6064C56.9261 73.2676 54.7492 74.9876 52.2322 74.9876ZM58.3547 69.4834H40.6676C40.2595 69.4834 39.9873 69.2082 39.9873 68.7954C39.9873 68.3826 40.2595 68.1074 40.6676 68.1074H58.3547C58.7628 68.1074 59.035 68.3826 59.035 68.7954C59.035 69.1394 58.7628 69.4834 58.3547 69.4834Z" fill="#E67285"/>
<path d="M83.049 64.0481C82.4367 60.8144 79.5796 58.4751 76.3143 58.4751H70.9401C67.6748 58.4751 64.8177 60.8832 64.2054 64.0481C63.3891 64.3233 62.7769 65.0801 62.7769 66.0433C62.7769 66.5938 62.9809 67.0754 63.3211 67.4194C62.9809 67.7634 62.7769 68.245 62.7769 68.7954C62.7769 69.7586 63.3891 70.5155 64.2054 70.7907C64.8177 74.0244 67.6748 76.3637 70.9401 76.3637H76.3143C79.5796 76.3637 82.4367 73.9556 83.049 70.7907C83.8653 70.5155 84.4775 69.7586 84.4775 68.7954C84.4775 68.245 84.2734 67.7634 83.9333 67.4194C84.2734 67.0754 84.4775 66.5938 84.4775 66.0433C84.5456 65.0801 83.9333 64.3233 83.049 64.0481ZM70.9401 59.8511H76.3143C78.8313 59.8511 81.0081 61.5712 81.6204 63.9793H81.3483L81.2122 63.8417C80.8721 63.4977 80.3959 63.2912 79.9197 63.2912H79.5115C79.0354 63.2912 78.5592 63.4977 78.219 63.8417C78.151 63.9105 78.0149 63.9793 77.8789 63.9793H77.4707C77.3347 63.9793 77.1986 63.9105 77.1306 63.8417C76.7905 63.4977 76.3143 63.2912 75.8381 63.2912H75.4299C74.9537 63.2912 74.4775 63.4977 74.1374 63.8417C74.0694 63.9105 73.9333 63.9793 73.7973 63.9793H73.3891C73.253 63.9793 73.117 63.9105 73.049 63.8417C72.7088 63.4977 72.2326 63.2912 71.7564 63.2912H71.3483C70.8721 63.2912 70.3959 63.4977 70.0558 63.8417C69.9877 63.9105 69.8517 63.9793 69.7156 63.9793H69.3075C69.1714 63.9793 69.0354 63.9105 68.9673 63.8417C68.6272 63.4977 68.151 63.2912 67.6748 63.2912H67.2666C66.7905 63.2912 66.3143 63.4977 65.9741 63.8417L65.8381 63.9793H65.566C66.2462 61.5712 68.4231 59.8511 70.9401 59.8511ZM64.8177 65.3553H66.4503L66.9945 64.8049C67.0626 64.7361 67.1986 64.6673 67.3347 64.6673H67.7428C67.8789 64.6673 68.0149 64.7361 68.083 64.8049C68.4231 65.1489 68.8993 65.3553 69.3755 65.3553H69.7837C70.2598 65.3553 70.736 65.1489 71.0762 64.8049C71.1442 64.7361 71.2803 64.6673 71.4163 64.6673H71.8245C71.9605 64.6673 72.0966 64.7361 72.1646 64.8049C72.5047 65.1489 72.9809 65.3553 73.4571 65.3553H73.8653C74.3415 65.3553 74.8177 65.1489 75.1578 64.8049C75.2258 64.7361 75.3619 64.6673 75.4979 64.6673H75.9061C76.0422 64.6673 76.1782 64.7361 76.2462 64.8049C76.5864 65.1489 77.0626 65.3553 77.5388 65.3553H77.9469C78.4231 65.3553 78.8993 65.1489 79.2394 64.8049C79.3075 64.7361 79.4435 64.6673 79.5796 64.6673H79.9877C80.1238 64.6673 80.2598 64.7361 80.3279 64.8049L80.8721 65.3553H82.5047C82.9129 65.3553 83.185 65.6305 83.185 66.0433C83.185 66.4561 82.9129 66.7314 82.5047 66.7314H64.8177C64.4095 66.7314 64.1374 66.4561 64.1374 66.0433C64.1374 65.6305 64.4095 65.3553 64.8177 65.3553ZM76.3143 74.9876H70.9401C68.4231 74.9876 66.2462 73.2676 65.634 70.8595H81.6884C81.0081 73.2676 78.8313 74.9876 76.3143 74.9876ZM82.5047 69.4834H64.8177C64.4095 69.4834 64.1374 69.2082 64.1374 68.7954C64.1374 68.3826 64.4095 68.1074 64.8177 68.1074H82.5047C82.9129 68.1074 83.185 68.3826 83.185 68.7954C83.185 69.1394 82.8449 69.4834 82.5047 69.4834Z" fill="#E67285"/>
<path d="M46.9264 45.2654C46.3142 42.0317 43.457 39.6924 40.1917 39.6924H34.8176C31.5523 39.6924 28.6951 42.1005 28.0829 45.2654C27.2665 45.5406 26.6543 46.2974 26.6543 47.2606C26.6543 47.811 26.8584 48.2927 27.1985 48.6367C26.8584 48.9807 26.6543 49.4623 26.6543 50.0127C26.6543 50.9759 27.2665 51.7328 28.0829 52.008C28.6951 55.2417 31.5523 57.5809 34.8176 57.5809H40.1917C43.457 57.5809 46.3142 55.1729 46.9264 52.008C47.7427 51.7328 48.355 50.9759 48.355 50.0127C48.355 49.4623 48.1509 48.9807 47.8108 48.6367C48.1509 48.2927 48.355 47.811 48.355 47.2606C48.355 46.2974 47.7427 45.4718 46.9264 45.2654ZM34.8176 40.9996H40.1917C42.7087 40.9996 44.8856 42.7197 45.4978 45.1278H45.2257L45.0897 44.9901C44.7495 44.6461 44.2733 44.4397 43.7972 44.4397H43.389C42.9128 44.4397 42.4366 44.6461 42.0965 44.9901C42.0284 45.059 41.8924 45.1278 41.7563 45.1278H41.3482C41.2121 45.1278 41.0761 45.059 41.008 44.9901C40.6679 44.6461 40.1917 44.4397 39.7155 44.4397H39.3074C38.8312 44.4397 38.355 44.6461 38.0148 44.9901C37.9468 45.059 37.8108 45.1278 37.6747 45.1278H37.2665C37.1305 45.1278 36.9944 45.059 36.9264 44.9901C36.5863 44.6461 36.1101 44.4397 35.6339 44.4397H35.2257C34.7495 44.4397 34.2733 44.6461 33.9332 44.9901C33.8652 45.059 33.7291 45.1278 33.5931 45.1278H33.1849C33.0489 45.1278 32.9128 45.059 32.8448 44.9901C32.5046 44.6461 32.0284 44.4397 31.5523 44.4397H31.1441C30.6679 44.4397 30.1917 44.6461 29.8516 44.9901L29.7155 45.1278H29.4434C30.1237 42.7197 32.3006 40.9996 34.8176 40.9996ZM28.6271 46.5038H30.2597L30.804 45.9534C30.872 45.8846 31.008 45.8158 31.1441 45.8158H31.5523C31.6883 45.8158 31.8244 45.8846 31.8924 45.9534C32.2325 46.2974 32.7087 46.5038 33.1849 46.5038H33.5931C34.0693 46.5038 34.5455 46.2974 34.8856 45.9534C34.9536 45.8846 35.0897 45.8158 35.2257 45.8158H35.6339C35.7699 45.8158 35.906 45.8846 35.974 45.9534C36.3142 46.2974 36.7904 46.5038 37.2665 46.5038H37.6747C38.1509 46.5038 38.6271 46.2974 38.9672 45.9534C39.0352 45.8846 39.1713 45.8158 39.3074 45.8158H39.7155C39.8516 45.8158 39.9876 45.8846 40.0557 45.9534C40.3958 46.2974 40.872 46.5038 41.3482 46.5038H41.7563C42.2325 46.5038 42.7087 46.2974 43.0489 45.9534C43.1169 45.8846 43.2529 45.8158 43.389 45.8158H43.7972C43.9332 45.8158 44.0693 45.8846 44.1373 45.9534L44.6815 46.5038H46.3142C46.7223 46.5038 46.9944 46.779 46.9944 47.1918C46.9944 47.6046 46.7223 47.8798 46.3142 47.8798H28.6271C28.2189 47.8798 27.9468 47.6046 27.9468 47.1918C27.9468 46.779 28.287 46.5038 28.6271 46.5038ZM40.1917 56.1361H34.8176C32.3006 56.1361 30.1237 54.416 29.5114 52.008H45.5659C44.8176 54.416 42.7087 56.1361 40.1917 56.1361ZM46.3142 50.6319H28.6271C28.2189 50.6319 27.9468 50.3567 27.9468 49.9439C27.9468 49.5311 28.2189 49.2559 28.6271 49.2559H46.3142C46.7223 49.2559 46.9944 49.5311 46.9944 49.9439C46.9944 50.3567 46.7223 50.6319 46.3142 50.6319Z" fill="#E67285"/>
<path d="M71.0079 45.2654C70.3957 42.0317 67.5386 39.6924 64.2733 39.6924H58.8991C55.6338 39.6924 52.7767 42.1005 52.1644 45.2654C51.3481 45.5406 50.7358 46.2974 50.7358 47.2606C50.7358 47.811 50.9399 48.2927 51.2801 48.6367C50.9399 48.9807 50.7358 49.4623 50.7358 50.0127C50.7358 50.9759 51.3481 51.7328 52.1644 52.008C52.7767 55.2417 55.6338 57.5809 58.8991 57.5809H64.2733C67.5386 57.5809 70.3957 55.1729 71.0079 52.008C71.8243 51.7328 72.4365 50.9759 72.4365 50.0127C72.4365 49.4623 72.2324 48.9807 71.8923 48.6367C72.2324 48.2927 72.4365 47.811 72.4365 47.2606C72.4365 46.2974 71.8243 45.4718 71.0079 45.2654ZM58.8991 40.9996H64.2733C66.7903 40.9996 68.9671 42.7197 69.5794 45.1278H69.3073L69.1712 44.9901C68.8311 44.6461 68.3549 44.4397 67.8787 44.4397H67.4705C66.9943 44.4397 66.5182 44.6461 66.178 44.9901C66.11 45.059 65.9739 45.1278 65.8379 45.1278H65.4297C65.2937 45.1278 65.1576 45.059 65.0896 44.9901C64.7494 44.6461 64.2733 44.4397 63.7971 44.4397H63.3889C62.9127 44.4397 62.4365 44.6461 62.0964 44.9901C62.0284 45.059 61.8923 45.1278 61.7562 45.1278H61.3481C61.212 45.1278 61.076 45.059 61.0079 44.9901C60.6678 44.6461 60.1916 44.4397 59.7154 44.4397H59.3073C58.8311 44.4397 58.3549 44.6461 58.0148 44.9901C57.9467 45.059 57.8107 45.1278 57.6746 45.1278H57.2665C57.1304 45.1278 56.9943 45.059 56.9263 44.9901C56.5862 44.6461 56.11 44.4397 55.6338 44.4397H55.2256C54.7494 44.4397 54.2733 44.6461 53.9331 44.9901L53.7971 45.1278H53.525C54.2052 42.7197 56.3821 40.9996 58.8991 40.9996ZM52.7086 46.5038H54.3413L54.8855 45.9534C54.9535 45.8846 55.0896 45.8158 55.2256 45.8158H55.6338C55.7699 45.8158 55.9059 45.8846 55.9739 45.9534C56.3141 46.2974 56.7903 46.5038 57.2665 46.5038H57.6746C58.1508 46.5038 58.627 46.2974 58.9671 45.9534C59.0352 45.8846 59.1712 45.8158 59.3073 45.8158H59.7154C59.8515 45.8158 59.9875 45.8846 60.0556 45.9534C60.3957 46.2974 60.8719 46.5038 61.3481 46.5038H61.7562C62.2324 46.5038 62.7086 46.2974 63.0488 45.9534C63.1168 45.8846 63.2528 45.8158 63.3889 45.8158H63.7971C63.9331 45.8158 64.0692 45.8846 64.1372 45.9534C64.4773 46.2974 64.9535 46.5038 65.4297 46.5038H65.8379C66.3141 46.5038 66.7903 46.2974 67.1304 45.9534C67.1984 45.8846 67.3345 45.8158 67.4705 45.8158H67.8787C68.0147 45.8158 68.1508 45.8846 68.2188 45.9534L68.763 46.5038H70.3957C70.8039 46.5038 71.076 46.779 71.076 47.1918C71.076 47.6046 70.8039 47.8798 70.3957 47.8798H52.7086C52.3005 47.8798 52.0284 47.6046 52.0284 47.1918C52.0284 46.779 52.3685 46.5038 52.7086 46.5038ZM64.2733 56.1361H58.8991C56.3821 56.1361 54.2052 54.416 53.593 52.008H69.6474C68.9671 54.416 66.7903 56.1361 64.2733 56.1361ZM70.3957 50.6319H52.7086C52.3005 50.6319 52.0284 50.3567 52.0284 49.9439C52.0284 49.5311 52.3005 49.2559 52.7086 49.2559H70.3957C70.8039 49.2559 71.076 49.5311 71.076 49.9439C71.076 50.3567 70.8039 50.6319 70.3957 50.6319Z" fill="#E67285"/>
</svg>
