<svg width="54" height="54" viewBox="0 0 54 54" fill="none" xmlns="http://www.w3.org/2000/svg">
<path d="M42.9565 12.4894C42.3605 9.32912 39.6452 7.04297 36.4001 7.04297H31.2344C28.0555 7.04297 25.3401 9.32912 24.6779 12.4894C23.8832 12.7583 23.2871 13.498 23.2871 14.3721C23.2871 14.91 23.4858 15.3807 23.8169 15.7169C23.4858 16.0531 23.2871 16.5238 23.2871 17.0617C23.2871 17.9358 23.8832 18.7427 24.6779 18.9444C25.2739 22.1046 27.9892 24.3908 31.2344 24.3908H36.4001C39.579 24.3908 42.2943 22.1046 42.9565 18.9444C43.7513 18.6754 44.3473 17.9358 44.3473 17.0617C44.3473 16.5238 44.1486 16.0531 43.8175 15.7169C44.1486 15.3807 44.3473 14.91 44.3473 14.3721C44.4135 13.498 43.8175 12.7583 42.9565 12.4894ZM31.2344 8.38776H36.4001C38.8505 8.38776 40.9035 10.0688 41.5658 12.4221H41.3009L41.1684 12.2877C40.9035 11.8842 40.4399 11.7497 39.9763 11.7497H39.579C39.1154 11.7497 38.6518 11.9515 38.3206 12.2877C38.2544 12.3549 38.122 12.4221 37.9895 12.4221H37.5922C37.4597 12.4221 37.3272 12.3549 37.261 12.2877C36.9299 11.8842 36.4663 11.7497 36.0027 11.7497H35.6053C35.1418 11.7497 34.6782 11.9515 34.347 12.2877C34.2808 12.3549 34.1483 12.4221 34.0159 12.4221H33.6185C33.4861 12.4221 33.3536 12.3549 33.2874 12.2877C33.0225 11.8842 32.5589 11.7497 32.0953 11.7497H31.6979C31.2344 11.7497 30.7708 11.9515 30.4396 12.2877C30.3734 12.3549 30.2409 12.4221 30.1085 12.4221H29.7111C29.5787 12.4221 29.4462 12.3549 29.38 12.2877C29.0489 11.8842 28.5853 11.7497 28.1217 11.7497H27.7243C27.2607 11.7497 26.7971 11.9515 26.466 12.2877L26.3336 12.3549H26.1349C26.7309 10.0688 28.8502 8.38776 31.2344 8.38776ZM25.2739 13.6997H26.8634L27.3932 13.1618C27.5256 13.0945 27.5919 13.0273 27.7243 13.0273H28.1217C28.2541 13.0273 28.3866 13.0945 28.4528 13.1618C28.784 13.498 29.2475 13.6997 29.7111 13.6997H30.1085C30.5721 13.6997 31.0357 13.498 31.3668 13.1618C31.433 13.0945 31.5655 13.0273 31.6979 13.0273H32.0953C32.2278 13.0273 32.3602 13.0945 32.4264 13.1618C32.7576 13.498 33.2212 13.6997 33.6848 13.6997H34.0821C34.5457 13.6997 35.0093 13.498 35.3404 13.1618C35.4067 13.0945 35.5391 13.0273 35.6053 13.0273H36.0027C36.1352 13.0273 36.2676 13.0945 36.3338 13.1618C36.665 13.498 37.1286 13.6997 37.5922 13.6997H37.9895C38.4531 13.6997 38.9167 13.498 39.2478 13.1618C39.3141 13.0945 39.4465 13.0273 39.579 13.0273H39.9763C40.1088 13.0273 40.2412 13.0945 40.3075 13.1618L40.8373 13.6997H42.4267C42.7579 13.6997 43.089 13.9687 43.089 14.3721C43.089 14.7755 42.8241 15.0445 42.4267 15.0445H25.2739C24.9428 15.0445 24.6117 14.7755 24.6117 14.3721C24.6117 13.9687 24.9428 13.6997 25.2739 13.6997ZM36.4663 23.046H31.3006C28.8502 23.046 26.7971 21.365 26.1349 19.0116H41.632C40.9697 21.4323 38.9167 23.046 36.4663 23.046ZM42.4267 17.7341H25.2739C24.9428 17.7341 24.6117 17.4651 24.6117 17.0617C24.6117 16.6582 24.8766 16.3893 25.2739 16.3893H42.3605C42.6916 16.3893 43.0228 16.6582 43.0228 17.0617C43.0228 17.4651 42.7579 17.7341 42.4267 17.7341Z" fill="#E7426A"/>
<path d="M5.76611 33.0877L5.76612 33.0877L5.76892 33.0853L8.47236 30.6922L8.47255 30.692C9.17875 30.0663 10.2668 30.1321 10.8927 30.8391C10.8927 30.8391 10.8927 30.8391 10.8927 30.8391L10.9372 30.8894L11.346 31.3512L11.7133 30.8558C12.5847 29.6804 13.587 28.5745 14.7262 27.6977L14.7264 27.6976C17.3833 25.6502 20.9368 24.6907 23.8226 26.4527C25.6063 27.5431 27.6076 28.4496 29.7174 28.828L29.7612 28.8358H29.8057H35.8688C36.9439 28.8358 37.717 29.4507 37.9648 30.4497L38.1609 31.2405L38.7772 30.7075L45.2291 25.1273L45.2292 25.1272C46.1794 24.305 47.4057 24.4461 48.2233 25.3878C49.0452 26.3444 49.0036 27.6175 48.043 28.451L37.2987 37.7664L37.2987 37.7664C35.668 39.1805 33.8426 39.9119 31.6872 40.0139L31.6872 40.0139L20.3913 40.5496L19.7007 40.5823L19.9481 41.228C20.2033 41.8938 20.0207 42.6512 19.485 43.1256L19.485 43.1256L16.7825 45.5194C16.0756 46.1452 14.9881 46.0788 14.3621 45.3723L5.62278 35.5046L5.62273 35.5046C5.00135 34.8032 5.06445 33.6995 5.76611 33.0877ZM37.8687 32.0132L37.7992 32.0734L37.7555 32.1544C37.4264 32.766 36.8157 33.2221 35.8696 33.2221H22.6842C22.5749 33.2221 22.4851 33.1323 22.4851 33.0229C22.4851 32.9135 22.5749 32.8237 22.6842 32.8237H35.8696C36.3818 32.8237 36.8354 32.6431 37.1598 32.3035C37.4813 31.9668 37.6392 31.5126 37.6392 31.0285C37.6392 30.5544 37.4875 30.1013 37.1691 29.7623C36.8467 29.419 36.3917 29.2342 35.8696 29.2342H29.7791L29.705 29.2269C27.5511 28.8484 25.5084 27.9444 23.6185 26.7898C20.737 25.0288 17.2927 26.2176 14.9689 28.0081C13.7492 28.9471 12.7295 30.1153 11.8526 31.3342L11.6192 31.6586L11.8842 31.9577L19.0369 40.0334L19.1957 40.2126L19.4349 40.2013L31.6689 39.621C33.7306 39.5249 35.4854 38.8197 37.0433 37.4686L47.7877 28.1531L47.7881 28.1528C48.1792 27.813 48.3901 27.372 48.4024 26.9044C48.4145 26.4441 48.2336 26.0026 47.9263 25.6444L47.9256 25.6436C47.6246 25.2943 47.2261 25.0536 46.778 25.0009C46.3226 24.9472 45.8694 25.0944 45.4875 25.4239L45.4871 25.4243L37.8687 32.0132ZM6.032 33.381L6.03063 33.3822C5.51179 33.8456 5.43394 34.6399 5.87356 35.1918L5.88167 35.2019L5.8903 35.2117L14.6569 45.1125L14.6572 45.1128C15.1391 45.6561 15.9806 45.704 16.5223 45.2249L16.5226 45.2246L19.2252 42.8308L19.2254 42.8305C19.768 42.3493 19.8182 41.5085 19.3373 40.966C18.6026 40.1363 17.8676 39.3062 17.1325 38.476C14.9542 36.0158 12.775 33.5545 10.5982 31.0993C10.1163 30.5537 9.27231 30.5081 8.73214 30.9871C8.73213 30.9871 8.73213 30.9871 8.73212 30.9871L6.032 33.381Z" fill="#EE3686" stroke="#E7426A"/>
</svg>
