<svg width="48" height="34" viewBox="0 0 48 34" fill="none" xmlns="http://www.w3.org/2000/svg">
<path d="M47.3234 17.3147L41.0626 9.87994C40.906 9.72342 40.6713 9.56689 40.4365 9.56689H31.8278V22.0886H0.523438V27.5669C0.523438 28.0365 0.836481 28.3495 1.30605 28.3495H5.84518C5.76691 28.5843 5.76691 28.8973 5.76691 29.1321C5.76691 31.3234 7.48865 33.0452 9.67996 33.0452C11.8713 33.0452 13.593 31.3234 13.593 29.1321C13.593 28.8973 13.593 28.5843 13.5147 28.3495H35.0365C34.9582 28.5843 34.9582 28.8973 34.9582 29.1321C34.9582 31.3234 36.68 33.0452 38.8713 33.0452C41.0626 33.0452 42.7843 31.3234 42.7843 29.1321C42.7843 28.8973 42.7843 28.5843 42.706 28.3495H46.6973C47.1669 28.3495 47.4799 28.0365 47.4799 27.5669V17.8625V17.7843C47.4799 17.6278 47.4017 17.4712 47.3234 17.3147ZM45.0539 17.0017H39.6539V14.2625H42.706L45.0539 17.0017ZM9.67996 31.4799C8.34952 31.4799 7.33213 30.4625 7.33213 29.1321C7.33213 28.7408 7.41039 28.3495 7.64518 27.9582C8.03648 27.2538 8.81909 26.7843 9.67996 26.7843C9.91474 26.7843 10.0713 26.7843 10.306 26.8625C10.6973 26.9408 11.0887 27.1756 11.3234 27.4886C11.48 27.6452 11.5582 27.8017 11.7147 27.9582C11.9495 28.3495 12.0278 28.7408 12.0278 29.1321C12.0278 30.4625 10.9321 31.4799 9.67996 31.4799ZM38.8713 31.4799C37.5408 31.4799 36.5234 30.4625 36.5234 29.1321C36.5234 28.7408 36.6017 28.3495 36.8365 27.9582C37.2278 27.2538 38.0104 26.7843 38.8713 26.7843C39.106 26.7843 39.2626 26.7843 39.4973 26.8625C39.8886 26.9408 40.28 27.1756 40.5147 27.4886C40.6713 27.6452 40.7495 27.8017 40.906 27.9582C41.1408 28.3495 41.2191 28.7408 41.2191 29.1321C41.2191 30.4625 40.2017 31.4799 38.8713 31.4799ZM45.9147 26.7843H42.0017C42.0017 26.706 41.9234 26.706 41.9234 26.6278C41.8452 26.5495 41.7669 26.4712 41.6886 26.393C41.6104 26.3147 41.6104 26.3147 41.5321 26.2365C41.4539 26.1582 41.3756 26.0799 41.2973 26.0799C41.2191 26.0017 41.2191 26.0017 41.1408 26.0017C41.0626 25.9234 40.9843 25.9234 40.906 25.8452C40.8278 25.8452 40.8278 25.7669 40.7495 25.7669C40.6713 25.6886 40.593 25.6886 40.5147 25.6104C40.4365 25.6104 40.3582 25.5321 40.3582 25.5321C40.28 25.5321 40.2017 25.4538 40.0452 25.4538C39.9669 25.4538 39.8886 25.4538 39.8886 25.3756C39.8104 25.3756 39.6539 25.2973 39.5756 25.2973C39.4973 25.2973 39.4973 25.2973 39.4191 25.2973C39.2626 25.2973 39.106 25.2973 38.9495 25.2973C38.793 25.2973 38.6365 25.2973 38.48 25.2973C38.4017 25.2973 38.4017 25.2973 38.3234 25.2973C38.2452 25.2973 38.0886 25.2973 38.0104 25.3756C37.9321 25.3756 37.8539 25.3756 37.8539 25.4538C37.7756 25.4538 37.6973 25.5321 37.5408 25.5321C37.4626 25.5321 37.3843 25.6104 37.3843 25.6104C37.306 25.6886 37.2278 25.6886 37.1495 25.7669C37.0713 25.7669 37.0713 25.8452 36.993 25.8452C36.9147 25.9234 36.8365 25.9234 36.7582 26.0017C36.68 26.0017 36.68 26.0799 36.6017 26.0799C36.5234 26.1582 36.4452 26.2365 36.3669 26.2365C36.2886 26.3147 36.2886 26.3147 36.2104 26.393C36.1321 26.4712 36.0539 26.5495 35.9756 26.6278C35.9756 26.706 35.8973 26.706 35.8973 26.7843H12.8104C12.8104 26.706 12.7321 26.706 12.7321 26.6278C12.6539 26.5495 12.5756 26.4712 12.4973 26.393C12.4191 26.3147 12.4191 26.3147 12.3408 26.2365C12.2626 26.1582 12.1843 26.0799 12.106 26.0799C12.0278 26.0017 12.0278 26.0017 11.9495 26.0017C11.8713 25.9234 11.793 25.9234 11.7147 25.8452C11.6365 25.8452 11.6365 25.7669 11.5582 25.7669C11.48 25.6886 11.4017 25.6886 11.3234 25.6104C11.2452 25.6104 11.1669 25.5321 11.1669 25.5321C11.0887 25.5321 11.0104 25.4538 10.8539 25.4538C10.7756 25.4538 10.6973 25.4538 10.6973 25.3756C10.6191 25.3756 10.4626 25.2973 10.3843 25.2973C10.306 25.2973 10.306 25.2973 10.2278 25.2973C10.0713 25.2973 9.91474 25.2973 9.75822 25.2973C9.6017 25.2973 9.44518 25.2973 9.28865 25.2973C9.21039 25.2973 9.21039 25.2973 9.13213 25.2973C9.05387 25.2973 8.89735 25.2973 8.81909 25.3756C8.74083 25.3756 8.66257 25.3756 8.66257 25.4538C8.58431 25.4538 8.50605 25.5321 8.42778 25.5321C8.34952 25.5321 8.27126 25.6104 8.193 25.6104C8.11474 25.6104 8.03648 25.6886 7.95822 25.6886C7.87996 25.6886 7.8017 25.7669 7.72344 25.7669C7.64518 25.8452 7.56691 25.8452 7.48865 25.9234C7.41039 26.0017 7.33213 26.0017 7.33213 26.0799C7.25387 26.1582 7.25387 26.1582 7.17561 26.2365C7.09735 26.3147 7.01909 26.3147 7.01909 26.393C6.78431 26.4712 6.78431 26.5495 6.70605 26.6278C6.62778 26.706 6.62778 26.7843 6.54952 26.7843H2.08865V23.6538H32.6104C33.08 23.6538 33.393 23.3408 33.393 22.8712V11.1321H40.0452L41.3756 12.6973H38.8713C38.4017 12.6973 38.0886 13.0104 38.0886 13.4799V17.7843C38.0886 18.2538 38.4017 18.5669 38.8713 18.5669H45.9147V26.7843Z" fill="#E7426A"/>
<path d="M27.2904 6.90554C26.586 3.22728 23.3773 0.566406 19.5425 0.566406H13.4382C9.68166 0.566406 6.47296 3.22728 5.69035 6.90554C4.75122 7.21858 4.04688 8.07945 4.04688 9.09684C4.04688 9.72293 4.28166 10.2708 4.67296 10.6621C4.28166 11.0534 4.04688 11.6012 4.04688 12.2273C4.04688 13.2447 4.75122 14.1838 5.69035 14.4186C6.3947 18.0968 9.6034 20.7577 13.4382 20.7577H19.5425C23.299 20.7577 26.5077 18.0968 27.2904 14.4186C28.2295 14.1055 28.9338 13.2447 28.9338 12.2273C28.9338 11.6012 28.699 11.0534 28.3077 10.6621C28.699 10.2708 28.9338 9.72293 28.9338 9.09684C29.0121 8.07945 28.3077 7.21858 27.2904 6.90554ZM13.4382 2.13162H19.5425C22.4382 2.13162 24.8643 4.08815 25.6469 6.82728H25.3338L25.1773 6.67075C24.8643 6.20119 24.3164 6.04467 23.7686 6.04467H23.299C22.7512 6.04467 22.2034 6.27945 21.8121 6.67075C21.7338 6.74901 21.5773 6.82728 21.4208 6.82728H20.9512C20.7947 6.82728 20.6382 6.74901 20.5599 6.67075C20.1686 6.20119 19.6208 6.04467 19.073 6.04467H18.6034C18.0556 6.04467 17.5077 6.27945 17.1164 6.67075C17.0382 6.74901 16.8817 6.82728 16.7251 6.82728H16.2556C16.099 6.82728 15.9425 6.74901 15.8643 6.67075C15.5512 6.20119 15.0034 6.04467 14.4556 6.04467H13.986C13.4382 6.04467 12.8904 6.27945 12.499 6.67075C12.4208 6.74901 12.2643 6.82728 12.1077 6.82728H11.6382C11.4817 6.82728 11.3251 6.74901 11.2469 6.67075C10.8556 6.20119 10.3077 6.04467 9.75992 6.04467H9.29035C8.74253 6.04467 8.1947 6.27945 7.8034 6.67075L7.64688 6.74901H7.41209C8.11644 4.08815 10.6208 2.13162 13.4382 2.13162ZM6.3947 8.31423H8.27296L8.89905 7.68815C9.05557 7.60988 9.13383 7.53162 9.29035 7.53162H9.75992C9.91644 7.53162 10.073 7.60988 10.1512 7.68815C10.5425 8.07945 11.0904 8.31423 11.6382 8.31423H12.1077C12.6556 8.31423 13.2034 8.07945 13.5947 7.68815C13.673 7.60988 13.8295 7.53162 13.986 7.53162H14.4556C14.6121 7.53162 14.7686 7.60988 14.8469 7.68815C15.2382 8.07945 15.786 8.31423 16.3338 8.31423H16.8034C17.3512 8.31423 17.899 8.07945 18.2904 7.68815C18.3686 7.60988 18.5251 7.53162 18.6034 7.53162H19.073C19.2295 7.53162 19.386 7.60988 19.4643 7.68815C19.8556 8.07945 20.4034 8.31423 20.9512 8.31423H21.4208C21.9686 8.31423 22.5164 8.07945 22.9077 7.68815C22.986 7.60988 23.1425 7.53162 23.299 7.53162H23.7686C23.9251 7.53162 24.0817 7.60988 24.1599 7.68815L24.786 8.31423H26.6643C27.0556 8.31423 27.4469 8.62727 27.4469 9.09684C27.4469 9.56641 27.1338 9.87945 26.6643 9.87945H6.3947C6.0034 9.87945 5.61209 9.56641 5.61209 9.09684C5.61209 8.62727 6.0034 8.31423 6.3947 8.31423ZM19.6208 19.1925H13.5164C10.6208 19.1925 8.1947 17.236 7.41209 14.4968H25.7251C24.9425 17.3142 22.5164 19.1925 19.6208 19.1925ZM26.6643 13.0099H6.3947C6.0034 13.0099 5.61209 12.6968 5.61209 12.2273C5.61209 11.7577 5.92514 11.4447 6.3947 11.4447H26.586C26.9773 11.4447 27.3686 11.7577 27.3686 12.2273C27.3686 12.6968 27.0556 13.0099 26.6643 13.0099Z" fill="#E7426A"/>
</svg>
